<ttFont>
    <TTGlyph name=".notdef" xMin="66" yMin="-220" xMax="603" yMax="1030">
      <contour>
        <pt x="66" y="1030" on="1"/>
        <pt x="603" y="1030" on="1"/>
        <pt x="603" y="-220" on="1"/>
        <pt x="66" y="-220" on="1"/>
      </contour>
      <contour>
        <pt x="472" y="-98" on="1"/>
        <pt x="472" y="909" on="1"/>
        <pt x="196" y="909" on="1"/>
        <pt x="196" y="-98" on="1"/>
      </contour>
    </TTGlyph>
    <TTGlyph name="A" xMin="-1" yMin="0" xMax="621" yMax="740">
      <contour>
        <pt x="-1" y="7" on="1"/>
        <pt x="186" y="740" on="1"/>
        <pt x="434" y="740" on="1"/>
        <pt x="621" y="7" on="1"/>
        <pt x="621" y="0" on="1"/>
        <pt x="467" y="0" on="1"/>
        <pt x="421" y="177" on="1"/>
        <pt x="198" y="177" on="1"/>
        <pt x="153" y="0" on="1"/>
        <pt x="-1" y="0" on="1"/>
      </contour>
      <contour>
        <pt x="390" y="308" on="1"/>
        <pt x="341" y="508" on="1"/>
        <pt x="315" y="617" on="1"/>
        <pt x="304" y="617" on="1"/>
        <pt x="279" y="508" on="1"/>
        <pt x="229" y="308" on="1"/>
      </contour>
    </TTGlyph>
    <TTGlyph name="A.sc" xMin="1" yMin="0" xMax="572" yMax="577">
      <contour>
        <pt x="1" y="6" on="1"/>
        <pt x="170" y="577" on="1"/>
        <pt x="403" y="577" on="1"/>
        <pt x="572" y="6" on="1"/>
        <pt x="572" y="0" on="1"/>
        <pt x="426" y="0" on="1"/>
        <pt x="387" y="121" on="1"/>
        <pt x="185" y="121" on="1"/>
        <pt x="147" y="0" on="1"/>
        <pt x="1" y="0" on="1"/>
      </contour>
      <contour>
        <pt x="363" y="224" on="1"/>
        <pt x="314" y="386" on="1"/>
        <pt x="293" y="466" on="1"/>
        <pt x="280" y="466" on="1"/>
        <pt x="259" y="386" on="1"/>
        <pt x="209" y="224" on="1"/>
      </contour>
    </TTGlyph>
    <TTGlyph name="AE" xMin="-3" yMin="0" xMax="793" yMax="740">
      <contour>
        <pt x="-3" y="6" on="1"/>
        <pt x="215" y="740" on="1"/>
        <pt x="784" y="740" on="1"/>
        <pt x="784" y="603" on="1"/>
        <pt x="536" y="603" on="1"/>
        <pt x="546" y="440" on="1"/>
        <pt x="772" y="440" on="1"/>
        <pt x="772" y="302" on="1"/>
        <pt x="555" y="302" on="1"/>
        <pt x="566" y="137" on="1"/>
        <pt x="793" y="137" on="1"/>
        <pt x="793" y="0" on="1"/>
        <pt x="408" y="0" on="1"/>
        <pt x="401" y="174" on="1"/>
        <pt x="215" y="174" on="1"/>
        <pt x="165" y="0" on="1"/>
        <pt x="-3" y="0" on="1"/>
      </contour>
      <contour>
        <pt x="254" y="311" on="1"/>
        <pt x="395" y="311" on="1"/>
        <pt x="383" y="614" on="1"/>
        <pt x="342" y="614" on="1"/>
      </contour>
    </TTGlyph>
    <TTGlyph name="AE.sc" xMin="1" yMin="0" xMax="729" yMax="577">
      <contour>
        <pt x="1" y="5" on="1"/>
        <pt x="199" y="577" on="1"/>
        <pt x="721" y="577" on="1"/>
        <pt x="721" y="454" on="1"/>
        <pt x="498" y="454" on="1"/>
        <pt x="505" y="349" on="1"/>
        <pt x="710" y="349" on="1"/>
        <pt x="710" y="229" on="1"/>
        <pt x="517" y="229" on="1"/>
        <pt x="525" y="124" on="1"/>
        <pt x="729" y="124" on="1"/>
        <pt x="729" y="0" on="1"/>
        <pt x="375" y="0" on="1"/>
        <pt x="370" y="121" on="1"/>
        <pt x="201" y="121" on="1"/>
        <pt x="159" y="0" on="1"/>
        <pt x="1" y="0" on="1"/>
      </contour>
      <contour>
        <pt x="238" y="233" on="1"/>
        <pt x="364" y="233" on="1"/>
        <pt x="354" y="462" on="1"/>
        <pt x="318" y="462" on="1"/>
      </contour>
    </TTGlyph>
    <TTGlyph name="AEacute" xMin="-3" yMin="0" xMax="793" yMax="973">
      <contour>
        <pt x="416" y="798" on="1"/>
        <pt x="482" y="973" on="1"/>
        <pt x="646" y="973" on="1"/>
        <pt x="531" y="789" on="1"/>
      </contour>
      <contour>
        <pt x="-3" y="6" on="1"/>
        <pt x="215" y="740" on="1"/>
        <pt x="784" y="740" on="1"/>
        <pt x="784" y="603" on="1"/>
        <pt x="536" y="603" on="1"/>
        <pt x="546" y="440" on="1"/>
        <pt x="772" y="440" on="1"/>
        <pt x="772" y="302" on="1"/>
        <pt x="555" y="302" on="1"/>
        <pt x="566" y="137" on="1"/>
        <pt x="793" y="137" on="1"/>
        <pt x="793" y="0" on="1"/>
        <pt x="408" y="0" on="1"/>
        <pt x="401" y="174" on="1"/>
        <pt x="215" y="174" on="1"/>
        <pt x="165" y="0" on="1"/>
        <pt x="-3" y="0" on="1"/>
      </contour>
      <contour>
        <pt x="254" y="311" on="1"/>
        <pt x="395" y="311" on="1"/>
        <pt x="383" y="614" on="1"/>
        <pt x="342" y="614" on="1"/>
      </contour>
    </TTGlyph>
    <TTGlyph name="AEacute.sc" xMin="1" yMin="0" xMax="729" yMax="772">
      <contour>
        <pt x="1" y="5" on="1"/>
        <pt x="199" y="577" on="1"/>
        <pt x="721" y="577" on="1"/>
        <pt x="721" y="454" on="1"/>
        <pt x="498" y="454" on="1"/>
        <pt x="505" y="349" on="1"/>
        <pt x="710" y="349" on="1"/>
        <pt x="710" y="229" on="1"/>
        <pt x="517" y="229" on="1"/>
        <pt x="525" y="124" on="1"/>
        <pt x="729" y="124" on="1"/>
        <pt x="729" y="0" on="1"/>
        <pt x="375" y="0" on="1"/>
        <pt x="370" y="121" on="1"/>
        <pt x="201" y="121" on="1"/>
        <pt x="159" y="0" on="1"/>
        <pt x="1" y="0" on="1"/>
      </contour>
      <contour>
        <pt x="364" y="233" on="1"/>
        <pt x="354" y="462" on="1"/>
        <pt x="318" y="462" on="1"/>
        <pt x="238" y="233" on="1"/>
      </contour>
      <contour>
        <pt x="378" y="625" on="1"/>
        <pt x="437" y="772" on="1"/>
        <pt x="591" y="772" on="1"/>
        <pt x="486" y="617" on="1"/>
      </contour>
    </TTGlyph>
    <TTGlyph name="Aacute" xMin="-1" yMin="0" xMax="621" yMax="973">
      <contour>
        <pt x="-1" y="7" on="1"/>
        <pt x="186" y="740" on="1"/>
        <pt x="434" y="740" on="1"/>
        <pt x="621" y="7" on="1"/>
        <pt x="621" y="0" on="1"/>
        <pt x="467" y="0" on="1"/>
        <pt x="421" y="177" on="1"/>
        <pt x="198" y="177" on="1"/>
        <pt x="153" y="0" on="1"/>
        <pt x="-1" y="0" on="1"/>
      </contour>
      <contour>
        <pt x="390" y="308" on="1"/>
        <pt x="341" y="508" on="1"/>
        <pt x="315" y="617" on="1"/>
        <pt x="304" y="617" on="1"/>
        <pt x="279" y="508" on="1"/>
        <pt x="229" y="308" on="1"/>
      </contour>
      <contour>
        <pt x="248" y="798" on="1"/>
        <pt x="314" y="973" on="1"/>
        <pt x="478" y="973" on="1"/>
        <pt x="363" y="789" on="1"/>
      </contour>
    </TTGlyph>
    <TTGlyph name="Aacute.sc" xMin="1" yMin="0" xMax="572" yMax="772">
      <contour>
        <pt x="1" y="6" on="1"/>
        <pt x="170" y="577" on="1"/>
        <pt x="403" y="577" on="1"/>
        <pt x="572" y="6" on="1"/>
        <pt x="572" y="0" on="1"/>
        <pt x="426" y="0" on="1"/>
        <pt x="387" y="121" on="1"/>
        <pt x="185" y="121" on="1"/>
        <pt x="147" y="0" on="1"/>
        <pt x="1" y="0" on="1"/>
      </contour>
      <contour>
        <pt x="363" y="224" on="1"/>
        <pt x="314" y="386" on="1"/>
        <pt x="293" y="466" on="1"/>
        <pt x="280" y="466" on="1"/>
        <pt x="259" y="386" on="1"/>
        <pt x="209" y="224" on="1"/>
      </contour>
      <contour>
        <pt x="228" y="625" on="1"/>
        <pt x="287" y="772" on="1"/>
        <pt x="442" y="772" on="1"/>
        <pt x="337" y="617" on="1"/>
      </contour>
    </TTGlyph>
    <TTGlyph name="Abreve" xMin="-1" yMin="0" xMax="621" yMax="970">
      <contour>
        <pt x="-1" y="7" on="1"/>
        <pt x="186" y="740" on="1"/>
        <pt x="434" y="740" on="1"/>
        <pt x="621" y="7" on="1"/>
        <pt x="621" y="0" on="1"/>
        <pt x="467" y="0" on="1"/>
        <pt x="421" y="177" on="1"/>
        <pt x="198" y="177" on="1"/>
        <pt x="153" y="0" on="1"/>
        <pt x="-1" y="0" on="1"/>
      </contour>
      <contour>
        <pt x="390" y="308" on="1"/>
        <pt x="341" y="508" on="1"/>
        <pt x="315" y="617" on="1"/>
        <pt x="304" y="617" on="1"/>
        <pt x="279" y="508" on="1"/>
        <pt x="229" y="308" on="1"/>
      </contour>
      <contour>
        <pt x="312" y="795" on="1"/>
        <pt x="224" y="795" on="0"/>
        <pt x="134" y="888" on="0"/>
        <pt x="134" y="970" on="1"/>
        <pt x="243" y="970" on="1"/>
        <pt x="243" y="916" on="0"/>
        <pt x="273" y="871" on="0"/>
        <pt x="312" y="871" on="1"/>
        <pt x="350" y="871" on="0"/>
        <pt x="381" y="916" on="0"/>
        <pt x="381" y="970" on="1"/>
        <pt x="491" y="970" on="1"/>
        <pt x="491" y="889" on="0"/>
        <pt x="399" y="795" on="0"/>
      </contour>
    </TTGlyph>
    <TTGlyph name="Abreve.sc" xMin="1" yMin="0" xMax="572" yMax="763">
      <contour>
        <pt x="287" y="617" on="1"/>
        <pt x="206" y="617" on="0"/>
        <pt x="122" y="695" on="0"/>
        <pt x="122" y="763" on="1"/>
        <pt x="225" y="763" on="1"/>
        <pt x="225" y="718" on="0"/>
        <pt x="251" y="685" on="0"/>
        <pt x="287" y="685" on="1"/>
        <pt x="322" y="685" on="0"/>
        <pt x="349" y="718" on="0"/>
        <pt x="349" y="763" on="1"/>
        <pt x="452" y="763" on="1"/>
        <pt x="452" y="695" on="0"/>
        <pt x="368" y="617" on="0"/>
      </contour>
      <contour>
        <pt x="1" y="6" on="1"/>
        <pt x="170" y="577" on="1"/>
        <pt x="403" y="577" on="1"/>
        <pt x="572" y="6" on="1"/>
        <pt x="572" y="0" on="1"/>
        <pt x="426" y="0" on="1"/>
        <pt x="387" y="121" on="1"/>
        <pt x="185" y="121" on="1"/>
        <pt x="147" y="0" on="1"/>
        <pt x="1" y="0" on="1"/>
      </contour>
      <contour>
        <pt x="363" y="224" on="1"/>
        <pt x="314" y="386" on="1"/>
        <pt x="293" y="466" on="1"/>
        <pt x="280" y="466" on="1"/>
        <pt x="259" y="386" on="1"/>
        <pt x="209" y="224" on="1"/>
      </contour>
    </TTGlyph>
    <TTGlyph name="Acircumflex" xMin="-1" yMin="0" xMax="621" yMax="972">
      <contour>
        <pt x="-1" y="7" on="1"/>
        <pt x="186" y="740" on="1"/>
        <pt x="434" y="740" on="1"/>
        <pt x="621" y="7" on="1"/>
        <pt x="621" y="0" on="1"/>
        <pt x="467" y="0" on="1"/>
        <pt x="421" y="177" on="1"/>
        <pt x="198" y="177" on="1"/>
        <pt x="153" y="0" on="1"/>
        <pt x="-1" y="0" on="1"/>
      </contour>
      <contour>
        <pt x="390" y="308" on="1"/>
        <pt x="341" y="508" on="1"/>
        <pt x="315" y="617" on="1"/>
        <pt x="304" y="617" on="1"/>
        <pt x="279" y="508" on="1"/>
        <pt x="229" y="308" on="1"/>
      </contour>
      <contour>
        <pt x="150" y="900" on="1"/>
        <pt x="312" y="972" on="1"/>
        <pt x="473" y="900" on="1"/>
        <pt x="473" y="792" on="1"/>
        <pt x="311" y="864" on="1"/>
        <pt x="150" y="792" on="1"/>
      </contour>
    </TTGlyph>
    <TTGlyph name="Acircumflex.sc" xMin="1" yMin="0" xMax="572" yMax="768">
      <contour>
        <pt x="1" y="6" on="1"/>
        <pt x="170" y="577" on="1"/>
        <pt x="403" y="577" on="1"/>
        <pt x="572" y="6" on="1"/>
        <pt x="572" y="0" on="1"/>
        <pt x="426" y="0" on="1"/>
        <pt x="387" y="121" on="1"/>
        <pt x="185" y="121" on="1"/>
        <pt x="147" y="0" on="1"/>
        <pt x="1" y="0" on="1"/>
      </contour>
      <contour>
        <pt x="363" y="224" on="1"/>
        <pt x="314" y="386" on="1"/>
        <pt x="293" y="466" on="1"/>
        <pt x="280" y="466" on="1"/>
        <pt x="259" y="386" on="1"/>
        <pt x="209" y="224" on="1"/>
      </contour>
      <contour>
        <pt x="139" y="712" on="1"/>
        <pt x="289" y="768" on="1"/>
        <pt x="437" y="712" on="1"/>
        <pt x="437" y="614" on="1"/>
        <pt x="288" y="670" on="1"/>
        <pt x="139" y="614" on="1"/>
      </contour>
    </TTGlyph>
    <TTGlyph name="Adblgrave" xMin="-1" yMin="0" xMax="621" yMax="973">
      <contour>
        <pt x="-1" y="7" on="1"/>
        <pt x="186" y="740" on="1"/>
        <pt x="434" y="740" on="1"/>
        <pt x="621" y="7" on="1"/>
        <pt x="621" y="0" on="1"/>
        <pt x="467" y="0" on="1"/>
        <pt x="421" y="177" on="1"/>
        <pt x="198" y="177" on="1"/>
        <pt x="153" y="0" on="1"/>
        <pt x="-1" y="0" on="1"/>
      </contour>
      <contour>
        <pt x="390" y="308" on="1"/>
        <pt x="341" y="508" on="1"/>
        <pt x="315" y="617" on="1"/>
        <pt x="304" y="617" on="1"/>
        <pt x="279" y="508" on="1"/>
        <pt x="229" y="308" on="1"/>
      </contour>
      <contour>
        <pt x="186" y="789" on="1"/>
        <pt x="70" y="973" on="1"/>
        <pt x="204" y="973" on="1"/>
        <pt x="271" y="800" on="1"/>
      </contour>
      <contour>
        <pt x="371" y="789" on="1"/>
        <pt x="254" y="973" on="1"/>
        <pt x="388" y="973" on="1"/>
        <pt x="455" y="800" on="1"/>
      </contour>
    </TTGlyph>
    <TTGlyph name="Adblgrave.sc" xMin="1" yMin="0" xMax="572" yMax="772">
      <contour>
        <pt x="1" y="6" on="1"/>
        <pt x="170" y="577" on="1"/>
        <pt x="403" y="577" on="1"/>
        <pt x="572" y="6" on="1"/>
        <pt x="572" y="0" on="1"/>
        <pt x="426" y="0" on="1"/>
        <pt x="387" y="121" on="1"/>
        <pt x="185" y="121" on="1"/>
        <pt x="147" y="0" on="1"/>
        <pt x="1" y="0" on="1"/>
      </contour>
      <contour>
        <pt x="363" y="224" on="1"/>
        <pt x="314" y="386" on="1"/>
        <pt x="293" y="466" on="1"/>
        <pt x="280" y="466" on="1"/>
        <pt x="259" y="386" on="1"/>
        <pt x="209" y="224" on="1"/>
      </contour>
      <contour>
        <pt x="64" y="772" on="1"/>
        <pt x="192" y="772" on="1"/>
        <pt x="251" y="625" on="1"/>
        <pt x="170" y="617" on="1"/>
      </contour>
      <contour>
        <pt x="234" y="772" on="1"/>
        <pt x="361" y="772" on="1"/>
        <pt x="420" y="625" on="1"/>
        <pt x="340" y="617" on="1"/>
      </contour>
    </TTGlyph>
    <TTGlyph name="Adieresis" xMin="-1" yMin="0" xMax="621" yMax="973">
      <contour>
        <pt x="-1" y="7" on="1"/>
        <pt x="186" y="740" on="1"/>
        <pt x="434" y="740" on="1"/>
        <pt x="621" y="7" on="1"/>
        <pt x="621" y="0" on="1"/>
        <pt x="467" y="0" on="1"/>
        <pt x="421" y="177" on="1"/>
        <pt x="198" y="177" on="1"/>
        <pt x="153" y="0" on="1"/>
        <pt x="-1" y="0" on="1"/>
      </contour>
      <contour>
        <pt x="390" y="308" on="1"/>
        <pt x="341" y="508" on="1"/>
        <pt x="315" y="617" on="1"/>
        <pt x="304" y="617" on="1"/>
        <pt x="279" y="508" on="1"/>
        <pt x="229" y="308" on="1"/>
      </contour>
      <contour>
        <pt x="188" y="801" on="1"/>
        <pt x="141" y="801" on="0"/>
        <pt x="100" y="842" on="0"/>
        <pt x="100" y="888" on="1"/>
        <pt x="100" y="933" on="0"/>
        <pt x="141" y="973" on="0"/>
        <pt x="188" y="973" on="1"/>
        <pt x="234" y="973" on="0"/>
        <pt x="277" y="933" on="0"/>
        <pt x="277" y="888" on="1"/>
        <pt x="277" y="841" on="0"/>
        <pt x="234" y="801" on="0"/>
      </contour>
      <contour>
        <pt x="433" y="801" on="1"/>
        <pt x="386" y="801" on="0"/>
        <pt x="345" y="842" on="0"/>
        <pt x="345" y="888" on="1"/>
        <pt x="345" y="933" on="0"/>
        <pt x="386" y="973" on="0"/>
        <pt x="433" y="973" on="1"/>
        <pt x="479" y="973" on="0"/>
        <pt x="522" y="933" on="0"/>
        <pt x="522" y="888" on="1"/>
        <pt x="522" y="841" on="0"/>
        <pt x="479" y="801" on="0"/>
      </contour>
    </TTGlyph>
    <TTGlyph name="Adieresis.sc" xMin="1" yMin="0" xMax="572" yMax="780">
      <contour>
        <pt x="175" y="622" on="1"/>
        <pt x="131" y="622" on="0"/>
        <pt x="93" y="659" on="0"/>
        <pt x="93" y="701" on="1"/>
        <pt x="93" y="743" on="0"/>
        <pt x="131" y="780" on="0"/>
        <pt x="175" y="780" on="1"/>
        <pt x="218" y="780" on="0"/>
        <pt x="258" y="743" on="0"/>
        <pt x="258" y="701" on="1"/>
        <pt x="258" y="659" on="0"/>
        <pt x="218" y="622" on="0"/>
      </contour>
      <contour>
        <pt x="401" y="622" on="1"/>
        <pt x="357" y="622" on="0"/>
        <pt x="319" y="659" on="0"/>
        <pt x="319" y="701" on="1"/>
        <pt x="319" y="743" on="0"/>
        <pt x="357" y="780" on="0"/>
        <pt x="401" y="780" on="1"/>
        <pt x="444" y="780" on="0"/>
        <pt x="483" y="743" on="0"/>
        <pt x="483" y="701" on="1"/>
        <pt x="483" y="659" on="0"/>
        <pt x="444" y="622" on="0"/>
      </contour>
      <contour>
        <pt x="1" y="6" on="1"/>
        <pt x="170" y="577" on="1"/>
        <pt x="403" y="577" on="1"/>
        <pt x="572" y="6" on="1"/>
        <pt x="572" y="0" on="1"/>
        <pt x="426" y="0" on="1"/>
        <pt x="387" y="121" on="1"/>
        <pt x="185" y="121" on="1"/>
        <pt x="147" y="0" on="1"/>
        <pt x="1" y="0" on="1"/>
      </contour>
      <contour>
        <pt x="363" y="224" on="1"/>
        <pt x="314" y="386" on="1"/>
        <pt x="293" y="466" on="1"/>
        <pt x="280" y="466" on="1"/>
        <pt x="259" y="386" on="1"/>
        <pt x="209" y="224" on="1"/>
      </contour>
    </TTGlyph>
    <TTGlyph name="Agrave" xMin="-1" yMin="0" xMax="621" yMax="973">
      <contour>
        <pt x="-1" y="7" on="1"/>
        <pt x="186" y="740" on="1"/>
        <pt x="434" y="740" on="1"/>
        <pt x="621" y="7" on="1"/>
        <pt x="621" y="0" on="1"/>
        <pt x="467" y="0" on="1"/>
        <pt x="421" y="177" on="1"/>
        <pt x="198" y="177" on="1"/>
        <pt x="153" y="0" on="1"/>
        <pt x="-1" y="0" on="1"/>
      </contour>
      <contour>
        <pt x="390" y="308" on="1"/>
        <pt x="341" y="508" on="1"/>
        <pt x="315" y="617" on="1"/>
        <pt x="304" y="617" on="1"/>
        <pt x="279" y="508" on="1"/>
        <pt x="229" y="308" on="1"/>
      </contour>
      <contour>
        <pt x="251" y="789" on="1"/>
        <pt x="135" y="973" on="1"/>
        <pt x="299" y="973" on="1"/>
        <pt x="366" y="800" on="1"/>
      </contour>
    </TTGlyph>
    <TTGlyph name="Agrave.sc" xMin="1" yMin="0" xMax="572" yMax="772">
      <contour>
        <pt x="1" y="6" on="1"/>
        <pt x="170" y="577" on="1"/>
        <pt x="403" y="577" on="1"/>
        <pt x="572" y="6" on="1"/>
        <pt x="572" y="0" on="1"/>
        <pt x="426" y="0" on="1"/>
        <pt x="387" y="121" on="1"/>
        <pt x="185" y="121" on="1"/>
        <pt x="147" y="0" on="1"/>
        <pt x="1" y="0" on="1"/>
      </contour>
      <contour>
        <pt x="363" y="224" on="1"/>
        <pt x="314" y="386" on="1"/>
        <pt x="293" y="466" on="1"/>
        <pt x="280" y="466" on="1"/>
        <pt x="259" y="386" on="1"/>
        <pt x="209" y="224" on="1"/>
      </contour>
      <contour>
        <pt x="230" y="617" on="1"/>
        <pt x="126" y="772" on="1"/>
        <pt x="280" y="772" on="1"/>
        <pt x="339" y="625" on="1"/>
      </contour>
    </TTGlyph>
    <TTGlyph name="Ainvertedbreve" xMin="-1" yMin="0" xMax="621" yMax="980">
      <contour>
        <pt x="-1" y="7" on="1"/>
        <pt x="186" y="740" on="1"/>
        <pt x="434" y="740" on="1"/>
        <pt x="621" y="7" on="1"/>
        <pt x="621" y="0" on="1"/>
        <pt x="467" y="0" on="1"/>
        <pt x="421" y="177" on="1"/>
        <pt x="198" y="177" on="1"/>
        <pt x="153" y="0" on="1"/>
        <pt x="-1" y="0" on="1"/>
      </contour>
      <contour>
        <pt x="390" y="308" on="1"/>
        <pt x="341" y="508" on="1"/>
        <pt x="315" y="617" on="1"/>
        <pt x="304" y="617" on="1"/>
        <pt x="279" y="508" on="1"/>
        <pt x="229" y="308" on="1"/>
      </contour>
      <contour>
        <pt x="381" y="805" on="1"/>
        <pt x="381" y="860" on="0"/>
        <pt x="350" y="905" on="0"/>
        <pt x="312" y="905" on="1"/>
        <pt x="273" y="905" on="0"/>
        <pt x="243" y="860" on="0"/>
        <pt x="243" y="805" on="1"/>
        <pt x="134" y="805" on="1"/>
        <pt x="134" y="887" on="0"/>
        <pt x="224" y="980" on="0"/>
        <pt x="312" y="980" on="1"/>
        <pt x="399" y="980" on="0"/>
        <pt x="491" y="887" on="0"/>
        <pt x="491" y="805" on="1"/>
      </contour>
    </TTGlyph>
    <TTGlyph name="Ainvertedbreve.sc" xMin="1" yMin="0" xMax="572" yMax="770">
      <contour>
        <pt x="125" y="625" on="1"/>
        <pt x="125" y="693" on="0"/>
        <pt x="208" y="770" on="0"/>
        <pt x="289" y="770" on="1"/>
        <pt x="370" y="770" on="0"/>
        <pt x="454" y="693" on="0"/>
        <pt x="454" y="625" on="1"/>
        <pt x="351" y="625" on="1"/>
        <pt x="351" y="669" on="0"/>
        <pt x="324" y="702" on="0"/>
        <pt x="289" y="702" on="1"/>
        <pt x="253" y="702" on="0"/>
        <pt x="227" y="669" on="0"/>
        <pt x="227" y="625" on="1"/>
      </contour>
      <contour>
        <pt x="1" y="6" on="1"/>
        <pt x="170" y="577" on="1"/>
        <pt x="403" y="577" on="1"/>
        <pt x="572" y="6" on="1"/>
        <pt x="572" y="0" on="1"/>
        <pt x="426" y="0" on="1"/>
        <pt x="387" y="121" on="1"/>
        <pt x="185" y="121" on="1"/>
        <pt x="147" y="0" on="1"/>
        <pt x="1" y="0" on="1"/>
      </contour>
      <contour>
        <pt x="363" y="224" on="1"/>
        <pt x="314" y="386" on="1"/>
        <pt x="293" y="466" on="1"/>
        <pt x="280" y="466" on="1"/>
        <pt x="259" y="386" on="1"/>
        <pt x="209" y="224" on="1"/>
      </contour>
    </TTGlyph>
    <TTGlyph name="Amacron" xMin="-1" yMin="0" xMax="621" yMax="944">
      <contour>
        <pt x="-1" y="7" on="1"/>
        <pt x="186" y="740" on="1"/>
        <pt x="434" y="740" on="1"/>
        <pt x="621" y="7" on="1"/>
        <pt x="621" y="0" on="1"/>
        <pt x="467" y="0" on="1"/>
        <pt x="421" y="177" on="1"/>
        <pt x="198" y="177" on="1"/>
        <pt x="153" y="0" on="1"/>
        <pt x="-1" y="0" on="1"/>
      </contour>
      <contour>
        <pt x="390" y="308" on="1"/>
        <pt x="341" y="508" on="1"/>
        <pt x="315" y="617" on="1"/>
        <pt x="304" y="617" on="1"/>
        <pt x="279" y="508" on="1"/>
        <pt x="229" y="308" on="1"/>
      </contour>
      <contour>
        <pt x="151" y="944" on="1"/>
        <pt x="468" y="944" on="1"/>
        <pt x="468" y="837" on="1"/>
        <pt x="151" y="837" on="1"/>
      </contour>
    </TTGlyph>
    <TTGlyph name="Amacron.sc" xMin="1" yMin="0" xMax="572" yMax="751">
      <contour>
        <pt x="1" y="6" on="1"/>
        <pt x="170" y="577" on="1"/>
        <pt x="403" y="577" on="1"/>
        <pt x="572" y="6" on="1"/>
        <pt x="572" y="0" on="1"/>
        <pt x="426" y="0" on="1"/>
        <pt x="387" y="121" on="1"/>
        <pt x="185" y="121" on="1"/>
        <pt x="147" y="0" on="1"/>
        <pt x="1" y="0" on="1"/>
      </contour>
      <contour>
        <pt x="363" y="224" on="1"/>
        <pt x="314" y="386" on="1"/>
        <pt x="293" y="466" on="1"/>
        <pt x="280" y="466" on="1"/>
        <pt x="259" y="386" on="1"/>
        <pt x="209" y="224" on="1"/>
      </contour>
      <contour>
        <pt x="140" y="751" on="1"/>
        <pt x="434" y="751" on="1"/>
        <pt x="434" y="652" on="1"/>
        <pt x="140" y="652" on="1"/>
      </contour>
    </TTGlyph>
    <TTGlyph name="Aogonek" xMin="-1" yMin="-220" xMax="621" yMax="740">
      <contour>
        <pt x="535" y="-220" on="1"/>
        <pt x="412" y="-220" on="0"/>
        <pt x="412" y="-120" on="1"/>
        <pt x="412" y="-86" on="0"/>
        <pt x="446" y="-32" on="0"/>
        <pt x="488" y="0" on="1"/>
        <pt x="467" y="0" on="1"/>
        <pt x="421" y="177" on="1"/>
        <pt x="198" y="177" on="1"/>
        <pt x="153" y="0" on="1"/>
        <pt x="-1" y="0" on="1"/>
        <pt x="-1" y="7" on="1"/>
        <pt x="186" y="740" on="1"/>
        <pt x="434" y="740" on="1"/>
        <pt x="621" y="7" on="1"/>
        <pt x="621" y="-8" on="1"/>
        <pt x="591" y="-19" on="0"/>
        <pt x="551" y="-45" on="0"/>
        <pt x="526" y="-71" on="0"/>
        <pt x="515" y="-94" on="0"/>
        <pt x="515" y="-103" on="1"/>
        <pt x="515" y="-116" on="0"/>
        <pt x="536" y="-127" on="0"/>
        <pt x="553" y="-127" on="1"/>
        <pt x="570" y="-127" on="0"/>
        <pt x="607" y="-120" on="0"/>
        <pt x="621" y="-115" on="1"/>
        <pt x="621" y="-208" on="1"/>
        <pt x="598" y="-213" on="0"/>
        <pt x="558" y="-220" on="0"/>
      </contour>
      <contour>
        <pt x="390" y="308" on="1"/>
        <pt x="341" y="508" on="1"/>
        <pt x="315" y="617" on="1"/>
        <pt x="304" y="617" on="1"/>
        <pt x="279" y="508" on="1"/>
        <pt x="229" y="308" on="1"/>
      </contour>
    </TTGlyph>
    <TTGlyph name="Aogonek.sc" xMin="1" yMin="-166" xMax="572" yMax="577">
      <contour>
        <pt x="493" y="-166" on="1"/>
        <pt x="380" y="-166" on="0"/>
        <pt x="380" y="-86" on="1"/>
        <pt x="380" y="-62" on="0"/>
        <pt x="406" y="-22" on="0"/>
        <pt x="437" y="0" on="1"/>
        <pt x="426" y="0" on="1"/>
        <pt x="387" y="121" on="1"/>
        <pt x="185" y="121" on="1"/>
        <pt x="146" y="0" on="1"/>
        <pt x="1" y="0" on="1"/>
        <pt x="1" y="6" on="1"/>
        <pt x="170" y="577" on="1"/>
        <pt x="403" y="577" on="1"/>
        <pt x="572" y="6" on="1"/>
        <pt x="572" y="-3" on="1"/>
        <pt x="515" y="-22" on="0"/>
        <pt x="476" y="-58" on="0"/>
        <pt x="476" y="-68" on="1"/>
        <pt x="476" y="-76" on="0"/>
        <pt x="494" y="-82" on="0"/>
        <pt x="508" y="-82" on="1"/>
        <pt x="524" y="-82" on="0"/>
        <pt x="559" y="-76" on="0"/>
        <pt x="572" y="-72" on="1"/>
        <pt x="572" y="-157" on="1"/>
        <pt x="551" y="-161" on="0"/>
        <pt x="514" y="-166" on="0"/>
      </contour>
      <contour>
        <pt x="362" y="224" on="1"/>
        <pt x="314" y="390" on="1"/>
        <pt x="293" y="466" on="1"/>
        <pt x="280" y="466" on="1"/>
        <pt x="259" y="390" on="1"/>
        <pt x="208" y="224" on="1"/>
      </contour>
    </TTGlyph>
    <TTGlyph name="Aring" xMin="-1" yMin="0" xMax="621" yMax="981">
      <contour>
        <pt x="-1" y="7" on="1"/>
        <pt x="186" y="740" on="1"/>
        <pt x="434" y="740" on="1"/>
        <pt x="621" y="7" on="1"/>
        <pt x="621" y="0" on="1"/>
        <pt x="467" y="0" on="1"/>
        <pt x="421" y="177" on="1"/>
        <pt x="198" y="177" on="1"/>
        <pt x="153" y="0" on="1"/>
        <pt x="-1" y="0" on="1"/>
      </contour>
      <contour>
        <pt x="390" y="308" on="1"/>
        <pt x="341" y="508" on="1"/>
        <pt x="315" y="617" on="1"/>
        <pt x="304" y="617" on="1"/>
        <pt x="279" y="508" on="1"/>
        <pt x="229" y="308" on="1"/>
      </contour>
      <contour>
        <pt x="308" y="756" on="1"/>
        <pt x="257" y="756" on="0"/>
        <pt x="192" y="820" on="0"/>
        <pt x="192" y="868" on="1"/>
        <pt x="192" y="916" on="0"/>
        <pt x="257" y="981" on="0"/>
        <pt x="308" y="981" on="1"/>
        <pt x="360" y="981" on="0"/>
        <pt x="425" y="916" on="0"/>
        <pt x="425" y="868" on="1"/>
        <pt x="425" y="820" on="0"/>
        <pt x="360" y="756" on="0"/>
      </contour>
      <contour>
        <pt x="308" y="812" on="1"/>
        <pt x="338" y="812" on="0"/>
        <pt x="363" y="839" on="0"/>
        <pt x="363" y="868" on="1"/>
        <pt x="363" y="897" on="0"/>
        <pt x="338" y="925" on="0"/>
        <pt x="308" y="925" on="1"/>
        <pt x="277" y="925" on="0"/>
        <pt x="253" y="897" on="0"/>
        <pt x="253" y="868" on="1"/>
        <pt x="253" y="839" on="0"/>
        <pt x="277" y="812" on="0"/>
      </contour>
    </TTGlyph>
    <TTGlyph name="Aring.sc" xMin="1" yMin="0" xMax="572" yMax="791">
      <contour>
        <pt x="1" y="6" on="1"/>
        <pt x="170" y="577" on="1"/>
        <pt x="403" y="577" on="1"/>
        <pt x="572" y="6" on="1"/>
        <pt x="572" y="0" on="1"/>
        <pt x="426" y="0" on="1"/>
        <pt x="387" y="121" on="1"/>
        <pt x="185" y="121" on="1"/>
        <pt x="147" y="0" on="1"/>
        <pt x="1" y="0" on="1"/>
      </contour>
      <contour>
        <pt x="363" y="224" on="1"/>
        <pt x="314" y="386" on="1"/>
        <pt x="293" y="466" on="1"/>
        <pt x="280" y="466" on="1"/>
        <pt x="259" y="386" on="1"/>
        <pt x="208" y="224" on="1"/>
      </contour>
      <contour>
        <pt x="285" y="610" on="1"/>
        <pt x="262" y="610" on="0"/>
        <pt x="222" y="624" on="0"/>
        <pt x="194" y="648" on="0"/>
        <pt x="178" y="681" on="0"/>
        <pt x="178" y="700" on="1"/>
        <pt x="178" y="740" on="0"/>
        <pt x="238" y="791" on="0"/>
        <pt x="285" y="791" on="1"/>
        <pt x="333" y="791" on="0"/>
        <pt x="391" y="740" on="0"/>
        <pt x="391" y="700" on="1"/>
        <pt x="391" y="662" on="0"/>
        <pt x="333" y="610" on="0"/>
      </contour>
      <contour>
        <pt x="285" y="659" on="1"/>
        <pt x="312" y="659" on="0"/>
        <pt x="335" y="677" on="0"/>
        <pt x="335" y="700" on="1"/>
        <pt x="335" y="723" on="0"/>
        <pt x="312" y="743" on="0"/>
        <pt x="285" y="743" on="1"/>
        <pt x="257" y="743" on="0"/>
        <pt x="236" y="723" on="0"/>
        <pt x="236" y="700" on="1"/>
        <pt x="236" y="677" on="0"/>
        <pt x="257" y="659" on="0"/>
      </contour>
    </TTGlyph>
    <TTGlyph name="Aringacute" xMin="-2" yMin="0" xMax="621" yMax="1007">
      <contour>
        <pt x="-2" y="7" on="1"/>
        <pt x="176" y="669" on="1"/>
        <pt x="151" y="705" on="0"/>
        <pt x="151" y="752" on="1"/>
        <pt x="151" y="807" on="0"/>
        <pt x="213" y="883" on="0"/>
        <pt x="268" y="893" on="1"/>
        <pt x="314" y="1007" on="1"/>
        <pt x="478" y="1007" on="1"/>
        <pt x="395" y="875" on="1"/>
        <pt x="428" y="857" on="0"/>
        <pt x="465" y="794" on="0"/>
        <pt x="465" y="752" on="1"/>
        <pt x="465" y="705" on="0"/>
        <pt x="441" y="672" on="1"/>
        <pt x="621" y="7" on="1"/>
        <pt x="621" y="0" on="1"/>
        <pt x="466" y="0" on="1"/>
        <pt x="421" y="174" on="1"/>
        <pt x="196" y="174" on="1"/>
        <pt x="152" y="0" on="1"/>
        <pt x="-2" y="0" on="1"/>
      </contour>
      <contour>
        <pt x="307" y="686" on="1"/>
        <pt x="338" y="686" on="0"/>
        <pt x="375" y="723" on="0"/>
        <pt x="375" y="752" on="1"/>
        <pt x="375" y="781" on="0"/>
        <pt x="338" y="818" on="0"/>
        <pt x="307" y="818" on="1"/>
        <pt x="277" y="818" on="0"/>
        <pt x="241" y="781" on="0"/>
        <pt x="241" y="752" on="1"/>
        <pt x="241" y="723" on="0"/>
        <pt x="278" y="686" on="0"/>
      </contour>
      <contour>
        <pt x="389" y="311" on="1"/>
        <pt x="341" y="508" on="1"/>
        <pt x="320" y="602" on="1"/>
        <pt x="298" y="602" on="1"/>
        <pt x="278" y="508" on="1"/>
        <pt x="229" y="311" on="1"/>
      </contour>
    </TTGlyph>
    <TTGlyph name="Aringacute.sc" xMin="1" yMin="0" xMax="571" yMax="804">
      <contour>
        <pt x="1" y="6" on="1"/>
        <pt x="162" y="529" on="1"/>
        <pt x="139" y="557" on="0"/>
        <pt x="139" y="593" on="1"/>
        <pt x="139" y="640" on="0"/>
        <pt x="196" y="702" on="0"/>
        <pt x="247" y="711" on="1"/>
        <pt x="287" y="804" on="1"/>
        <pt x="441" y="804" on="1"/>
        <pt x="366" y="694" on="1"/>
        <pt x="396" y="679" on="0"/>
        <pt x="430" y="627" on="0"/>
        <pt x="430" y="593" on="1"/>
        <pt x="430" y="556" on="0"/>
        <pt x="409" y="531" on="1"/>
        <pt x="571" y="6" on="1"/>
        <pt x="571" y="0" on="1"/>
        <pt x="425" y="0" on="1"/>
        <pt x="386" y="121" on="1"/>
        <pt x="184" y="121" on="1"/>
        <pt x="146" y="0" on="1"/>
        <pt x="1" y="0" on="1"/>
      </contour>
      <contour>
        <pt x="284" y="542" on="1"/>
        <pt x="312" y="542" on="0"/>
        <pt x="345" y="570" on="0"/>
        <pt x="345" y="593" on="1"/>
        <pt x="345" y="617" on="0"/>
        <pt x="312" y="644" on="0"/>
        <pt x="284" y="644" on="1"/>
        <pt x="256" y="644" on="0"/>
        <pt x="224" y="617" on="0"/>
        <pt x="224" y="593" on="1"/>
        <pt x="224" y="570" on="0"/>
        <pt x="257" y="542" on="0"/>
      </contour>
      <contour>
        <pt x="363" y="224" on="1"/>
        <pt x="313" y="386" on="1"/>
        <pt x="295" y="466" on="1"/>
        <pt x="276" y="465" on="1"/>
        <pt x="258" y="386" on="1"/>
        <pt x="208" y="224" on="1"/>
      </contour>
    </TTGlyph>
    <TTGlyph name="Atilde" xMin="-1" yMin="0" xMax="621" yMax="952">
      <contour>
        <pt x="-1" y="7" on="1"/>
        <pt x="186" y="740" on="1"/>
        <pt x="434" y="740" on="1"/>
        <pt x="621" y="7" on="1"/>
        <pt x="621" y="0" on="1"/>
        <pt x="467" y="0" on="1"/>
        <pt x="421" y="177" on="1"/>
        <pt x="198" y="177" on="1"/>
        <pt x="153" y="0" on="1"/>
        <pt x="-1" y="0" on="1"/>
      </contour>
      <contour>
        <pt x="390" y="308" on="1"/>
        <pt x="341" y="508" on="1"/>
        <pt x="315" y="617" on="1"/>
        <pt x="304" y="617" on="1"/>
        <pt x="279" y="508" on="1"/>
        <pt x="229" y="308" on="1"/>
      </contour>
      <contour>
        <pt x="131" y="836" on="1"/>
        <pt x="160" y="894" on="0"/>
        <pt x="232" y="952" on="0"/>
        <pt x="268" y="952" on="1"/>
        <pt x="287" y="952" on="0"/>
        <pt x="324" y="940" on="0"/>
        <pt x="361" y="925" on="0"/>
        <pt x="398" y="913" on="0"/>
        <pt x="417" y="913" on="1"/>
        <pt x="436" y="913" on="0"/>
        <pt x="470" y="931" on="0"/>
        <pt x="490" y="952" on="1"/>
        <pt x="514" y="931" on="1"/>
        <pt x="487" y="871" on="0"/>
        <pt x="415" y="814" on="0"/>
        <pt x="379" y="814" on="1"/>
        <pt x="359" y="814" on="0"/>
        <pt x="322" y="826" on="0"/>
        <pt x="285" y="840" on="0"/>
        <pt x="249" y="852" on="0"/>
        <pt x="230" y="852" on="1"/>
        <pt x="210" y="852" on="0"/>
        <pt x="174" y="835" on="0"/>
        <pt x="154" y="815" on="1"/>
      </contour>
    </TTGlyph>
    <TTGlyph name="Atilde.sc" xMin="1" yMin="0" xMax="572" yMax="756">
      <contour>
        <pt x="1" y="6" on="1"/>
        <pt x="170" y="577" on="1"/>
        <pt x="403" y="577" on="1"/>
        <pt x="572" y="6" on="1"/>
        <pt x="572" y="0" on="1"/>
        <pt x="426" y="0" on="1"/>
        <pt x="387" y="121" on="1"/>
        <pt x="185" y="121" on="1"/>
        <pt x="147" y="0" on="1"/>
        <pt x="1" y="0" on="1"/>
      </contour>
      <contour>
        <pt x="363" y="224" on="1"/>
        <pt x="314" y="386" on="1"/>
        <pt x="293" y="466" on="1"/>
        <pt x="280" y="466" on="1"/>
        <pt x="259" y="386" on="1"/>
        <pt x="208" y="224" on="1"/>
      </contour>
      <contour>
        <pt x="122" y="651" on="1"/>
        <pt x="148" y="704" on="0"/>
        <pt x="216" y="755" on="0"/>
        <pt x="248" y="755" on="1"/>
        <pt x="266" y="755" on="0"/>
        <pt x="300" y="746" on="0"/>
        <pt x="334" y="735" on="0"/>
        <pt x="368" y="726" on="0"/>
        <pt x="386" y="726" on="1"/>
        <pt x="403" y="726" on="0"/>
        <pt x="435" y="738" on="0"/>
        <pt x="454" y="756" on="1"/>
        <pt x="475" y="738" on="1"/>
        <pt x="449" y="684" on="0"/>
        <pt x="382" y="634" on="0"/>
        <pt x="350" y="634" on="1"/>
        <pt x="332" y="634" on="0"/>
        <pt x="297" y="643" on="0"/>
        <pt x="263" y="654" on="0"/>
        <pt x="229" y="663" on="0"/>
        <pt x="211" y="663" on="1"/>
        <pt x="194" y="663" on="0"/>
        <pt x="161" y="651" on="0"/>
        <pt x="141" y="634" on="1"/>
      </contour>
    </TTGlyph>
    <TTGlyph name="B" xMin="56" yMin="-10" xMax="566" yMax="750">
      <contour>
        <pt x="250" y="-10" on="1"/>
        <pt x="203" y="-10" on="0"/>
        <pt x="100" y="-3" on="0"/>
        <pt x="56" y="5" on="1"/>
        <pt x="56" y="735" on="1"/>
        <pt x="121" y="743" on="0"/>
        <pt x="217" y="750" on="0"/>
        <pt x="259" y="750" on="1"/>
        <pt x="409" y="750" on="0"/>
        <pt x="547" y="649" on="0"/>
        <pt x="547" y="540" on="1"/>
        <pt x="547" y="411" on="0"/>
        <pt x="439" y="382" on="1"/>
        <pt x="439" y="378" on="1"/>
        <pt x="501" y="366" on="0"/>
        <pt x="566" y="276" on="0"/>
        <pt x="566" y="202" on="1"/>
        <pt x="566" y="-10" on="0"/>
      </contour>
      <contour>
        <pt x="277" y="115" on="1"/>
        <pt x="337" y="115" on="0"/>
        <pt x="398" y="164" on="0"/>
        <pt x="398" y="211" on="1"/>
        <pt x="398" y="266" on="0"/>
        <pt x="341" y="311" on="0"/>
        <pt x="271" y="311" on="1"/>
        <pt x="206" y="311" on="1"/>
        <pt x="206" y="121" on="1"/>
        <pt x="217" y="118" on="0"/>
        <pt x="254" y="115" on="0"/>
      </contour>
      <contour>
        <pt x="270" y="431" on="1"/>
        <pt x="331" y="431" on="0"/>
        <pt x="378" y="474" on="0"/>
        <pt x="378" y="530" on="1"/>
        <pt x="378" y="624" on="0"/>
        <pt x="277" y="624" on="1"/>
        <pt x="260" y="624" on="0"/>
        <pt x="227" y="621" on="0"/>
        <pt x="206" y="618" on="1"/>
        <pt x="206" y="431" on="1"/>
      </contour>
    </TTGlyph>
    <TTGlyph name="B.sc" xMin="54" yMin="-8" xMax="521" yMax="585">
      <contour>
        <pt x="235" y="-8" on="1"/>
        <pt x="190" y="-8" on="0"/>
        <pt x="96" y="-2" on="0"/>
        <pt x="54" y="4" on="1"/>
        <pt x="54" y="573" on="1"/>
        <pt x="112" y="579" on="0"/>
        <pt x="202" y="585" on="0"/>
        <pt x="242" y="585" on="1"/>
        <pt x="379" y="585" on="0"/>
        <pt x="504" y="506" on="0"/>
        <pt x="504" y="419" on="1"/>
        <pt x="504" y="322" on="0"/>
        <pt x="406" y="298" on="1"/>
        <pt x="406" y="295" on="1"/>
        <pt x="521" y="274" on="0"/>
        <pt x="521" y="160" on="1"/>
        <pt x="521" y="-8" on="0"/>
      </contour>
      <contour>
        <pt x="261" y="106" on="1"/>
        <pt x="315" y="106" on="0"/>
        <pt x="372" y="138" on="0"/>
        <pt x="372" y="170" on="1"/>
        <pt x="372" y="208" on="0"/>
        <pt x="320" y="238" on="0"/>
        <pt x="257" y="238" on="1"/>
        <pt x="196" y="238" on="1"/>
        <pt x="196" y="109" on="1"/>
        <pt x="214" y="106" on="0"/>
      </contour>
      <contour>
        <pt x="255" y="341" on="1"/>
        <pt x="309" y="341" on="0"/>
        <pt x="351" y="370" on="0"/>
        <pt x="351" y="409" on="1"/>
        <pt x="351" y="441" on="0"/>
        <pt x="308" y="471" on="0"/>
        <pt x="260" y="471" on="1"/>
        <pt x="246" y="471" on="0"/>
        <pt x="213" y="469" on="0"/>
        <pt x="196" y="467" on="1"/>
        <pt x="196" y="341" on="1"/>
      </contour>
    </TTGlyph>
    <TTGlyph name="C" xMin="30" yMin="-9" xMax="477" yMax="749">
      <contour>
        <pt x="335" y="-9" on="1"/>
        <pt x="183" y="-9" on="0"/>
        <pt x="30" y="175" on="0"/>
        <pt x="30" y="370" on="1"/>
        <pt x="30" y="566" on="0"/>
        <pt x="184" y="749" on="0"/>
        <pt x="333" y="749" on="1"/>
        <pt x="403" y="749" on="0"/>
        <pt x="477" y="733" on="1"/>
        <pt x="477" y="603" on="1"/>
        <pt x="447" y="608" on="0"/>
        <pt x="384" y="614" on="0"/>
        <pt x="358" y="614" on="1"/>
        <pt x="314" y="614" on="0"/>
        <pt x="253" y="593" on="0"/>
        <pt x="216" y="538" on="0"/>
        <pt x="199" y="443" on="0"/>
        <pt x="199" y="369" on="1"/>
        <pt x="199" y="296" on="0"/>
        <pt x="216" y="202" on="0"/>
        <pt x="254" y="147" on="0"/>
        <pt x="314" y="126" on="0"/>
        <pt x="357" y="126" on="1"/>
        <pt x="388" y="126" on="0"/>
        <pt x="448" y="132" on="0"/>
        <pt x="477" y="139" on="1"/>
        <pt x="477" y="12" on="1"/>
        <pt x="456" y="3" on="0"/>
        <pt x="377" y="-9" on="0"/>
      </contour>
    </TTGlyph>
    <TTGlyph name="C.sc" xMin="29" yMin="-7" xMax="437" yMax="585">
      <contour>
        <pt x="306" y="-7" on="1"/>
        <pt x="168" y="-7" on="0"/>
        <pt x="29" y="137" on="0"/>
        <pt x="29" y="289" on="1"/>
        <pt x="29" y="440" on="0"/>
        <pt x="167" y="585" on="0"/>
        <pt x="304" y="585" on="1"/>
        <pt x="335" y="585" on="0"/>
        <pt x="400" y="577" on="0"/>
        <pt x="437" y="571" on="1"/>
        <pt x="437" y="450" on="1"/>
        <pt x="375" y="459" on="0"/>
        <pt x="327" y="459" on="1"/>
        <pt x="289" y="459" on="0"/>
        <pt x="236" y="445" on="0"/>
        <pt x="203" y="408" on="0"/>
        <pt x="188" y="341" on="0"/>
        <pt x="188" y="288" on="1"/>
        <pt x="188" y="235" on="0"/>
        <pt x="203" y="169" on="0"/>
        <pt x="236" y="132" on="0"/>
        <pt x="288" y="119" on="0"/>
        <pt x="326" y="119" on="1"/>
        <pt x="355" y="119" on="0"/>
        <pt x="411" y="124" on="0"/>
        <pt x="437" y="130" on="1"/>
        <pt x="437" y="12" on="1"/>
        <pt x="417" y="4" on="0"/>
        <pt x="344" y="-7" on="0"/>
      </contour>
    </TTGlyph>
    <TTGlyph name="Cacute" xMin="30" yMin="-9" xMax="477" yMax="973">
      <contour>
        <pt x="335" y="-9" on="1"/>
        <pt x="183" y="-9" on="0"/>
        <pt x="30" y="175" on="0"/>
        <pt x="30" y="370" on="1"/>
        <pt x="30" y="566" on="0"/>
        <pt x="184" y="749" on="0"/>
        <pt x="333" y="749" on="1"/>
        <pt x="403" y="749" on="0"/>
        <pt x="477" y="733" on="1"/>
        <pt x="477" y="603" on="1"/>
        <pt x="447" y="608" on="0"/>
        <pt x="384" y="614" on="0"/>
        <pt x="358" y="614" on="1"/>
        <pt x="314" y="614" on="0"/>
        <pt x="253" y="593" on="0"/>
        <pt x="216" y="538" on="0"/>
        <pt x="199" y="443" on="0"/>
        <pt x="199" y="369" on="1"/>
        <pt x="199" y="296" on="0"/>
        <pt x="216" y="202" on="0"/>
        <pt x="254" y="147" on="0"/>
        <pt x="314" y="126" on="0"/>
        <pt x="357" y="126" on="1"/>
        <pt x="388" y="126" on="0"/>
        <pt x="448" y="132" on="0"/>
        <pt x="477" y="139" on="1"/>
        <pt x="477" y="12" on="1"/>
        <pt x="456" y="3" on="0"/>
        <pt x="377" y="-9" on="0"/>
      </contour>
      <contour>
        <pt x="223" y="798" on="1"/>
        <pt x="289" y="973" on="1"/>
        <pt x="453" y="973" on="1"/>
        <pt x="338" y="789" on="1"/>
      </contour>
    </TTGlyph>
    <TTGlyph name="Cacute.sc" xMin="29" yMin="-7" xMax="437" yMax="772">
      <contour>
        <pt x="306" y="-7" on="1"/>
        <pt x="168" y="-7" on="0"/>
        <pt x="29" y="137" on="0"/>
        <pt x="29" y="289" on="1"/>
        <pt x="29" y="440" on="0"/>
        <pt x="167" y="585" on="0"/>
        <pt x="304" y="585" on="1"/>
        <pt x="335" y="585" on="0"/>
        <pt x="400" y="577" on="0"/>
        <pt x="437" y="571" on="1"/>
        <pt x="437" y="450" on="1"/>
        <pt x="375" y="459" on="0"/>
        <pt x="327" y="459" on="1"/>
        <pt x="289" y="459" on="0"/>
        <pt x="236" y="445" on="0"/>
        <pt x="203" y="408" on="0"/>
        <pt x="188" y="341" on="0"/>
        <pt x="188" y="288" on="1"/>
        <pt x="188" y="235" on="0"/>
        <pt x="203" y="169" on="0"/>
        <pt x="236" y="132" on="0"/>
        <pt x="288" y="119" on="0"/>
        <pt x="326" y="119" on="1"/>
        <pt x="355" y="119" on="0"/>
        <pt x="411" y="124" on="0"/>
        <pt x="437" y="130" on="1"/>
        <pt x="437" y="12" on="1"/>
        <pt x="417" y="4" on="0"/>
        <pt x="344" y="-7" on="0"/>
      </contour>
      <contour>
        <pt x="202" y="625" on="1"/>
        <pt x="261" y="772" on="1"/>
        <pt x="415" y="772" on="1"/>
        <pt x="309" y="617" on="1"/>
      </contour>
    </TTGlyph>
    <TTGlyph name="Ccaron" xMin="30" yMin="-9" xMax="477" yMax="968">
      <contour>
        <pt x="335" y="-9" on="1"/>
        <pt x="183" y="-9" on="0"/>
        <pt x="30" y="175" on="0"/>
        <pt x="30" y="370" on="1"/>
        <pt x="30" y="566" on="0"/>
        <pt x="184" y="749" on="0"/>
        <pt x="333" y="749" on="1"/>
        <pt x="403" y="749" on="0"/>
        <pt x="477" y="733" on="1"/>
        <pt x="477" y="603" on="1"/>
        <pt x="447" y="608" on="0"/>
        <pt x="384" y="614" on="0"/>
        <pt x="358" y="614" on="1"/>
        <pt x="314" y="614" on="0"/>
        <pt x="253" y="593" on="0"/>
        <pt x="216" y="538" on="0"/>
        <pt x="199" y="443" on="0"/>
        <pt x="199" y="369" on="1"/>
        <pt x="199" y="296" on="0"/>
        <pt x="216" y="202" on="0"/>
        <pt x="254" y="147" on="0"/>
        <pt x="314" y="126" on="0"/>
        <pt x="357" y="126" on="1"/>
        <pt x="388" y="126" on="0"/>
        <pt x="448" y="132" on="0"/>
        <pt x="477" y="139" on="1"/>
        <pt x="477" y="12" on="1"/>
        <pt x="456" y="3" on="0"/>
        <pt x="377" y="-9" on="0"/>
      </contour>
      <contour>
        <pt x="134" y="968" on="1"/>
        <pt x="295" y="897" on="1"/>
        <pt x="456" y="968" on="1"/>
        <pt x="456" y="860" on="1"/>
        <pt x="296" y="788" on="1"/>
        <pt x="134" y="860" on="1"/>
      </contour>
    </TTGlyph>
    <TTGlyph name="Ccaron.sc" xMin="29" yMin="-7" xMax="437" yMax="768">
      <contour>
        <pt x="306" y="-7" on="1"/>
        <pt x="168" y="-7" on="0"/>
        <pt x="29" y="137" on="0"/>
        <pt x="29" y="289" on="1"/>
        <pt x="29" y="440" on="0"/>
        <pt x="167" y="585" on="0"/>
        <pt x="304" y="585" on="1"/>
        <pt x="335" y="585" on="0"/>
        <pt x="400" y="577" on="0"/>
        <pt x="437" y="571" on="1"/>
        <pt x="437" y="450" on="1"/>
        <pt x="375" y="459" on="0"/>
        <pt x="327" y="459" on="1"/>
        <pt x="289" y="459" on="0"/>
        <pt x="236" y="445" on="0"/>
        <pt x="203" y="408" on="0"/>
        <pt x="188" y="341" on="0"/>
        <pt x="188" y="288" on="1"/>
        <pt x="188" y="235" on="0"/>
        <pt x="203" y="169" on="0"/>
        <pt x="236" y="132" on="0"/>
        <pt x="288" y="119" on="0"/>
        <pt x="326" y="119" on="1"/>
        <pt x="355" y="119" on="0"/>
        <pt x="411" y="124" on="0"/>
        <pt x="437" y="130" on="1"/>
        <pt x="437" y="12" on="1"/>
        <pt x="417" y="4" on="0"/>
        <pt x="344" y="-7" on="0"/>
      </contour>
      <contour>
        <pt x="120" y="768" on="1"/>
        <pt x="270" y="712" on="1"/>
        <pt x="419" y="768" on="1"/>
        <pt x="419" y="669" on="1"/>
        <pt x="270" y="613" on="1"/>
        <pt x="120" y="669" on="1"/>
      </contour>
    </TTGlyph>
    <TTGlyph name="Ccedilla" xMin="30" yMin="-220" xMax="477" yMax="749">
      <contour>
        <pt x="268" y="-220" on="1"/>
        <pt x="251" y="-220" on="0"/>
        <pt x="209" y="-215" on="0"/>
        <pt x="184" y="-208" on="1"/>
        <pt x="184" y="-114" on="1"/>
        <pt x="203" y="-119" on="0"/>
        <pt x="237" y="-121" on="0"/>
        <pt x="243" y="-121" on="1"/>
        <pt x="263" y="-121" on="0"/>
        <pt x="281" y="-101" on="0"/>
        <pt x="281" y="-87" on="1"/>
        <pt x="281" y="-70" on="0"/>
        <pt x="264" y="-26" on="0"/>
        <pt x="249" y="-1" on="1"/>
        <pt x="139" y="22" on="0"/>
        <pt x="30" y="204" on="0"/>
        <pt x="30" y="370" on="1"/>
        <pt x="30" y="566" on="0"/>
        <pt x="184" y="749" on="0"/>
        <pt x="333" y="749" on="1"/>
        <pt x="403" y="749" on="0"/>
        <pt x="477" y="733" on="1"/>
        <pt x="477" y="603" on="1"/>
        <pt x="447" y="608" on="0"/>
        <pt x="384" y="614" on="0"/>
        <pt x="358" y="614" on="1"/>
        <pt x="314" y="614" on="0"/>
        <pt x="253" y="593" on="0"/>
        <pt x="216" y="538" on="0"/>
        <pt x="199" y="443" on="0"/>
        <pt x="199" y="369" on="1"/>
        <pt x="199" y="296" on="0"/>
        <pt x="216" y="202" on="0"/>
        <pt x="254" y="147" on="0"/>
        <pt x="314" y="126" on="0"/>
        <pt x="357" y="126" on="1"/>
        <pt x="388" y="126" on="0"/>
        <pt x="448" y="132" on="0"/>
        <pt x="477" y="139" on="1"/>
        <pt x="477" y="12" on="1"/>
        <pt x="458" y="4" on="0"/>
        <pt x="392" y="-6" on="0"/>
        <pt x="354" y="-8" on="1"/>
        <pt x="371" y="-37" on="0"/>
        <pt x="386" y="-85" on="0"/>
        <pt x="386" y="-114" on="1"/>
        <pt x="386" y="-162" on="0"/>
        <pt x="326" y="-220" on="0"/>
      </contour>
    </TTGlyph>
    <TTGlyph name="Ccedilla.sc" xMin="29" yMin="-172" xMax="437" yMax="585">
      <contour>
        <pt x="246" y="-172" on="1"/>
        <pt x="232" y="-172" on="0"/>
        <pt x="192" y="-167" on="0"/>
        <pt x="169" y="-162" on="1"/>
        <pt x="169" y="-77" on="1"/>
        <pt x="187" y="-80" on="0"/>
        <pt x="219" y="-82" on="0"/>
        <pt x="224" y="-82" on="1"/>
        <pt x="241" y="-82" on="0"/>
        <pt x="256" y="-70" on="0"/>
        <pt x="256" y="-63" on="1"/>
        <pt x="256" y="-51" on="0"/>
        <pt x="242" y="-19" on="0"/>
        <pt x="230" y="0" on="1"/>
        <pt x="130" y="17" on="0"/>
        <pt x="29" y="159" on="0"/>
        <pt x="29" y="289" on="1"/>
        <pt x="29" y="440" on="0"/>
        <pt x="167" y="585" on="0"/>
        <pt x="304" y="585" on="1"/>
        <pt x="335" y="585" on="0"/>
        <pt x="400" y="577" on="0"/>
        <pt x="437" y="571" on="1"/>
        <pt x="437" y="450" on="1"/>
        <pt x="375" y="459" on="0"/>
        <pt x="327" y="459" on="1"/>
        <pt x="289" y="459" on="0"/>
        <pt x="236" y="445" on="0"/>
        <pt x="203" y="408" on="0"/>
        <pt x="188" y="341" on="0"/>
        <pt x="188" y="288" on="1"/>
        <pt x="188" y="235" on="0"/>
        <pt x="203" y="169" on="0"/>
        <pt x="236" y="132" on="0"/>
        <pt x="288" y="119" on="0"/>
        <pt x="326" y="119" on="1"/>
        <pt x="355" y="119" on="0"/>
        <pt x="411" y="124" on="0"/>
        <pt x="437" y="130" on="1"/>
        <pt x="437" y="12" on="1"/>
        <pt x="418" y="5" on="0"/>
        <pt x="359" y="-5" on="0"/>
        <pt x="327" y="-6" on="1"/>
        <pt x="341" y="-28" on="0"/>
        <pt x="353" y="-66" on="0"/>
        <pt x="353" y="-88" on="1"/>
        <pt x="353" y="-126" on="0"/>
        <pt x="300" y="-172" on="0"/>
      </contour>
    </TTGlyph>
    <TTGlyph name="Ccircumflex" xMin="30" yMin="-9" xMax="477" yMax="972">
      <contour>
        <pt x="335" y="-9" on="1"/>
        <pt x="183" y="-9" on="0"/>
        <pt x="30" y="175" on="0"/>
        <pt x="30" y="370" on="1"/>
        <pt x="30" y="566" on="0"/>
        <pt x="184" y="749" on="0"/>
        <pt x="333" y="749" on="1"/>
        <pt x="403" y="749" on="0"/>
        <pt x="477" y="733" on="1"/>
        <pt x="477" y="603" on="1"/>
        <pt x="447" y="608" on="0"/>
        <pt x="384" y="614" on="0"/>
        <pt x="358" y="614" on="1"/>
        <pt x="314" y="614" on="0"/>
        <pt x="253" y="593" on="0"/>
        <pt x="216" y="538" on="0"/>
        <pt x="199" y="443" on="0"/>
        <pt x="199" y="369" on="1"/>
        <pt x="199" y="296" on="0"/>
        <pt x="216" y="202" on="0"/>
        <pt x="254" y="147" on="0"/>
        <pt x="314" y="126" on="0"/>
        <pt x="357" y="126" on="1"/>
        <pt x="388" y="126" on="0"/>
        <pt x="448" y="132" on="0"/>
        <pt x="477" y="139" on="1"/>
        <pt x="477" y="12" on="1"/>
        <pt x="456" y="3" on="0"/>
        <pt x="377" y="-9" on="0"/>
      </contour>
      <contour>
        <pt x="126" y="900" on="1"/>
        <pt x="288" y="972" on="1"/>
        <pt x="449" y="900" on="1"/>
        <pt x="449" y="792" on="1"/>
        <pt x="287" y="864" on="1"/>
        <pt x="126" y="792" on="1"/>
      </contour>
    </TTGlyph>
    <TTGlyph name="Ccircumflex.sc" xMin="29" yMin="-7" xMax="437" yMax="768">
      <contour>
        <pt x="306" y="-7" on="1"/>
        <pt x="168" y="-7" on="0"/>
        <pt x="29" y="137" on="0"/>
        <pt x="29" y="289" on="1"/>
        <pt x="29" y="440" on="0"/>
        <pt x="167" y="585" on="0"/>
        <pt x="304" y="585" on="1"/>
        <pt x="335" y="585" on="0"/>
        <pt x="400" y="577" on="0"/>
        <pt x="437" y="571" on="1"/>
        <pt x="437" y="450" on="1"/>
        <pt x="375" y="459" on="0"/>
        <pt x="327" y="459" on="1"/>
        <pt x="289" y="459" on="0"/>
        <pt x="236" y="445" on="0"/>
        <pt x="203" y="408" on="0"/>
        <pt x="188" y="341" on="0"/>
        <pt x="188" y="288" on="1"/>
        <pt x="188" y="235" on="0"/>
        <pt x="203" y="169" on="0"/>
        <pt x="236" y="132" on="0"/>
        <pt x="288" y="119" on="0"/>
        <pt x="326" y="119" on="1"/>
        <pt x="355" y="119" on="0"/>
        <pt x="411" y="124" on="0"/>
        <pt x="437" y="130" on="1"/>
        <pt x="437" y="12" on="1"/>
        <pt x="417" y="4" on="0"/>
        <pt x="344" y="-7" on="0"/>
      </contour>
      <contour>
        <pt x="112" y="712" on="1"/>
        <pt x="263" y="768" on="1"/>
        <pt x="411" y="712" on="1"/>
        <pt x="411" y="614" on="1"/>
        <pt x="262" y="670" on="1"/>
        <pt x="112" y="614" on="1"/>
      </contour>
    </TTGlyph>
    <TTGlyph name="Cdotaccent" xMin="30" yMin="-9" xMax="477" yMax="970">
      <contour>
        <pt x="286" y="798" on="1"/>
        <pt x="239" y="798" on="0"/>
        <pt x="198" y="839" on="0"/>
        <pt x="198" y="885" on="1"/>
        <pt x="198" y="930" on="0"/>
        <pt x="239" y="970" on="0"/>
        <pt x="286" y="970" on="1"/>
        <pt x="332" y="970" on="0"/>
        <pt x="375" y="930" on="0"/>
        <pt x="375" y="885" on="1"/>
        <pt x="375" y="838" on="0"/>
        <pt x="332" y="798" on="0"/>
      </contour>
      <contour>
        <pt x="335" y="-9" on="1"/>
        <pt x="183" y="-9" on="0"/>
        <pt x="30" y="175" on="0"/>
        <pt x="30" y="370" on="1"/>
        <pt x="30" y="566" on="0"/>
        <pt x="184" y="749" on="0"/>
        <pt x="333" y="749" on="1"/>
        <pt x="403" y="749" on="0"/>
        <pt x="477" y="733" on="1"/>
        <pt x="477" y="603" on="1"/>
        <pt x="447" y="608" on="0"/>
        <pt x="384" y="614" on="0"/>
        <pt x="358" y="614" on="1"/>
        <pt x="314" y="614" on="0"/>
        <pt x="253" y="593" on="0"/>
        <pt x="216" y="538" on="0"/>
        <pt x="199" y="443" on="0"/>
        <pt x="199" y="369" on="1"/>
        <pt x="199" y="296" on="0"/>
        <pt x="216" y="202" on="0"/>
        <pt x="254" y="147" on="0"/>
        <pt x="314" y="126" on="0"/>
        <pt x="357" y="126" on="1"/>
        <pt x="388" y="126" on="0"/>
        <pt x="448" y="132" on="0"/>
        <pt x="477" y="139" on="1"/>
        <pt x="477" y="12" on="1"/>
        <pt x="456" y="3" on="0"/>
        <pt x="377" y="-9" on="0"/>
      </contour>
    </TTGlyph>
    <TTGlyph name="Cdotaccent.sc" xMin="29" yMin="-7" xMax="437" yMax="780">
      <contour>
        <pt x="306" y="-7" on="1"/>
        <pt x="168" y="-7" on="0"/>
        <pt x="29" y="137" on="0"/>
        <pt x="29" y="289" on="1"/>
        <pt x="29" y="440" on="0"/>
        <pt x="167" y="585" on="0"/>
        <pt x="304" y="585" on="1"/>
        <pt x="335" y="585" on="0"/>
        <pt x="400" y="577" on="0"/>
        <pt x="437" y="571" on="1"/>
        <pt x="437" y="450" on="1"/>
        <pt x="375" y="459" on="0"/>
        <pt x="327" y="459" on="1"/>
        <pt x="289" y="459" on="0"/>
        <pt x="236" y="445" on="0"/>
        <pt x="203" y="408" on="0"/>
        <pt x="188" y="341" on="0"/>
        <pt x="188" y="288" on="1"/>
        <pt x="188" y="235" on="0"/>
        <pt x="203" y="169" on="0"/>
        <pt x="236" y="132" on="0"/>
        <pt x="288" y="119" on="0"/>
        <pt x="326" y="119" on="1"/>
        <pt x="355" y="119" on="0"/>
        <pt x="411" y="124" on="0"/>
        <pt x="437" y="130" on="1"/>
        <pt x="437" y="12" on="1"/>
        <pt x="417" y="4" on="0"/>
        <pt x="344" y="-7" on="0"/>
      </contour>
      <contour>
        <pt x="263" y="622" on="1"/>
        <pt x="219" y="622" on="0"/>
        <pt x="181" y="660" on="0"/>
        <pt x="181" y="702" on="1"/>
        <pt x="181" y="744" on="0"/>
        <pt x="219" y="780" on="0"/>
        <pt x="263" y="780" on="1"/>
        <pt x="306" y="780" on="0"/>
        <pt x="346" y="744" on="0"/>
        <pt x="346" y="702" on="1"/>
        <pt x="346" y="660" on="0"/>
        <pt x="306" y="622" on="0"/>
      </contour>
    </TTGlyph>
    <TTGlyph name="D" xMin="56" yMin="-13" xMax="606" yMax="749">
      <contour>
        <pt x="233" y="-13" on="1"/>
        <pt x="198" y="-13" on="0"/>
        <pt x="115" y="-8" on="0"/>
        <pt x="56" y="-2" on="1"/>
        <pt x="56" y="738" on="1"/>
        <pt x="120" y="744" on="0"/>
        <pt x="206" y="749" on="0"/>
        <pt x="243" y="749" on="1"/>
        <pt x="342" y="749" on="0"/>
        <pt x="480" y="708" on="0"/>
        <pt x="567" y="617" on="0"/>
        <pt x="606" y="472" on="0"/>
        <pt x="606" y="369" on="1"/>
        <pt x="606" y="265" on="0"/>
        <pt x="566" y="120" on="0"/>
        <pt x="477" y="28" on="0"/>
        <pt x="335" y="-13" on="0"/>
      </contour>
      <contour>
        <pt x="289" y="120" on="1"/>
        <pt x="331" y="120" on="0"/>
        <pt x="388" y="143" on="0"/>
        <pt x="423" y="200" on="0"/>
        <pt x="437" y="296" on="0"/>
        <pt x="437" y="370" on="1"/>
        <pt x="437" y="442" on="0"/>
        <pt x="422" y="538" on="0"/>
        <pt x="384" y="595" on="0"/>
        <pt x="321" y="618" on="0"/>
        <pt x="273" y="618" on="1"/>
        <pt x="253" y="618" on="0"/>
        <pt x="228" y="616" on="0"/>
        <pt x="217" y="613" on="1"/>
        <pt x="217" y="125" on="1"/>
        <pt x="243" y="122" on="0"/>
        <pt x="275" y="120" on="0"/>
      </contour>
    </TTGlyph>
    <TTGlyph name="D.sc" xMin="54" yMin="-9" xMax="558" yMax="584">
      <contour>
        <pt x="218" y="-9" on="1"/>
        <pt x="184" y="-9" on="0"/>
        <pt x="106" y="-5" on="0"/>
        <pt x="54" y="0" on="1"/>
        <pt x="54" y="578" on="1"/>
        <pt x="113" y="581" on="0"/>
        <pt x="193" y="584" on="0"/>
        <pt x="227" y="584" on="1"/>
        <pt x="317" y="584" on="0"/>
        <pt x="443" y="552" on="0"/>
        <pt x="522" y="482" on="0"/>
        <pt x="558" y="369" on="0"/>
        <pt x="558" y="288" on="1"/>
        <pt x="558" y="206" on="0"/>
        <pt x="521" y="93" on="0"/>
        <pt x="440" y="22" on="0"/>
        <pt x="311" y="-9" on="0"/>
      </contour>
      <contour>
        <pt x="272" y="114" on="1"/>
        <pt x="309" y="114" on="0"/>
        <pt x="358" y="128" on="0"/>
        <pt x="388" y="166" on="0"/>
        <pt x="400" y="235" on="0"/>
        <pt x="400" y="289" on="1"/>
        <pt x="400" y="342" on="0"/>
        <pt x="387" y="409" on="0"/>
        <pt x="354" y="448" on="0"/>
        <pt x="298" y="462" on="0"/>
        <pt x="256" y="462" on="1"/>
        <pt x="239" y="462" on="0"/>
        <pt x="216" y="461" on="0"/>
        <pt x="205" y="459" on="1"/>
        <pt x="205" y="118" on="1"/>
        <pt x="228" y="116" on="0"/>
        <pt x="258" y="114" on="0"/>
      </contour>
    </TTGlyph>
    <TTGlyph name="Dcaron" xMin="56" yMin="-13" xMax="606" yMax="968">
      <contour>
        <pt x="146" y="968" on="1"/>
        <pt x="307" y="897" on="1"/>
        <pt x="468" y="968" on="1"/>
        <pt x="468" y="860" on="1"/>
        <pt x="308" y="788" on="1"/>
        <pt x="146" y="860" on="1"/>
      </contour>
      <contour>
        <pt x="233" y="-13" on="1"/>
        <pt x="198" y="-13" on="0"/>
        <pt x="115" y="-8" on="0"/>
        <pt x="56" y="-2" on="1"/>
        <pt x="56" y="738" on="1"/>
        <pt x="120" y="744" on="0"/>
        <pt x="206" y="749" on="0"/>
        <pt x="243" y="749" on="1"/>
        <pt x="342" y="749" on="0"/>
        <pt x="480" y="708" on="0"/>
        <pt x="567" y="617" on="0"/>
        <pt x="606" y="472" on="0"/>
        <pt x="606" y="369" on="1"/>
        <pt x="606" y="265" on="0"/>
        <pt x="566" y="120" on="0"/>
        <pt x="477" y="28" on="0"/>
        <pt x="335" y="-13" on="0"/>
      </contour>
      <contour>
        <pt x="289" y="120" on="1"/>
        <pt x="331" y="120" on="0"/>
        <pt x="388" y="143" on="0"/>
        <pt x="423" y="200" on="0"/>
        <pt x="437" y="296" on="0"/>
        <pt x="437" y="370" on="1"/>
        <pt x="437" y="442" on="0"/>
        <pt x="422" y="538" on="0"/>
        <pt x="384" y="595" on="0"/>
        <pt x="321" y="618" on="0"/>
        <pt x="273" y="618" on="1"/>
        <pt x="253" y="618" on="0"/>
        <pt x="228" y="616" on="0"/>
        <pt x="217" y="613" on="1"/>
        <pt x="217" y="125" on="1"/>
        <pt x="243" y="122" on="0"/>
        <pt x="275" y="120" on="0"/>
      </contour>
    </TTGlyph>
    <TTGlyph name="Dcaron.sc" xMin="54" yMin="-9" xMax="558" yMax="768">
      <contour>
        <pt x="218" y="-9" on="1"/>
        <pt x="184" y="-9" on="0"/>
        <pt x="106" y="-5" on="0"/>
        <pt x="54" y="0" on="1"/>
        <pt x="54" y="578" on="1"/>
        <pt x="113" y="581" on="0"/>
        <pt x="193" y="584" on="0"/>
        <pt x="227" y="584" on="1"/>
        <pt x="317" y="584" on="0"/>
        <pt x="443" y="552" on="0"/>
        <pt x="522" y="482" on="0"/>
        <pt x="558" y="369" on="0"/>
        <pt x="558" y="288" on="1"/>
        <pt x="558" y="206" on="0"/>
        <pt x="521" y="93" on="0"/>
        <pt x="440" y="22" on="0"/>
        <pt x="311" y="-9" on="0"/>
      </contour>
      <contour>
        <pt x="272" y="114" on="1"/>
        <pt x="309" y="114" on="0"/>
        <pt x="358" y="128" on="0"/>
        <pt x="388" y="166" on="0"/>
        <pt x="400" y="235" on="0"/>
        <pt x="400" y="289" on="1"/>
        <pt x="400" y="342" on="0"/>
        <pt x="387" y="409" on="0"/>
        <pt x="354" y="448" on="0"/>
        <pt x="298" y="462" on="0"/>
        <pt x="256" y="462" on="1"/>
        <pt x="239" y="462" on="0"/>
        <pt x="216" y="461" on="0"/>
        <pt x="205" y="459" on="1"/>
        <pt x="205" y="118" on="1"/>
        <pt x="228" y="116" on="0"/>
        <pt x="258" y="114" on="0"/>
      </contour>
      <contour>
        <pt x="136" y="669" on="1"/>
        <pt x="136" y="768" on="1"/>
        <pt x="286" y="712" on="1"/>
        <pt x="435" y="768" on="1"/>
        <pt x="435" y="669" on="1"/>
        <pt x="286" y="613" on="1"/>
      </contour>
    </TTGlyph>
    <TTGlyph name="Dcroat" xMin="-2" yMin="-13" xMax="629" yMax="749">
      <contour>
        <pt x="-2" y="434" on="1"/>
        <pt x="79" y="434" on="1"/>
        <pt x="79" y="738" on="1"/>
        <pt x="143" y="744" on="0"/>
        <pt x="229" y="749" on="0"/>
        <pt x="266" y="749" on="1"/>
        <pt x="365" y="749" on="0"/>
        <pt x="503" y="708" on="0"/>
        <pt x="590" y="617" on="0"/>
        <pt x="629" y="472" on="0"/>
        <pt x="629" y="369" on="1"/>
        <pt x="629" y="265" on="0"/>
        <pt x="589" y="120" on="0"/>
        <pt x="500" y="28" on="0"/>
        <pt x="358" y="-13" on="0"/>
        <pt x="256" y="-13" on="1"/>
        <pt x="221" y="-13" on="0"/>
        <pt x="138" y="-8" on="0"/>
        <pt x="79" y="-2" on="1"/>
        <pt x="79" y="311" on="1"/>
        <pt x="-2" y="311" on="1"/>
      </contour>
      <contour>
        <pt x="312" y="120" on="1"/>
        <pt x="354" y="120" on="0"/>
        <pt x="411" y="143" on="0"/>
        <pt x="446" y="200" on="0"/>
        <pt x="460" y="296" on="0"/>
        <pt x="460" y="370" on="1"/>
        <pt x="460" y="442" on="0"/>
        <pt x="445" y="538" on="0"/>
        <pt x="407" y="595" on="0"/>
        <pt x="344" y="618" on="0"/>
        <pt x="296" y="618" on="1"/>
        <pt x="276" y="618" on="0"/>
        <pt x="251" y="616" on="0"/>
        <pt x="240" y="613" on="1"/>
        <pt x="240" y="434" on="1"/>
        <pt x="329" y="434" on="1"/>
        <pt x="329" y="311" on="1"/>
        <pt x="240" y="311" on="1"/>
        <pt x="240" y="125" on="1"/>
        <pt x="266" y="122" on="0"/>
        <pt x="298" y="120" on="0"/>
      </contour>
    </TTGlyph>
    <TTGlyph name="Dcroat.sc" xMin="3" yMin="-9" xMax="580" yMax="584">
      <contour>
        <pt x="3" y="349" on="1"/>
        <pt x="75" y="349" on="1"/>
        <pt x="75" y="578" on="1"/>
        <pt x="135" y="581" on="0"/>
        <pt x="215" y="584" on="0"/>
        <pt x="249" y="584" on="1"/>
        <pt x="339" y="584" on="0"/>
        <pt x="465" y="552" on="0"/>
        <pt x="544" y="482" on="0"/>
        <pt x="580" y="369" on="0"/>
        <pt x="580" y="288" on="1"/>
        <pt x="580" y="206" on="0"/>
        <pt x="543" y="93" on="0"/>
        <pt x="462" y="22" on="0"/>
        <pt x="333" y="-9" on="0"/>
        <pt x="240" y="-9" on="1"/>
        <pt x="206" y="-9" on="0"/>
        <pt x="128" y="-5" on="0"/>
        <pt x="75" y="0" on="1"/>
        <pt x="75" y="234" on="1"/>
        <pt x="3" y="234" on="1"/>
      </contour>
      <contour>
        <pt x="294" y="114" on="1"/>
        <pt x="331" y="114" on="0"/>
        <pt x="380" y="128" on="0"/>
        <pt x="410" y="166" on="0"/>
        <pt x="422" y="235" on="0"/>
        <pt x="422" y="289" on="1"/>
        <pt x="422" y="342" on="0"/>
        <pt x="408" y="409" on="0"/>
        <pt x="375" y="448" on="0"/>
        <pt x="319" y="462" on="0"/>
        <pt x="277" y="462" on="1"/>
        <pt x="260" y="462" on="0"/>
        <pt x="238" y="461" on="0"/>
        <pt x="227" y="459" on="1"/>
        <pt x="227" y="349" on="1"/>
        <pt x="303" y="349" on="1"/>
        <pt x="303" y="234" on="1"/>
        <pt x="227" y="234" on="1"/>
        <pt x="227" y="118" on="1"/>
        <pt x="250" y="116" on="0"/>
        <pt x="280" y="114" on="0"/>
      </contour>
    </TTGlyph>
    <TTGlyph name="Ddotbelow" xMin="56" yMin="-208" xMax="606" yMax="749">
      <contour>
        <pt x="307" y="-208" on="1"/>
        <pt x="269" y="-208" on="0"/>
        <pt x="237" y="-176" on="0"/>
        <pt x="237" y="-139" on="1"/>
        <pt x="237" y="-103" on="0"/>
        <pt x="269" y="-71" on="0"/>
        <pt x="307" y="-71" on="1"/>
        <pt x="344" y="-71" on="0"/>
        <pt x="378" y="-102" on="0"/>
        <pt x="378" y="-139" on="1"/>
        <pt x="378" y="-177" on="0"/>
        <pt x="344" y="-208" on="0"/>
      </contour>
      <contour>
        <pt x="233" y="-13" on="1"/>
        <pt x="198" y="-13" on="0"/>
        <pt x="115" y="-8" on="0"/>
        <pt x="56" y="-2" on="1"/>
        <pt x="56" y="738" on="1"/>
        <pt x="120" y="744" on="0"/>
        <pt x="206" y="749" on="0"/>
        <pt x="243" y="749" on="1"/>
        <pt x="342" y="749" on="0"/>
        <pt x="480" y="708" on="0"/>
        <pt x="567" y="617" on="0"/>
        <pt x="606" y="472" on="0"/>
        <pt x="606" y="369" on="1"/>
        <pt x="606" y="265" on="0"/>
        <pt x="566" y="120" on="0"/>
        <pt x="477" y="28" on="0"/>
        <pt x="335" y="-13" on="0"/>
      </contour>
      <contour>
        <pt x="289" y="120" on="1"/>
        <pt x="331" y="120" on="0"/>
        <pt x="388" y="143" on="0"/>
        <pt x="423" y="200" on="0"/>
        <pt x="437" y="296" on="0"/>
        <pt x="437" y="370" on="1"/>
        <pt x="437" y="442" on="0"/>
        <pt x="422" y="538" on="0"/>
        <pt x="384" y="595" on="0"/>
        <pt x="321" y="618" on="0"/>
        <pt x="273" y="618" on="1"/>
        <pt x="253" y="618" on="0"/>
        <pt x="228" y="616" on="0"/>
        <pt x="217" y="613" on="1"/>
        <pt x="217" y="125" on="1"/>
        <pt x="243" y="122" on="0"/>
        <pt x="275" y="120" on="0"/>
      </contour>
    </TTGlyph>
    <TTGlyph name="Ddotbelow.sc" xMin="54" yMin="-172" xMax="558" yMax="584">
      <contour>
        <pt x="218" y="-9" on="1"/>
        <pt x="184" y="-9" on="0"/>
        <pt x="106" y="-5" on="0"/>
        <pt x="54" y="0" on="1"/>
        <pt x="54" y="578" on="1"/>
        <pt x="113" y="581" on="0"/>
        <pt x="193" y="584" on="0"/>
        <pt x="227" y="584" on="1"/>
        <pt x="317" y="584" on="0"/>
        <pt x="443" y="552" on="0"/>
        <pt x="522" y="482" on="0"/>
        <pt x="558" y="369" on="0"/>
        <pt x="558" y="288" on="1"/>
        <pt x="558" y="206" on="0"/>
        <pt x="521" y="93" on="0"/>
        <pt x="440" y="22" on="0"/>
        <pt x="311" y="-9" on="0"/>
      </contour>
      <contour>
        <pt x="272" y="114" on="1"/>
        <pt x="309" y="114" on="0"/>
        <pt x="358" y="128" on="0"/>
        <pt x="388" y="166" on="0"/>
        <pt x="400" y="235" on="0"/>
        <pt x="400" y="289" on="1"/>
        <pt x="400" y="342" on="0"/>
        <pt x="387" y="409" on="0"/>
        <pt x="354" y="448" on="0"/>
        <pt x="298" y="462" on="0"/>
        <pt x="256" y="462" on="1"/>
        <pt x="239" y="462" on="0"/>
        <pt x="216" y="461" on="0"/>
        <pt x="205" y="459" on="1"/>
        <pt x="205" y="118" on="1"/>
        <pt x="228" y="116" on="0"/>
        <pt x="258" y="114" on="0"/>
      </contour>
      <contour>
        <pt x="286" y="-172" on="1"/>
        <pt x="251" y="-172" on="0"/>
        <pt x="220" y="-143" on="0"/>
        <pt x="220" y="-111" on="1"/>
        <pt x="220" y="-79" on="0"/>
        <pt x="251" y="-51" on="0"/>
        <pt x="286" y="-51" on="1"/>
        <pt x="320" y="-51" on="0"/>
        <pt x="351" y="-79" on="0"/>
        <pt x="351" y="-111" on="1"/>
        <pt x="351" y="-144" on="0"/>
        <pt x="320" y="-172" on="0"/>
      </contour>
    </TTGlyph>
    <TTGlyph name="Delta" xMin="17" yMin="0" xMax="685" yMax="740">
      <contour>
        <pt x="246" y="740" on="1"/>
        <pt x="456" y="740" on="1"/>
        <pt x="685" y="0" on="1"/>
        <pt x="17" y="0" on="1"/>
      </contour>
      <contour>
        <pt x="495" y="137" on="1"/>
        <pt x="351" y="601" on="1"/>
        <pt x="207" y="137" on="1"/>
      </contour>
    </TTGlyph>
    <TTGlyph name="E" xMin="56" yMin="0" xMax="514" yMax="740">
      <contour>
        <pt x="56" y="740" on="1"/>
        <pt x="505" y="740" on="1"/>
        <pt x="505" y="603" on="1"/>
        <pt x="220" y="603" on="1"/>
        <pt x="220" y="440" on="1"/>
        <pt x="474" y="440" on="1"/>
        <pt x="474" y="302" on="1"/>
        <pt x="220" y="302" on="1"/>
        <pt x="220" y="137" on="1"/>
        <pt x="514" y="137" on="1"/>
        <pt x="514" y="0" on="1"/>
        <pt x="56" y="0" on="1"/>
      </contour>
    </TTGlyph>
    <TTGlyph name="E.sc" xMin="54" yMin="0" xMax="474" yMax="577">
      <contour>
        <pt x="54" y="577" on="1"/>
        <pt x="466" y="577" on="1"/>
        <pt x="466" y="454" on="1"/>
        <pt x="208" y="454" on="1"/>
        <pt x="208" y="349" on="1"/>
        <pt x="438" y="349" on="1"/>
        <pt x="438" y="229" on="1"/>
        <pt x="208" y="229" on="1"/>
        <pt x="208" y="124" on="1"/>
        <pt x="474" y="124" on="1"/>
        <pt x="474" y="0" on="1"/>
        <pt x="54" y="0" on="1"/>
      </contour>
    </TTGlyph>
    <TTGlyph name="Eacute" xMin="56" yMin="0" xMax="514" yMax="973">
      <contour>
        <pt x="222" y="798" on="1"/>
        <pt x="288" y="973" on="1"/>
        <pt x="452" y="973" on="1"/>
        <pt x="337" y="789" on="1"/>
      </contour>
      <contour>
        <pt x="56" y="740" on="1"/>
        <pt x="505" y="740" on="1"/>
        <pt x="505" y="603" on="1"/>
        <pt x="220" y="603" on="1"/>
        <pt x="220" y="440" on="1"/>
        <pt x="474" y="440" on="1"/>
        <pt x="474" y="302" on="1"/>
        <pt x="220" y="302" on="1"/>
        <pt x="220" y="137" on="1"/>
        <pt x="514" y="137" on="1"/>
        <pt x="514" y="0" on="1"/>
        <pt x="56" y="0" on="1"/>
      </contour>
    </TTGlyph>
    <TTGlyph name="Eacute.sc" xMin="54" yMin="0" xMax="474" yMax="772">
      <contour>
        <pt x="54" y="577" on="1"/>
        <pt x="466" y="577" on="1"/>
        <pt x="466" y="454" on="1"/>
        <pt x="208" y="454" on="1"/>
        <pt x="208" y="349" on="1"/>
        <pt x="438" y="349" on="1"/>
        <pt x="438" y="229" on="1"/>
        <pt x="208" y="229" on="1"/>
        <pt x="208" y="124" on="1"/>
        <pt x="474" y="124" on="1"/>
        <pt x="474" y="0" on="1"/>
        <pt x="54" y="0" on="1"/>
      </contour>
      <contour>
        <pt x="203" y="625" on="1"/>
        <pt x="262" y="772" on="1"/>
        <pt x="416" y="772" on="1"/>
        <pt x="312" y="617" on="1"/>
      </contour>
    </TTGlyph>
    <TTGlyph name="Ebreve" xMin="56" yMin="0" xMax="514" yMax="970">
      <contour>
        <pt x="285" y="795" on="1"/>
        <pt x="197" y="795" on="0"/>
        <pt x="107" y="888" on="0"/>
        <pt x="107" y="970" on="1"/>
        <pt x="216" y="970" on="1"/>
        <pt x="216" y="916" on="0"/>
        <pt x="246" y="871" on="0"/>
        <pt x="285" y="871" on="1"/>
        <pt x="323" y="871" on="0"/>
        <pt x="354" y="916" on="0"/>
        <pt x="354" y="970" on="1"/>
        <pt x="464" y="970" on="1"/>
        <pt x="464" y="889" on="0"/>
        <pt x="372" y="795" on="0"/>
      </contour>
      <contour>
        <pt x="56" y="740" on="1"/>
        <pt x="505" y="740" on="1"/>
        <pt x="505" y="603" on="1"/>
        <pt x="220" y="603" on="1"/>
        <pt x="220" y="440" on="1"/>
        <pt x="474" y="440" on="1"/>
        <pt x="474" y="302" on="1"/>
        <pt x="220" y="302" on="1"/>
        <pt x="220" y="137" on="1"/>
        <pt x="514" y="137" on="1"/>
        <pt x="514" y="0" on="1"/>
        <pt x="56" y="0" on="1"/>
      </contour>
    </TTGlyph>
    <TTGlyph name="Ebreve.sc" xMin="54" yMin="0" xMax="474" yMax="763">
      <contour>
        <pt x="264" y="617" on="1"/>
        <pt x="182" y="617" on="0"/>
        <pt x="99" y="695" on="0"/>
        <pt x="99" y="763" on="1"/>
        <pt x="201" y="763" on="1"/>
        <pt x="201" y="718" on="0"/>
        <pt x="227" y="685" on="0"/>
        <pt x="264" y="685" on="1"/>
        <pt x="299" y="685" on="0"/>
        <pt x="326" y="718" on="0"/>
        <pt x="326" y="763" on="1"/>
        <pt x="428" y="763" on="1"/>
        <pt x="428" y="695" on="0"/>
        <pt x="345" y="617" on="0"/>
      </contour>
      <contour>
        <pt x="54" y="577" on="1"/>
        <pt x="466" y="577" on="1"/>
        <pt x="466" y="454" on="1"/>
        <pt x="208" y="454" on="1"/>
        <pt x="208" y="349" on="1"/>
        <pt x="438" y="349" on="1"/>
        <pt x="438" y="229" on="1"/>
        <pt x="208" y="229" on="1"/>
        <pt x="208" y="124" on="1"/>
        <pt x="474" y="124" on="1"/>
        <pt x="474" y="0" on="1"/>
        <pt x="54" y="0" on="1"/>
      </contour>
    </TTGlyph>
    <TTGlyph name="Ecaron" xMin="56" yMin="0" xMax="514" yMax="968">
      <contour>
        <pt x="133" y="968" on="1"/>
        <pt x="294" y="897" on="1"/>
        <pt x="455" y="968" on="1"/>
        <pt x="455" y="860" on="1"/>
        <pt x="295" y="788" on="1"/>
        <pt x="133" y="860" on="1"/>
      </contour>
      <contour>
        <pt x="56" y="740" on="1"/>
        <pt x="505" y="740" on="1"/>
        <pt x="505" y="603" on="1"/>
        <pt x="220" y="603" on="1"/>
        <pt x="220" y="440" on="1"/>
        <pt x="474" y="440" on="1"/>
        <pt x="474" y="302" on="1"/>
        <pt x="220" y="302" on="1"/>
        <pt x="220" y="137" on="1"/>
        <pt x="514" y="137" on="1"/>
        <pt x="514" y="0" on="1"/>
        <pt x="56" y="0" on="1"/>
      </contour>
    </TTGlyph>
    <TTGlyph name="Ecaron.sc" xMin="54" yMin="0" xMax="474" yMax="768">
      <contour>
        <pt x="54" y="577" on="1"/>
        <pt x="466" y="577" on="1"/>
        <pt x="466" y="454" on="1"/>
        <pt x="208" y="454" on="1"/>
        <pt x="208" y="349" on="1"/>
        <pt x="438" y="349" on="1"/>
        <pt x="438" y="229" on="1"/>
        <pt x="208" y="229" on="1"/>
        <pt x="208" y="124" on="1"/>
        <pt x="474" y="124" on="1"/>
        <pt x="474" y="0" on="1"/>
        <pt x="54" y="0" on="1"/>
      </contour>
      <contour>
        <pt x="123" y="669" on="1"/>
        <pt x="123" y="768" on="1"/>
        <pt x="271" y="712" on="1"/>
        <pt x="421" y="768" on="1"/>
        <pt x="421" y="669" on="1"/>
        <pt x="272" y="613" on="1"/>
      </contour>
    </TTGlyph>
    <TTGlyph name="Ecircumflex" xMin="56" yMin="0" xMax="514" yMax="972">
      <contour>
        <pt x="56" y="740" on="1"/>
        <pt x="505" y="740" on="1"/>
        <pt x="505" y="603" on="1"/>
        <pt x="220" y="603" on="1"/>
        <pt x="220" y="440" on="1"/>
        <pt x="474" y="440" on="1"/>
        <pt x="474" y="302" on="1"/>
        <pt x="220" y="302" on="1"/>
        <pt x="220" y="137" on="1"/>
        <pt x="514" y="137" on="1"/>
        <pt x="514" y="0" on="1"/>
        <pt x="56" y="0" on="1"/>
      </contour>
      <contour>
        <pt x="124" y="900" on="1"/>
        <pt x="286" y="972" on="1"/>
        <pt x="447" y="900" on="1"/>
        <pt x="447" y="792" on="1"/>
        <pt x="285" y="864" on="1"/>
        <pt x="124" y="792" on="1"/>
      </contour>
    </TTGlyph>
    <TTGlyph name="Ecircumflex.sc" xMin="54" yMin="0" xMax="474" yMax="768">
      <contour>
        <pt x="54" y="577" on="1"/>
        <pt x="466" y="577" on="1"/>
        <pt x="466" y="454" on="1"/>
        <pt x="208" y="454" on="1"/>
        <pt x="208" y="349" on="1"/>
        <pt x="438" y="349" on="1"/>
        <pt x="438" y="229" on="1"/>
        <pt x="208" y="229" on="1"/>
        <pt x="208" y="124" on="1"/>
        <pt x="474" y="124" on="1"/>
        <pt x="474" y="0" on="1"/>
        <pt x="54" y="0" on="1"/>
      </contour>
      <contour>
        <pt x="116" y="712" on="1"/>
        <pt x="266" y="768" on="1"/>
        <pt x="414" y="712" on="1"/>
        <pt x="414" y="614" on="1"/>
        <pt x="265" y="670" on="1"/>
        <pt x="116" y="614" on="1"/>
      </contour>
    </TTGlyph>
    <TTGlyph name="Edblgrave" xMin="44" yMin="0" xMax="514" yMax="973">
      <contour>
        <pt x="56" y="740" on="1"/>
        <pt x="505" y="740" on="1"/>
        <pt x="505" y="603" on="1"/>
        <pt x="220" y="603" on="1"/>
        <pt x="220" y="440" on="1"/>
        <pt x="474" y="440" on="1"/>
        <pt x="474" y="302" on="1"/>
        <pt x="220" y="302" on="1"/>
        <pt x="220" y="137" on="1"/>
        <pt x="514" y="137" on="1"/>
        <pt x="514" y="0" on="1"/>
        <pt x="56" y="0" on="1"/>
      </contour>
      <contour>
        <pt x="160" y="789" on="1"/>
        <pt x="44" y="973" on="1"/>
        <pt x="178" y="973" on="1"/>
        <pt x="245" y="800" on="1"/>
      </contour>
      <contour>
        <pt x="345" y="789" on="1"/>
        <pt x="228" y="973" on="1"/>
        <pt x="362" y="973" on="1"/>
        <pt x="429" y="800" on="1"/>
      </contour>
    </TTGlyph>
    <TTGlyph name="Edblgrave.sc" xMin="41" yMin="0" xMax="474" yMax="772">
      <contour>
        <pt x="54" y="577" on="1"/>
        <pt x="466" y="577" on="1"/>
        <pt x="466" y="454" on="1"/>
        <pt x="208" y="454" on="1"/>
        <pt x="208" y="349" on="1"/>
        <pt x="438" y="349" on="1"/>
        <pt x="438" y="229" on="1"/>
        <pt x="208" y="229" on="1"/>
        <pt x="208" y="124" on="1"/>
        <pt x="474" y="124" on="1"/>
        <pt x="474" y="0" on="1"/>
        <pt x="54" y="0" on="1"/>
      </contour>
      <contour>
        <pt x="41" y="772" on="1"/>
        <pt x="170" y="772" on="1"/>
        <pt x="227" y="625" on="1"/>
        <pt x="147" y="617" on="1"/>
      </contour>
      <contour>
        <pt x="211" y="772" on="1"/>
        <pt x="339" y="772" on="1"/>
        <pt x="397" y="625" on="1"/>
        <pt x="317" y="617" on="1"/>
      </contour>
    </TTGlyph>
    <TTGlyph name="Edieresis" xMin="56" yMin="0" xMax="514" yMax="973">
      <contour>
        <pt x="162" y="801" on="1"/>
        <pt x="115" y="801" on="0"/>
        <pt x="74" y="842" on="0"/>
        <pt x="74" y="888" on="1"/>
        <pt x="74" y="933" on="0"/>
        <pt x="115" y="973" on="0"/>
        <pt x="162" y="973" on="1"/>
        <pt x="208" y="973" on="0"/>
        <pt x="251" y="933" on="0"/>
        <pt x="251" y="888" on="1"/>
        <pt x="251" y="841" on="0"/>
        <pt x="208" y="801" on="0"/>
      </contour>
      <contour>
        <pt x="407" y="801" on="1"/>
        <pt x="360" y="801" on="0"/>
        <pt x="319" y="842" on="0"/>
        <pt x="319" y="888" on="1"/>
        <pt x="319" y="933" on="0"/>
        <pt x="360" y="973" on="0"/>
        <pt x="407" y="973" on="1"/>
        <pt x="453" y="973" on="0"/>
        <pt x="496" y="933" on="0"/>
        <pt x="496" y="888" on="1"/>
        <pt x="496" y="841" on="0"/>
        <pt x="453" y="801" on="0"/>
      </contour>
      <contour>
        <pt x="56" y="740" on="1"/>
        <pt x="505" y="740" on="1"/>
        <pt x="505" y="603" on="1"/>
        <pt x="220" y="603" on="1"/>
        <pt x="220" y="440" on="1"/>
        <pt x="474" y="440" on="1"/>
        <pt x="474" y="302" on="1"/>
        <pt x="220" y="302" on="1"/>
        <pt x="220" y="137" on="1"/>
        <pt x="514" y="137" on="1"/>
        <pt x="514" y="0" on="1"/>
        <pt x="56" y="0" on="1"/>
      </contour>
    </TTGlyph>
    <TTGlyph name="Edieresis.sc" xMin="54" yMin="0" xMax="474" yMax="780">
      <contour>
        <pt x="151" y="622" on="1"/>
        <pt x="107" y="622" on="0"/>
        <pt x="69" y="659" on="0"/>
        <pt x="69" y="701" on="1"/>
        <pt x="69" y="743" on="0"/>
        <pt x="107" y="780" on="0"/>
        <pt x="151" y="780" on="1"/>
        <pt x="193" y="780" on="0"/>
        <pt x="234" y="743" on="0"/>
        <pt x="234" y="701" on="1"/>
        <pt x="234" y="659" on="0"/>
        <pt x="193" y="622" on="0"/>
      </contour>
      <contour>
        <pt x="377" y="622" on="1"/>
        <pt x="332" y="622" on="0"/>
        <pt x="295" y="659" on="0"/>
        <pt x="295" y="701" on="1"/>
        <pt x="295" y="743" on="0"/>
        <pt x="332" y="780" on="0"/>
        <pt x="377" y="780" on="1"/>
        <pt x="420" y="780" on="0"/>
        <pt x="460" y="743" on="0"/>
        <pt x="460" y="701" on="1"/>
        <pt x="460" y="659" on="0"/>
        <pt x="420" y="622" on="0"/>
      </contour>
      <contour>
        <pt x="54" y="577" on="1"/>
        <pt x="466" y="577" on="1"/>
        <pt x="466" y="454" on="1"/>
        <pt x="208" y="454" on="1"/>
        <pt x="208" y="349" on="1"/>
        <pt x="438" y="349" on="1"/>
        <pt x="438" y="229" on="1"/>
        <pt x="208" y="229" on="1"/>
        <pt x="208" y="124" on="1"/>
        <pt x="474" y="124" on="1"/>
        <pt x="474" y="0" on="1"/>
        <pt x="54" y="0" on="1"/>
      </contour>
    </TTGlyph>
    <TTGlyph name="Edotaccent" xMin="56" yMin="0" xMax="514" yMax="970">
      <contour>
        <pt x="285" y="798" on="1"/>
        <pt x="238" y="798" on="0"/>
        <pt x="197" y="839" on="0"/>
        <pt x="197" y="885" on="1"/>
        <pt x="197" y="930" on="0"/>
        <pt x="238" y="970" on="0"/>
        <pt x="285" y="970" on="1"/>
        <pt x="331" y="970" on="0"/>
        <pt x="374" y="930" on="0"/>
        <pt x="374" y="885" on="1"/>
        <pt x="374" y="838" on="0"/>
        <pt x="331" y="798" on="0"/>
      </contour>
      <contour>
        <pt x="56" y="740" on="1"/>
        <pt x="505" y="740" on="1"/>
        <pt x="505" y="603" on="1"/>
        <pt x="220" y="603" on="1"/>
        <pt x="220" y="440" on="1"/>
        <pt x="474" y="440" on="1"/>
        <pt x="474" y="302" on="1"/>
        <pt x="220" y="302" on="1"/>
        <pt x="220" y="137" on="1"/>
        <pt x="514" y="137" on="1"/>
        <pt x="514" y="0" on="1"/>
        <pt x="56" y="0" on="1"/>
      </contour>
    </TTGlyph>
    <TTGlyph name="Edotaccent.sc" xMin="54" yMin="0" xMax="474" yMax="780">
      <contour>
        <pt x="263" y="622" on="1"/>
        <pt x="219" y="622" on="0"/>
        <pt x="182" y="660" on="0"/>
        <pt x="182" y="702" on="1"/>
        <pt x="182" y="744" on="0"/>
        <pt x="219" y="780" on="0"/>
        <pt x="263" y="780" on="1"/>
        <pt x="306" y="780" on="0"/>
        <pt x="346" y="744" on="0"/>
        <pt x="346" y="702" on="1"/>
        <pt x="346" y="660" on="0"/>
        <pt x="306" y="622" on="0"/>
      </contour>
      <contour>
        <pt x="54" y="577" on="1"/>
        <pt x="466" y="577" on="1"/>
        <pt x="466" y="454" on="1"/>
        <pt x="208" y="454" on="1"/>
        <pt x="208" y="349" on="1"/>
        <pt x="438" y="349" on="1"/>
        <pt x="438" y="229" on="1"/>
        <pt x="208" y="229" on="1"/>
        <pt x="208" y="124" on="1"/>
        <pt x="474" y="124" on="1"/>
        <pt x="474" y="0" on="1"/>
        <pt x="54" y="0" on="1"/>
      </contour>
    </TTGlyph>
    <TTGlyph name="Edotbelow" xMin="56" yMin="-208" xMax="514" yMax="740">
      <contour>
        <pt x="56" y="740" on="1"/>
        <pt x="505" y="740" on="1"/>
        <pt x="505" y="603" on="1"/>
        <pt x="220" y="603" on="1"/>
        <pt x="220" y="440" on="1"/>
        <pt x="474" y="440" on="1"/>
        <pt x="474" y="302" on="1"/>
        <pt x="220" y="302" on="1"/>
        <pt x="220" y="137" on="1"/>
        <pt x="514" y="137" on="1"/>
        <pt x="514" y="0" on="1"/>
        <pt x="56" y="0" on="1"/>
      </contour>
      <contour>
        <pt x="291" y="-208" on="1"/>
        <pt x="253" y="-208" on="0"/>
        <pt x="221" y="-176" on="0"/>
        <pt x="221" y="-139" on="1"/>
        <pt x="221" y="-103" on="0"/>
        <pt x="253" y="-71" on="0"/>
        <pt x="291" y="-71" on="1"/>
        <pt x="328" y="-71" on="0"/>
        <pt x="362" y="-102" on="0"/>
        <pt x="362" y="-139" on="1"/>
        <pt x="362" y="-177" on="0"/>
        <pt x="328" y="-208" on="0"/>
      </contour>
    </TTGlyph>
    <TTGlyph name="Edotbelow.sc" xMin="54" yMin="-172" xMax="474" yMax="577">
      <contour>
        <pt x="269" y="-172" on="1"/>
        <pt x="234" y="-172" on="0"/>
        <pt x="204" y="-144" on="0"/>
        <pt x="204" y="-111" on="1"/>
        <pt x="204" y="-79" on="0"/>
        <pt x="234" y="-51" on="0"/>
        <pt x="269" y="-51" on="1"/>
        <pt x="304" y="-51" on="0"/>
        <pt x="335" y="-79" on="0"/>
        <pt x="335" y="-111" on="1"/>
        <pt x="335" y="-143" on="0"/>
        <pt x="304" y="-172" on="0"/>
      </contour>
      <contour>
        <pt x="54" y="577" on="1"/>
        <pt x="466" y="577" on="1"/>
        <pt x="466" y="454" on="1"/>
        <pt x="208" y="454" on="1"/>
        <pt x="208" y="349" on="1"/>
        <pt x="438" y="349" on="1"/>
        <pt x="438" y="229" on="1"/>
        <pt x="208" y="229" on="1"/>
        <pt x="208" y="124" on="1"/>
        <pt x="474" y="124" on="1"/>
        <pt x="474" y="0" on="1"/>
        <pt x="54" y="0" on="1"/>
      </contour>
    </TTGlyph>
    <TTGlyph name="Egrave" xMin="56" yMin="0" xMax="514" yMax="973">
      <contour>
        <pt x="224" y="789" on="1"/>
        <pt x="108" y="973" on="1"/>
        <pt x="272" y="973" on="1"/>
        <pt x="339" y="800" on="1"/>
      </contour>
      <contour>
        <pt x="56" y="740" on="1"/>
        <pt x="505" y="740" on="1"/>
        <pt x="505" y="603" on="1"/>
        <pt x="220" y="603" on="1"/>
        <pt x="220" y="440" on="1"/>
        <pt x="474" y="440" on="1"/>
        <pt x="474" y="302" on="1"/>
        <pt x="220" y="302" on="1"/>
        <pt x="220" y="137" on="1"/>
        <pt x="514" y="137" on="1"/>
        <pt x="514" y="0" on="1"/>
        <pt x="56" y="0" on="1"/>
      </contour>
    </TTGlyph>
    <TTGlyph name="Egrave.sc" xMin="54" yMin="0" xMax="474" yMax="772">
      <contour>
        <pt x="54" y="577" on="1"/>
        <pt x="466" y="577" on="1"/>
        <pt x="466" y="454" on="1"/>
        <pt x="208" y="454" on="1"/>
        <pt x="208" y="349" on="1"/>
        <pt x="438" y="349" on="1"/>
        <pt x="438" y="229" on="1"/>
        <pt x="208" y="229" on="1"/>
        <pt x="208" y="124" on="1"/>
        <pt x="474" y="124" on="1"/>
        <pt x="474" y="0" on="1"/>
        <pt x="54" y="0" on="1"/>
      </contour>
      <contour>
        <pt x="104" y="772" on="1"/>
        <pt x="257" y="772" on="1"/>
        <pt x="316" y="625" on="1"/>
        <pt x="208" y="617" on="1"/>
      </contour>
    </TTGlyph>
    <TTGlyph name="Einvertedbreve" xMin="56" yMin="0" xMax="514" yMax="980">
      <contour>
        <pt x="56" y="740" on="1"/>
        <pt x="505" y="740" on="1"/>
        <pt x="505" y="603" on="1"/>
        <pt x="220" y="603" on="1"/>
        <pt x="220" y="440" on="1"/>
        <pt x="474" y="440" on="1"/>
        <pt x="474" y="302" on="1"/>
        <pt x="220" y="302" on="1"/>
        <pt x="220" y="137" on="1"/>
        <pt x="514" y="137" on="1"/>
        <pt x="514" y="0" on="1"/>
        <pt x="56" y="0" on="1"/>
      </contour>
      <contour>
        <pt x="355" y="805" on="1"/>
        <pt x="355" y="860" on="0"/>
        <pt x="324" y="905" on="0"/>
        <pt x="286" y="905" on="1"/>
        <pt x="247" y="905" on="0"/>
        <pt x="217" y="860" on="0"/>
        <pt x="217" y="805" on="1"/>
        <pt x="108" y="805" on="1"/>
        <pt x="108" y="887" on="0"/>
        <pt x="198" y="980" on="0"/>
        <pt x="286" y="980" on="1"/>
        <pt x="373" y="980" on="0"/>
        <pt x="465" y="887" on="0"/>
        <pt x="465" y="805" on="1"/>
      </contour>
    </TTGlyph>
    <TTGlyph name="Einvertedbreve.sc" xMin="54" yMin="0" xMax="474" yMax="770">
      <contour>
        <pt x="100" y="625" on="1"/>
        <pt x="100" y="693" on="0"/>
        <pt x="182" y="770" on="0"/>
        <pt x="265" y="770" on="1"/>
        <pt x="346" y="770" on="0"/>
        <pt x="430" y="693" on="0"/>
        <pt x="430" y="625" on="1"/>
        <pt x="327" y="625" on="1"/>
        <pt x="327" y="669" on="0"/>
        <pt x="300" y="702" on="0"/>
        <pt x="265" y="702" on="1"/>
        <pt x="229" y="702" on="0"/>
        <pt x="202" y="669" on="0"/>
        <pt x="202" y="625" on="1"/>
      </contour>
      <contour>
        <pt x="54" y="577" on="1"/>
        <pt x="466" y="577" on="1"/>
        <pt x="466" y="454" on="1"/>
        <pt x="208" y="454" on="1"/>
        <pt x="208" y="349" on="1"/>
        <pt x="438" y="349" on="1"/>
        <pt x="438" y="229" on="1"/>
        <pt x="208" y="229" on="1"/>
        <pt x="208" y="124" on="1"/>
        <pt x="474" y="124" on="1"/>
        <pt x="474" y="0" on="1"/>
        <pt x="54" y="0" on="1"/>
      </contour>
    </TTGlyph>
    <TTGlyph name="Emacron" xMin="56" yMin="0" xMax="514" yMax="944">
      <contour>
        <pt x="124" y="944" on="1"/>
        <pt x="441" y="944" on="1"/>
        <pt x="441" y="837" on="1"/>
        <pt x="124" y="837" on="1"/>
      </contour>
      <contour>
        <pt x="56" y="740" on="1"/>
        <pt x="505" y="740" on="1"/>
        <pt x="505" y="603" on="1"/>
        <pt x="220" y="603" on="1"/>
        <pt x="220" y="440" on="1"/>
        <pt x="474" y="440" on="1"/>
        <pt x="474" y="302" on="1"/>
        <pt x="220" y="302" on="1"/>
        <pt x="220" y="137" on="1"/>
        <pt x="514" y="137" on="1"/>
        <pt x="514" y="0" on="1"/>
        <pt x="56" y="0" on="1"/>
      </contour>
    </TTGlyph>
    <TTGlyph name="Emacron.sc" xMin="54" yMin="0" xMax="474" yMax="751">
      <contour>
        <pt x="54" y="577" on="1"/>
        <pt x="466" y="577" on="1"/>
        <pt x="466" y="454" on="1"/>
        <pt x="208" y="454" on="1"/>
        <pt x="208" y="349" on="1"/>
        <pt x="438" y="349" on="1"/>
        <pt x="438" y="229" on="1"/>
        <pt x="208" y="229" on="1"/>
        <pt x="208" y="124" on="1"/>
        <pt x="474" y="124" on="1"/>
        <pt x="474" y="0" on="1"/>
        <pt x="54" y="0" on="1"/>
      </contour>
      <contour>
        <pt x="116" y="751" on="1"/>
        <pt x="410" y="751" on="1"/>
        <pt x="410" y="652" on="1"/>
        <pt x="116" y="652" on="1"/>
      </contour>
    </TTGlyph>
    <TTGlyph name="Eng" xMin="56" yMin="-205" xMax="624" yMax="740">
      <contour>
        <pt x="395" y="-170" on="1"/>
        <pt x="415" y="-111" on="0"/>
        <pt x="444" y="4" on="0"/>
        <pt x="451" y="58" on="1"/>
        <pt x="248" y="378" on="1"/>
        <pt x="212" y="458" on="1"/>
        <pt x="202" y="458" on="1"/>
        <pt x="202" y="0" on="1"/>
        <pt x="56" y="0" on="1"/>
        <pt x="56" y="740" on="1"/>
        <pt x="191" y="740" on="1"/>
        <pt x="430" y="365" on="1"/>
        <pt x="468" y="284" on="1"/>
        <pt x="477" y="284" on="1"/>
        <pt x="477" y="740" on="1"/>
        <pt x="624" y="740" on="1"/>
        <pt x="624" y="115" on="1"/>
        <pt x="624" y="88" on="0"/>
        <pt x="605" y="12" on="0"/>
        <pt x="572" y="-75" on="0"/>
        <pt x="526" y="-165" on="0"/>
        <pt x="500" y="-205" on="1"/>
      </contour>
    </TTGlyph>
    <TTGlyph name="Eng.sc" xMin="55" yMin="-166" xMax="572" yMax="577">
      <contour>
        <pt x="361" y="-133" on="1"/>
        <pt x="381" y="-84" on="0"/>
        <pt x="407" y="10" on="0"/>
        <pt x="412" y="56" on="1"/>
        <pt x="234" y="254" on="1"/>
        <pt x="200" y="315" on="1"/>
        <pt x="191" y="316" on="1"/>
        <pt x="191" y="0" on="1"/>
        <pt x="55" y="0" on="1"/>
        <pt x="55" y="577" on="1"/>
        <pt x="180" y="577" on="1"/>
        <pt x="392" y="327" on="1"/>
        <pt x="427" y="264" on="1"/>
        <pt x="436" y="264" on="1"/>
        <pt x="436" y="577" on="1"/>
        <pt x="572" y="577" on="1"/>
        <pt x="572" y="104" on="1"/>
        <pt x="572" y="81" on="0"/>
        <pt x="555" y="17" on="0"/>
        <pt x="525" y="-56" on="0"/>
        <pt x="484" y="-132" on="0"/>
        <pt x="460" y="-166" on="1"/>
      </contour>
    </TTGlyph>
    <TTGlyph name="Eogonek" xMin="56" yMin="-220" xMax="514" yMax="740">
      <contour>
        <pt x="56" y="740" on="1"/>
        <pt x="505" y="740" on="1"/>
        <pt x="505" y="603" on="1"/>
        <pt x="220" y="603" on="1"/>
        <pt x="220" y="440" on="1"/>
        <pt x="474" y="440" on="1"/>
        <pt x="474" y="302" on="1"/>
        <pt x="220" y="302" on="1"/>
        <pt x="220" y="137" on="1"/>
        <pt x="514" y="137" on="1"/>
        <pt x="514" y="-8" on="1"/>
        <pt x="484" y="-19" on="0"/>
        <pt x="444" y="-45" on="0"/>
        <pt x="419" y="-71" on="0"/>
        <pt x="408" y="-94" on="0"/>
        <pt x="408" y="-103" on="1"/>
        <pt x="408" y="-116" on="0"/>
        <pt x="429" y="-127" on="0"/>
        <pt x="446" y="-127" on="1"/>
        <pt x="463" y="-127" on="0"/>
        <pt x="500" y="-120" on="0"/>
        <pt x="514" y="-115" on="1"/>
        <pt x="514" y="-208" on="1"/>
        <pt x="491" y="-213" on="0"/>
        <pt x="451" y="-220" on="0"/>
        <pt x="428" y="-220" on="1"/>
        <pt x="305" y="-220" on="0"/>
        <pt x="305" y="-120" on="1"/>
        <pt x="305" y="-86" on="0"/>
        <pt x="339" y="-32" on="0"/>
        <pt x="381" y="0" on="1"/>
        <pt x="56" y="0" on="1"/>
      </contour>
    </TTGlyph>
    <TTGlyph name="Eogonek.sc" xMin="55" yMin="-172" xMax="475" yMax="577">
      <contour>
        <pt x="397" y="-172" on="1"/>
        <pt x="282" y="-172" on="0"/>
        <pt x="282" y="-91" on="1"/>
        <pt x="282" y="-65" on="0"/>
        <pt x="312" y="-25" on="0"/>
        <pt x="347" y="0" on="1"/>
        <pt x="55" y="0" on="1"/>
        <pt x="55" y="577" on="1"/>
        <pt x="467" y="577" on="1"/>
        <pt x="467" y="454" on="1"/>
        <pt x="209" y="454" on="1"/>
        <pt x="209" y="349" on="1"/>
        <pt x="439" y="349" on="1"/>
        <pt x="439" y="229" on="1"/>
        <pt x="209" y="229" on="1"/>
        <pt x="209" y="124" on="1"/>
        <pt x="474" y="124" on="1"/>
        <pt x="474" y="-3" on="1"/>
        <pt x="420" y="-23" on="0"/>
        <pt x="380" y="-64" on="0"/>
        <pt x="380" y="-74" on="1"/>
        <pt x="380" y="-87" on="0"/>
        <pt x="412" y="-87" on="1"/>
        <pt x="428" y="-87" on="0"/>
        <pt x="462" y="-81" on="0"/>
        <pt x="475" y="-77" on="1"/>
        <pt x="475" y="-162" on="1"/>
        <pt x="453" y="-167" on="0"/>
        <pt x="417" y="-172" on="0"/>
      </contour>
    </TTGlyph>
    <TTGlyph name="Eth" xMin="-2" yMin="-13" xMax="629" yMax="749">
      <contour>
        <pt x="-2" y="434" on="1"/>
        <pt x="79" y="434" on="1"/>
        <pt x="79" y="738" on="1"/>
        <pt x="143" y="744" on="0"/>
        <pt x="229" y="749" on="0"/>
        <pt x="266" y="749" on="1"/>
        <pt x="365" y="749" on="0"/>
        <pt x="503" y="708" on="0"/>
        <pt x="590" y="617" on="0"/>
        <pt x="629" y="472" on="0"/>
        <pt x="629" y="369" on="1"/>
        <pt x="629" y="265" on="0"/>
        <pt x="589" y="120" on="0"/>
        <pt x="500" y="28" on="0"/>
        <pt x="358" y="-13" on="0"/>
        <pt x="256" y="-13" on="1"/>
        <pt x="221" y="-13" on="0"/>
        <pt x="138" y="-8" on="0"/>
        <pt x="79" y="-2" on="1"/>
        <pt x="79" y="311" on="1"/>
        <pt x="-2" y="311" on="1"/>
      </contour>
      <contour>
        <pt x="312" y="120" on="1"/>
        <pt x="354" y="120" on="0"/>
        <pt x="411" y="143" on="0"/>
        <pt x="446" y="200" on="0"/>
        <pt x="460" y="296" on="0"/>
        <pt x="460" y="370" on="1"/>
        <pt x="460" y="442" on="0"/>
        <pt x="445" y="538" on="0"/>
        <pt x="407" y="595" on="0"/>
        <pt x="344" y="618" on="0"/>
        <pt x="296" y="618" on="1"/>
        <pt x="276" y="618" on="0"/>
        <pt x="251" y="616" on="0"/>
        <pt x="240" y="613" on="1"/>
        <pt x="240" y="434" on="1"/>
        <pt x="329" y="434" on="1"/>
        <pt x="329" y="311" on="1"/>
        <pt x="240" y="311" on="1"/>
        <pt x="240" y="125" on="1"/>
        <pt x="266" y="122" on="0"/>
        <pt x="298" y="120" on="0"/>
      </contour>
    </TTGlyph>
    <TTGlyph name="Eth.sc" xMin="3" yMin="-9" xMax="580" yMax="584">
      <contour>
        <pt x="3" y="349" on="1"/>
        <pt x="75" y="349" on="1"/>
        <pt x="75" y="578" on="1"/>
        <pt x="135" y="581" on="0"/>
        <pt x="215" y="584" on="0"/>
        <pt x="249" y="584" on="1"/>
        <pt x="339" y="584" on="0"/>
        <pt x="465" y="552" on="0"/>
        <pt x="544" y="482" on="0"/>
        <pt x="580" y="369" on="0"/>
        <pt x="580" y="288" on="1"/>
        <pt x="580" y="206" on="0"/>
        <pt x="543" y="93" on="0"/>
        <pt x="462" y="22" on="0"/>
        <pt x="333" y="-9" on="0"/>
        <pt x="240" y="-9" on="1"/>
        <pt x="206" y="-9" on="0"/>
        <pt x="128" y="-5" on="0"/>
        <pt x="75" y="0" on="1"/>
        <pt x="75" y="234" on="1"/>
        <pt x="3" y="234" on="1"/>
      </contour>
      <contour>
        <pt x="294" y="114" on="1"/>
        <pt x="331" y="114" on="0"/>
        <pt x="380" y="128" on="0"/>
        <pt x="410" y="166" on="0"/>
        <pt x="422" y="235" on="0"/>
        <pt x="422" y="289" on="1"/>
        <pt x="422" y="342" on="0"/>
        <pt x="408" y="409" on="0"/>
        <pt x="375" y="448" on="0"/>
        <pt x="319" y="462" on="0"/>
        <pt x="277" y="462" on="1"/>
        <pt x="260" y="462" on="0"/>
        <pt x="238" y="461" on="0"/>
        <pt x="227" y="459" on="1"/>
        <pt x="227" y="349" on="1"/>
        <pt x="303" y="349" on="1"/>
        <pt x="303" y="234" on="1"/>
        <pt x="227" y="234" on="1"/>
        <pt x="227" y="118" on="1"/>
        <pt x="250" y="116" on="0"/>
        <pt x="280" y="114" on="0"/>
      </contour>
    </TTGlyph>
    <TTGlyph name="Etilde" xMin="56" yMin="0" xMax="514" yMax="952">
      <contour>
        <pt x="105" y="836" on="1"/>
        <pt x="134" y="894" on="0"/>
        <pt x="206" y="952" on="0"/>
        <pt x="242" y="952" on="1"/>
        <pt x="261" y="952" on="0"/>
        <pt x="298" y="940" on="0"/>
        <pt x="335" y="925" on="0"/>
        <pt x="372" y="913" on="0"/>
        <pt x="391" y="913" on="1"/>
        <pt x="410" y="913" on="0"/>
        <pt x="444" y="931" on="0"/>
        <pt x="464" y="952" on="1"/>
        <pt x="488" y="931" on="1"/>
        <pt x="461" y="871" on="0"/>
        <pt x="389" y="814" on="0"/>
        <pt x="353" y="814" on="1"/>
        <pt x="333" y="814" on="0"/>
        <pt x="296" y="826" on="0"/>
        <pt x="259" y="840" on="0"/>
        <pt x="223" y="852" on="0"/>
        <pt x="204" y="852" on="1"/>
        <pt x="184" y="852" on="0"/>
        <pt x="148" y="835" on="0"/>
        <pt x="128" y="815" on="1"/>
      </contour>
      <contour>
        <pt x="56" y="740" on="1"/>
        <pt x="505" y="740" on="1"/>
        <pt x="505" y="603" on="1"/>
        <pt x="220" y="603" on="1"/>
        <pt x="220" y="440" on="1"/>
        <pt x="474" y="440" on="1"/>
        <pt x="474" y="302" on="1"/>
        <pt x="220" y="302" on="1"/>
        <pt x="220" y="137" on="1"/>
        <pt x="514" y="137" on="1"/>
        <pt x="514" y="0" on="1"/>
        <pt x="56" y="0" on="1"/>
      </contour>
    </TTGlyph>
    <TTGlyph name="Etilde.sc" xMin="54" yMin="0" xMax="474" yMax="756">
      <contour>
        <pt x="97" y="651" on="1"/>
        <pt x="123" y="704" on="0"/>
        <pt x="192" y="755" on="0"/>
        <pt x="224" y="755" on="1"/>
        <pt x="242" y="755" on="0"/>
        <pt x="276" y="746" on="0"/>
        <pt x="310" y="735" on="0"/>
        <pt x="344" y="726" on="0"/>
        <pt x="362" y="726" on="1"/>
        <pt x="379" y="726" on="0"/>
        <pt x="411" y="738" on="0"/>
        <pt x="430" y="756" on="1"/>
        <pt x="451" y="738" on="1"/>
        <pt x="425" y="684" on="0"/>
        <pt x="358" y="634" on="0"/>
        <pt x="325" y="634" on="1"/>
        <pt x="307" y="634" on="0"/>
        <pt x="273" y="643" on="0"/>
        <pt x="239" y="654" on="0"/>
        <pt x="205" y="663" on="0"/>
        <pt x="187" y="663" on="1"/>
        <pt x="170" y="663" on="0"/>
        <pt x="137" y="651" on="0"/>
        <pt x="117" y="634" on="1"/>
      </contour>
      <contour>
        <pt x="54" y="577" on="1"/>
        <pt x="466" y="577" on="1"/>
        <pt x="466" y="454" on="1"/>
        <pt x="208" y="454" on="1"/>
        <pt x="208" y="349" on="1"/>
        <pt x="438" y="349" on="1"/>
        <pt x="438" y="229" on="1"/>
        <pt x="208" y="229" on="1"/>
        <pt x="208" y="124" on="1"/>
        <pt x="474" y="124" on="1"/>
        <pt x="474" y="0" on="1"/>
        <pt x="54" y="0" on="1"/>
      </contour>
    </TTGlyph>
    <TTGlyph name="Euro" xMin="27" yMin="-10" xMax="551" yMax="750">
      <contour>
        <pt x="27" y="499" on="1"/>
        <pt x="110" y="499" on="1"/>
        <pt x="161" y="750" on="0"/>
        <pt x="432" y="750" on="1"/>
        <pt x="467" y="750" on="0"/>
        <pt x="527" y="740" on="0"/>
        <pt x="551" y="732" on="1"/>
        <pt x="523" y="606" on="1"/>
        <pt x="500" y="609" on="0"/>
        <pt x="467" y="611" on="0"/>
        <pt x="451" y="611" on="1"/>
        <pt x="374" y="611" on="0"/>
        <pt x="291" y="561" on="0"/>
        <pt x="275" y="499" on="1"/>
        <pt x="483" y="499" on="1"/>
        <pt x="463" y="409" on="1"/>
        <pt x="264" y="409" on="1"/>
        <pt x="263" y="399" on="0"/>
        <pt x="263" y="380" on="0"/>
        <pt x="263" y="369" on="1"/>
        <pt x="263" y="358" on="0"/>
        <pt x="263" y="339" on="0"/>
        <pt x="264" y="330" on="1"/>
        <pt x="451" y="330" on="1"/>
        <pt x="431" y="240" on="1"/>
        <pt x="275" y="240" on="1"/>
        <pt x="291" y="178" on="0"/>
        <pt x="375" y="127" on="0"/>
        <pt x="452" y="127" on="1"/>
        <pt x="504" y="127" on="0"/>
        <pt x="548" y="141" on="1"/>
        <pt x="548" y="7" on="1"/>
        <pt x="500" y="-10" on="0"/>
        <pt x="430" y="-10" on="1"/>
        <pt x="163" y="-8" on="0"/>
        <pt x="110" y="240" on="1"/>
        <pt x="27" y="240" on="1"/>
        <pt x="27" y="330" on="1"/>
        <pt x="99" y="330" on="1"/>
        <pt x="98" y="340" on="0"/>
        <pt x="98" y="359" on="0"/>
        <pt x="98" y="370" on="1"/>
        <pt x="98" y="380" on="0"/>
        <pt x="98" y="399" on="0"/>
        <pt x="99" y="409" on="1"/>
        <pt x="27" y="409" on="1"/>
      </contour>
    </TTGlyph>
    <TTGlyph name="Euro.tab" xMin="24" yMin="-10" xMax="550" yMax="750">
      <contour>
        <pt x="24" y="499" on="1"/>
        <pt x="108" y="499" on="1"/>
        <pt x="161" y="750" on="0"/>
        <pt x="431" y="750" on="1"/>
        <pt x="466" y="750" on="0"/>
        <pt x="526" y="740" on="0"/>
        <pt x="550" y="732" on="1"/>
        <pt x="522" y="606" on="1"/>
        <pt x="499" y="609" on="0"/>
        <pt x="466" y="611" on="0"/>
        <pt x="450" y="611" on="1"/>
        <pt x="374" y="611" on="0"/>
        <pt x="291" y="561" on="0"/>
        <pt x="275" y="499" on="1"/>
        <pt x="482" y="499" on="1"/>
        <pt x="462" y="409" on="1"/>
        <pt x="260" y="409" on="1"/>
        <pt x="260" y="330" on="1"/>
        <pt x="450" y="330" on="1"/>
        <pt x="430" y="240" on="1"/>
        <pt x="274" y="240" on="1"/>
        <pt x="291" y="178" on="0"/>
        <pt x="374" y="127" on="0"/>
        <pt x="451" y="127" on="1"/>
        <pt x="503" y="127" on="0"/>
        <pt x="547" y="141" on="1"/>
        <pt x="547" y="7" on="1"/>
        <pt x="499" y="-10" on="0"/>
        <pt x="429" y="-10" on="1"/>
        <pt x="160" y="-8" on="0"/>
        <pt x="108" y="240" on="1"/>
        <pt x="24" y="240" on="1"/>
        <pt x="24" y="330" on="1"/>
        <pt x="96" y="330" on="1"/>
        <pt x="95" y="340" on="0"/>
        <pt x="95" y="359" on="0"/>
        <pt x="95" y="370" on="1"/>
        <pt x="95" y="380" on="0"/>
        <pt x="95" y="399" on="0"/>
        <pt x="96" y="409" on="1"/>
        <pt x="24" y="409" on="1"/>
      </contour>
    </TTGlyph>
    <TTGlyph name="F" xMin="56" yMin="0" xMax="493" yMax="740">
      <contour>
        <pt x="56" y="740" on="1"/>
        <pt x="493" y="740" on="1"/>
        <pt x="493" y="603" on="1"/>
        <pt x="220" y="603" on="1"/>
        <pt x="220" y="424" on="1"/>
        <pt x="465" y="424" on="1"/>
        <pt x="465" y="286" on="1"/>
        <pt x="220" y="286" on="1"/>
        <pt x="220" y="0" on="1"/>
        <pt x="56" y="0" on="1"/>
      </contour>
    </TTGlyph>
    <TTGlyph name="F.sc" xMin="54" yMin="0" xMax="456" yMax="577">
      <contour>
        <pt x="54" y="577" on="1"/>
        <pt x="456" y="577" on="1"/>
        <pt x="456" y="450" on="1"/>
        <pt x="208" y="450" on="1"/>
        <pt x="208" y="336" on="1"/>
        <pt x="430" y="336" on="1"/>
        <pt x="430" y="209" on="1"/>
        <pt x="208" y="209" on="1"/>
        <pt x="208" y="0" on="1"/>
        <pt x="54" y="0" on="1"/>
      </contour>
    </TTGlyph>
    <TTGlyph name="F_B.sc" xMin="55" yMin="-8" xMax="996" yMax="585">
      <contour>
        <pt x="55" y="577" on="1"/>
        <pt x="457" y="577" on="1"/>
        <pt x="457" y="450" on="1"/>
        <pt x="209" y="450" on="1"/>
        <pt x="209" y="336" on="1"/>
        <pt x="431" y="336" on="1"/>
        <pt x="431" y="209" on="1"/>
        <pt x="209" y="209" on="1"/>
        <pt x="209" y="0" on="1"/>
        <pt x="55" y="0" on="1"/>
      </contour>
      <contour>
        <pt x="710" y="-8" on="1"/>
        <pt x="665" y="-8" on="0"/>
        <pt x="571" y="-2" on="0"/>
        <pt x="529" y="4" on="1"/>
        <pt x="529" y="573" on="1"/>
        <pt x="587" y="579" on="0"/>
        <pt x="677" y="585" on="0"/>
        <pt x="717" y="585" on="1"/>
        <pt x="854" y="585" on="0"/>
        <pt x="979" y="506" on="0"/>
        <pt x="979" y="419" on="1"/>
        <pt x="979" y="322" on="0"/>
        <pt x="881" y="298" on="1"/>
        <pt x="881" y="295" on="1"/>
        <pt x="996" y="274" on="0"/>
        <pt x="996" y="160" on="1"/>
        <pt x="996" y="-8" on="0"/>
      </contour>
      <contour>
        <pt x="736" y="106" on="1"/>
        <pt x="790" y="106" on="0"/>
        <pt x="847" y="138" on="0"/>
        <pt x="847" y="170" on="1"/>
        <pt x="847" y="208" on="0"/>
        <pt x="795" y="238" on="0"/>
        <pt x="732" y="238" on="1"/>
        <pt x="671" y="238" on="1"/>
        <pt x="671" y="109" on="1"/>
        <pt x="689" y="106" on="0"/>
      </contour>
      <contour>
        <pt x="730" y="341" on="1"/>
        <pt x="784" y="341" on="0"/>
        <pt x="826" y="370" on="0"/>
        <pt x="826" y="409" on="1"/>
        <pt x="826" y="441" on="0"/>
        <pt x="783" y="471" on="0"/>
        <pt x="735" y="471" on="1"/>
        <pt x="721" y="471" on="0"/>
        <pt x="688" y="469" on="0"/>
        <pt x="671" y="467" on="1"/>
        <pt x="671" y="341" on="1"/>
      </contour>
    </TTGlyph>
    <TTGlyph name="F_F.sc" xMin="54" yMin="0" xMax="930" yMax="577">
      <contour>
        <pt x="54" y="577" on="1"/>
        <pt x="456" y="577" on="1"/>
        <pt x="456" y="450" on="1"/>
        <pt x="208" y="450" on="1"/>
        <pt x="208" y="336" on="1"/>
        <pt x="430" y="336" on="1"/>
        <pt x="430" y="209" on="1"/>
        <pt x="208" y="209" on="1"/>
        <pt x="208" y="0" on="1"/>
        <pt x="54" y="0" on="1"/>
      </contour>
      <contour>
        <pt x="528" y="577" on="1"/>
        <pt x="930" y="577" on="1"/>
        <pt x="930" y="450" on="1"/>
        <pt x="682" y="450" on="1"/>
        <pt x="682" y="336" on="1"/>
        <pt x="904" y="336" on="1"/>
        <pt x="904" y="209" on="1"/>
        <pt x="682" y="209" on="1"/>
        <pt x="682" y="0" on="1"/>
        <pt x="528" y="0" on="1"/>
      </contour>
    </TTGlyph>
    <TTGlyph name="F_F_B.sc" xMin="55" yMin="-8" xMax="1469" yMax="585">
      <contour>
        <pt x="55" y="577" on="1"/>
        <pt x="457" y="577" on="1"/>
        <pt x="457" y="450" on="1"/>
        <pt x="209" y="450" on="1"/>
        <pt x="209" y="336" on="1"/>
        <pt x="431" y="336" on="1"/>
        <pt x="431" y="209" on="1"/>
        <pt x="209" y="209" on="1"/>
        <pt x="209" y="0" on="1"/>
        <pt x="55" y="0" on="1"/>
      </contour>
      <contour>
        <pt x="528" y="577" on="1"/>
        <pt x="930" y="577" on="1"/>
        <pt x="930" y="450" on="1"/>
        <pt x="682" y="450" on="1"/>
        <pt x="682" y="336" on="1"/>
        <pt x="904" y="336" on="1"/>
        <pt x="904" y="209" on="1"/>
        <pt x="682" y="209" on="1"/>
        <pt x="682" y="0" on="1"/>
        <pt x="528" y="0" on="1"/>
      </contour>
      <contour>
        <pt x="1183" y="-8" on="1"/>
        <pt x="1138" y="-8" on="0"/>
        <pt x="1044" y="-2" on="0"/>
        <pt x="1002" y="4" on="1"/>
        <pt x="1002" y="573" on="1"/>
        <pt x="1060" y="579" on="0"/>
        <pt x="1150" y="585" on="0"/>
        <pt x="1190" y="585" on="1"/>
        <pt x="1327" y="585" on="0"/>
        <pt x="1452" y="506" on="0"/>
        <pt x="1452" y="419" on="1"/>
        <pt x="1452" y="322" on="0"/>
        <pt x="1354" y="298" on="1"/>
        <pt x="1354" y="295" on="1"/>
        <pt x="1469" y="274" on="0"/>
        <pt x="1469" y="160" on="1"/>
        <pt x="1469" y="-8" on="0"/>
      </contour>
      <contour>
        <pt x="1209" y="106" on="1"/>
        <pt x="1263" y="106" on="0"/>
        <pt x="1320" y="138" on="0"/>
        <pt x="1320" y="170" on="1"/>
        <pt x="1320" y="208" on="0"/>
        <pt x="1268" y="238" on="0"/>
        <pt x="1205" y="238" on="1"/>
        <pt x="1144" y="238" on="1"/>
        <pt x="1144" y="109" on="1"/>
        <pt x="1162" y="106" on="0"/>
      </contour>
      <contour>
        <pt x="1203" y="341" on="1"/>
        <pt x="1257" y="341" on="0"/>
        <pt x="1299" y="370" on="0"/>
        <pt x="1299" y="409" on="1"/>
        <pt x="1299" y="441" on="0"/>
        <pt x="1256" y="471" on="0"/>
        <pt x="1208" y="471" on="1"/>
        <pt x="1194" y="471" on="0"/>
        <pt x="1161" y="469" on="0"/>
        <pt x="1144" y="467" on="1"/>
        <pt x="1144" y="341" on="1"/>
      </contour>
    </TTGlyph>
    <TTGlyph name="F_F_H.sc" xMin="54" yMin="0" xMax="1516" yMax="577">
      <contour>
        <pt x="54" y="577" on="1"/>
        <pt x="456" y="577" on="1"/>
        <pt x="456" y="450" on="1"/>
        <pt x="208" y="450" on="1"/>
        <pt x="208" y="336" on="1"/>
        <pt x="430" y="336" on="1"/>
        <pt x="430" y="209" on="1"/>
        <pt x="208" y="209" on="1"/>
        <pt x="208" y="0" on="1"/>
        <pt x="54" y="0" on="1"/>
      </contour>
      <contour>
        <pt x="528" y="577" on="1"/>
        <pt x="930" y="577" on="1"/>
        <pt x="930" y="450" on="1"/>
        <pt x="682" y="450" on="1"/>
        <pt x="682" y="336" on="1"/>
        <pt x="904" y="336" on="1"/>
        <pt x="904" y="209" on="1"/>
        <pt x="682" y="209" on="1"/>
        <pt x="682" y="0" on="1"/>
        <pt x="528" y="0" on="1"/>
      </contour>
      <contour>
        <pt x="1001" y="577" on="1"/>
        <pt x="1155" y="577" on="1"/>
        <pt x="1155" y="359" on="1"/>
        <pt x="1361" y="359" on="1"/>
        <pt x="1361" y="577" on="1"/>
        <pt x="1516" y="577" on="1"/>
        <pt x="1516" y="0" on="1"/>
        <pt x="1361" y="0" on="1"/>
        <pt x="1361" y="231" on="1"/>
        <pt x="1155" y="231" on="1"/>
        <pt x="1155" y="0" on="1"/>
        <pt x="1001" y="0" on="1"/>
      </contour>
    </TTGlyph>
    <TTGlyph name="F_F_I.sc" xMin="54" yMin="0" xMax="1155" yMax="577">
      <contour>
        <pt x="54" y="577" on="1"/>
        <pt x="456" y="577" on="1"/>
        <pt x="456" y="450" on="1"/>
        <pt x="208" y="450" on="1"/>
        <pt x="208" y="336" on="1"/>
        <pt x="430" y="336" on="1"/>
        <pt x="430" y="209" on="1"/>
        <pt x="208" y="209" on="1"/>
        <pt x="208" y="0" on="1"/>
        <pt x="54" y="0" on="1"/>
      </contour>
      <contour>
        <pt x="528" y="577" on="1"/>
        <pt x="930" y="577" on="1"/>
        <pt x="930" y="450" on="1"/>
        <pt x="682" y="450" on="1"/>
        <pt x="682" y="336" on="1"/>
        <pt x="904" y="336" on="1"/>
        <pt x="904" y="209" on="1"/>
        <pt x="682" y="209" on="1"/>
        <pt x="682" y="0" on="1"/>
        <pt x="528" y="0" on="1"/>
      </contour>
      <contour>
        <pt x="1001" y="577" on="1"/>
        <pt x="1155" y="577" on="1"/>
        <pt x="1155" y="0" on="1"/>
        <pt x="1001" y="0" on="1"/>
      </contour>
    </TTGlyph>
    <TTGlyph name="F_F_J.sc" xMin="55" yMin="-167" xMax="1167" yMax="577">
      <contour>
        <pt x="55" y="577" on="1"/>
        <pt x="457" y="577" on="1"/>
        <pt x="457" y="450" on="1"/>
        <pt x="209" y="450" on="1"/>
        <pt x="209" y="336" on="1"/>
        <pt x="431" y="336" on="1"/>
        <pt x="431" y="209" on="1"/>
        <pt x="209" y="209" on="1"/>
        <pt x="209" y="0" on="1"/>
        <pt x="55" y="0" on="1"/>
      </contour>
      <contour>
        <pt x="528" y="577" on="1"/>
        <pt x="930" y="577" on="1"/>
        <pt x="930" y="450" on="1"/>
        <pt x="682" y="450" on="1"/>
        <pt x="682" y="336" on="1"/>
        <pt x="904" y="336" on="1"/>
        <pt x="904" y="209" on="1"/>
        <pt x="682" y="209" on="1"/>
        <pt x="682" y="0" on="1"/>
        <pt x="528" y="0" on="1"/>
      </contour>
      <contour>
        <pt x="944" y="-125" on="1"/>
        <pt x="964" y="-86" on="0"/>
        <pt x="990" y="-20" on="0"/>
        <pt x="1006" y="44" on="0"/>
        <pt x="1012" y="113" on="0"/>
        <pt x="1012" y="155" on="1"/>
        <pt x="1012" y="577" on="1"/>
        <pt x="1167" y="577" on="1"/>
        <pt x="1167" y="141" on="1"/>
        <pt x="1167" y="100" on="0"/>
        <pt x="1154" y="27" on="0"/>
        <pt x="1125" y="-46" on="0"/>
        <pt x="1077" y="-122" on="0"/>
        <pt x="1042" y="-167" on="1"/>
      </contour>
    </TTGlyph>
    <TTGlyph name="F_F_K.sc" xMin="54" yMin="0" xMax="1524" yMax="577">
      <contour>
        <pt x="54" y="577" on="1"/>
        <pt x="456" y="577" on="1"/>
        <pt x="456" y="450" on="1"/>
        <pt x="208" y="450" on="1"/>
        <pt x="208" y="336" on="1"/>
        <pt x="430" y="336" on="1"/>
        <pt x="430" y="209" on="1"/>
        <pt x="208" y="209" on="1"/>
        <pt x="208" y="0" on="1"/>
        <pt x="54" y="0" on="1"/>
      </contour>
      <contour>
        <pt x="528" y="577" on="1"/>
        <pt x="930" y="577" on="1"/>
        <pt x="930" y="450" on="1"/>
        <pt x="682" y="450" on="1"/>
        <pt x="682" y="336" on="1"/>
        <pt x="904" y="336" on="1"/>
        <pt x="904" y="209" on="1"/>
        <pt x="682" y="209" on="1"/>
        <pt x="682" y="0" on="1"/>
        <pt x="528" y="0" on="1"/>
      </contour>
      <contour>
        <pt x="1001" y="577" on="1"/>
        <pt x="1155" y="577" on="1"/>
        <pt x="1155" y="358" on="1"/>
        <pt x="1221" y="358" on="1"/>
        <pt x="1336" y="577" on="1"/>
        <pt x="1506" y="577" on="1"/>
        <pt x="1366" y="319" on="1"/>
        <pt x="1308" y="297" on="1"/>
        <pt x="1308" y="291" on="1"/>
        <pt x="1367" y="269" on="1"/>
        <pt x="1524" y="0" on="1"/>
        <pt x="1353" y="0" on="1"/>
        <pt x="1216" y="231" on="1"/>
        <pt x="1155" y="231" on="1"/>
        <pt x="1155" y="0" on="1"/>
        <pt x="1001" y="0" on="1"/>
      </contour>
    </TTGlyph>
    <TTGlyph name="F_F_L.sc" xMin="54" yMin="0" xMax="1364" yMax="577">
      <contour>
        <pt x="1001" y="577" on="1"/>
        <pt x="1155" y="577" on="1"/>
        <pt x="1155" y="127" on="1"/>
        <pt x="1364" y="127" on="1"/>
        <pt x="1364" y="0" on="1"/>
        <pt x="1001" y="0" on="1"/>
      </contour>
      <contour>
        <pt x="54" y="577" on="1"/>
        <pt x="456" y="577" on="1"/>
        <pt x="456" y="450" on="1"/>
        <pt x="208" y="450" on="1"/>
        <pt x="208" y="336" on="1"/>
        <pt x="430" y="336" on="1"/>
        <pt x="430" y="209" on="1"/>
        <pt x="208" y="209" on="1"/>
        <pt x="208" y="0" on="1"/>
        <pt x="54" y="0" on="1"/>
      </contour>
      <contour>
        <pt x="528" y="577" on="1"/>
        <pt x="930" y="577" on="1"/>
        <pt x="930" y="450" on="1"/>
        <pt x="682" y="450" on="1"/>
        <pt x="682" y="336" on="1"/>
        <pt x="904" y="336" on="1"/>
        <pt x="904" y="209" on="1"/>
        <pt x="682" y="209" on="1"/>
        <pt x="682" y="0" on="1"/>
        <pt x="528" y="0" on="1"/>
      </contour>
    </TTGlyph>
    <TTGlyph name="F_F_T.sc" xMin="54" yMin="0" xMax="1400" yMax="577">
      <contour>
        <pt x="1093" y="447" on="1"/>
        <pt x="940" y="447" on="1"/>
        <pt x="940" y="577" on="1"/>
        <pt x="1400" y="577" on="1"/>
        <pt x="1400" y="447" on="1"/>
        <pt x="1247" y="447" on="1"/>
        <pt x="1247" y="0" on="1"/>
        <pt x="1093" y="0" on="1"/>
      </contour>
      <contour>
        <pt x="54" y="577" on="1"/>
        <pt x="456" y="577" on="1"/>
        <pt x="456" y="450" on="1"/>
        <pt x="208" y="450" on="1"/>
        <pt x="208" y="336" on="1"/>
        <pt x="430" y="336" on="1"/>
        <pt x="430" y="209" on="1"/>
        <pt x="208" y="209" on="1"/>
        <pt x="208" y="0" on="1"/>
        <pt x="54" y="0" on="1"/>
      </contour>
      <contour>
        <pt x="528" y="577" on="1"/>
        <pt x="930" y="577" on="1"/>
        <pt x="930" y="450" on="1"/>
        <pt x="682" y="450" on="1"/>
        <pt x="682" y="336" on="1"/>
        <pt x="904" y="336" on="1"/>
        <pt x="904" y="209" on="1"/>
        <pt x="682" y="209" on="1"/>
        <pt x="682" y="0" on="1"/>
        <pt x="528" y="0" on="1"/>
      </contour>
    </TTGlyph>
    <TTGlyph name="F_H.sc" xMin="54" yMin="0" xMax="1043" yMax="577">
      <contour>
        <pt x="54" y="577" on="1"/>
        <pt x="456" y="577" on="1"/>
        <pt x="456" y="450" on="1"/>
        <pt x="208" y="450" on="1"/>
        <pt x="208" y="336" on="1"/>
        <pt x="430" y="336" on="1"/>
        <pt x="430" y="209" on="1"/>
        <pt x="208" y="209" on="1"/>
        <pt x="208" y="0" on="1"/>
        <pt x="54" y="0" on="1"/>
      </contour>
      <contour>
        <pt x="528" y="577" on="1"/>
        <pt x="682" y="577" on="1"/>
        <pt x="682" y="359" on="1"/>
        <pt x="888" y="359" on="1"/>
        <pt x="888" y="577" on="1"/>
        <pt x="1043" y="577" on="1"/>
        <pt x="1043" y="0" on="1"/>
        <pt x="888" y="0" on="1"/>
        <pt x="888" y="231" on="1"/>
        <pt x="682" y="231" on="1"/>
        <pt x="682" y="0" on="1"/>
        <pt x="528" y="0" on="1"/>
      </contour>
    </TTGlyph>
    <TTGlyph name="F_I.sc" xMin="54" yMin="0" xMax="682" yMax="577">
      <contour>
        <pt x="54" y="577" on="1"/>
        <pt x="456" y="577" on="1"/>
        <pt x="456" y="450" on="1"/>
        <pt x="208" y="450" on="1"/>
        <pt x="208" y="336" on="1"/>
        <pt x="430" y="336" on="1"/>
        <pt x="430" y="209" on="1"/>
        <pt x="208" y="209" on="1"/>
        <pt x="208" y="0" on="1"/>
        <pt x="54" y="0" on="1"/>
      </contour>
      <contour>
        <pt x="528" y="577" on="1"/>
        <pt x="682" y="577" on="1"/>
        <pt x="682" y="0" on="1"/>
        <pt x="528" y="0" on="1"/>
      </contour>
    </TTGlyph>
    <TTGlyph name="F_J.sc" xMin="55" yMin="-167" xMax="693" yMax="577">
      <contour>
        <pt x="55" y="577" on="1"/>
        <pt x="457" y="577" on="1"/>
        <pt x="457" y="450" on="1"/>
        <pt x="209" y="450" on="1"/>
        <pt x="209" y="336" on="1"/>
        <pt x="431" y="336" on="1"/>
        <pt x="431" y="209" on="1"/>
        <pt x="209" y="209" on="1"/>
        <pt x="209" y="0" on="1"/>
        <pt x="55" y="0" on="1"/>
      </contour>
      <contour>
        <pt x="470" y="-125" on="1"/>
        <pt x="490" y="-86" on="0"/>
        <pt x="516" y="-20" on="0"/>
        <pt x="532" y="44" on="0"/>
        <pt x="538" y="113" on="0"/>
        <pt x="538" y="155" on="1"/>
        <pt x="538" y="577" on="1"/>
        <pt x="693" y="577" on="1"/>
        <pt x="693" y="141" on="1"/>
        <pt x="693" y="100" on="0"/>
        <pt x="680" y="27" on="0"/>
        <pt x="651" y="-46" on="0"/>
        <pt x="603" y="-122" on="0"/>
        <pt x="568" y="-167" on="1"/>
      </contour>
    </TTGlyph>
    <TTGlyph name="F_K.sc" xMin="54" yMin="0" xMax="1051" yMax="577">
      <contour>
        <pt x="54" y="577" on="1"/>
        <pt x="456" y="577" on="1"/>
        <pt x="456" y="450" on="1"/>
        <pt x="208" y="450" on="1"/>
        <pt x="208" y="336" on="1"/>
        <pt x="430" y="336" on="1"/>
        <pt x="430" y="209" on="1"/>
        <pt x="208" y="209" on="1"/>
        <pt x="208" y="0" on="1"/>
        <pt x="54" y="0" on="1"/>
      </contour>
      <contour>
        <pt x="528" y="577" on="1"/>
        <pt x="682" y="577" on="1"/>
        <pt x="682" y="358" on="1"/>
        <pt x="748" y="358" on="1"/>
        <pt x="863" y="577" on="1"/>
        <pt x="1033" y="577" on="1"/>
        <pt x="893" y="319" on="1"/>
        <pt x="835" y="297" on="1"/>
        <pt x="835" y="291" on="1"/>
        <pt x="894" y="269" on="1"/>
        <pt x="1051" y="0" on="1"/>
        <pt x="880" y="0" on="1"/>
        <pt x="743" y="231" on="1"/>
        <pt x="682" y="231" on="1"/>
        <pt x="682" y="0" on="1"/>
        <pt x="528" y="0" on="1"/>
      </contour>
    </TTGlyph>
    <TTGlyph name="F_L.sc" xMin="54" yMin="0" xMax="891" yMax="577">
      <contour>
        <pt x="528" y="577" on="1"/>
        <pt x="682" y="577" on="1"/>
        <pt x="682" y="127" on="1"/>
        <pt x="891" y="127" on="1"/>
        <pt x="891" y="0" on="1"/>
        <pt x="528" y="0" on="1"/>
      </contour>
      <contour>
        <pt x="54" y="577" on="1"/>
        <pt x="456" y="577" on="1"/>
        <pt x="456" y="450" on="1"/>
        <pt x="208" y="450" on="1"/>
        <pt x="208" y="336" on="1"/>
        <pt x="430" y="336" on="1"/>
        <pt x="430" y="209" on="1"/>
        <pt x="208" y="209" on="1"/>
        <pt x="208" y="0" on="1"/>
        <pt x="54" y="0" on="1"/>
      </contour>
    </TTGlyph>
    <TTGlyph name="F_T.sc" xMin="54" yMin="0" xMax="927" yMax="577">
      <contour>
        <pt x="620" y="447" on="1"/>
        <pt x="467" y="447" on="1"/>
        <pt x="467" y="577" on="1"/>
        <pt x="927" y="577" on="1"/>
        <pt x="927" y="447" on="1"/>
        <pt x="774" y="447" on="1"/>
        <pt x="774" y="0" on="1"/>
        <pt x="620" y="0" on="1"/>
      </contour>
      <contour>
        <pt x="54" y="577" on="1"/>
        <pt x="456" y="577" on="1"/>
        <pt x="456" y="450" on="1"/>
        <pt x="208" y="450" on="1"/>
        <pt x="208" y="336" on="1"/>
        <pt x="430" y="336" on="1"/>
        <pt x="430" y="209" on="1"/>
        <pt x="208" y="209" on="1"/>
        <pt x="208" y="0" on="1"/>
        <pt x="54" y="0" on="1"/>
      </contour>
    </TTGlyph>
    <TTGlyph name="G" xMin="30" yMin="-9" xMax="546" yMax="749">
      <contour>
        <pt x="334" y="-9" on="1"/>
        <pt x="179" y="-9" on="0"/>
        <pt x="30" y="178" on="0"/>
        <pt x="30" y="370" on="1"/>
        <pt x="30" y="749" on="0"/>
        <pt x="373" y="749" on="1"/>
        <pt x="447" y="749" on="0"/>
        <pt x="536" y="728" on="1"/>
        <pt x="536" y="597" on="1"/>
        <pt x="488" y="606" on="0"/>
        <pt x="418" y="615" on="0"/>
        <pt x="389" y="615" on="1"/>
        <pt x="335" y="615" on="0"/>
        <pt x="262" y="590" on="0"/>
        <pt x="217" y="533" on="0"/>
        <pt x="198" y="438" on="0"/>
        <pt x="198" y="369" on="1"/>
        <pt x="198" y="299" on="0"/>
        <pt x="214" y="205" on="0"/>
        <pt x="251" y="149" on="0"/>
        <pt x="312" y="126" on="0"/>
        <pt x="357" y="126" on="1"/>
        <pt x="368" y="126" on="0"/>
        <pt x="388" y="126" on="0"/>
        <pt x="399" y="127" on="1"/>
        <pt x="399" y="376" on="1"/>
        <pt x="546" y="376" on="1"/>
        <pt x="546" y="8" on="1"/>
        <pt x="475" y="-2" on="0"/>
        <pt x="377" y="-9" on="0"/>
      </contour>
    </TTGlyph>
    <TTGlyph name="G.sc" xMin="29" yMin="-7" xMax="501" yMax="585">
      <contour>
        <pt x="306" y="-7" on="1"/>
        <pt x="29" y="-7" on="0"/>
        <pt x="29" y="289" on="1"/>
        <pt x="29" y="436" on="0"/>
        <pt x="184" y="585" on="0"/>
        <pt x="341" y="585" on="1"/>
        <pt x="376" y="585" on="0"/>
        <pt x="452" y="576" on="0"/>
        <pt x="492" y="566" on="1"/>
        <pt x="492" y="445" on="1"/>
        <pt x="447" y="453" on="0"/>
        <pt x="383" y="460" on="0"/>
        <pt x="357" y="460" on="1"/>
        <pt x="309" y="460" on="0"/>
        <pt x="244" y="443" on="0"/>
        <pt x="205" y="403" on="0"/>
        <pt x="188" y="337" on="0"/>
        <pt x="188" y="288" on="1"/>
        <pt x="188" y="237" on="0"/>
        <pt x="201" y="172" on="0"/>
        <pt x="233" y="134" on="0"/>
        <pt x="286" y="119" on="0"/>
        <pt x="326" y="119" on="1"/>
        <pt x="327" y="119" on="0"/>
        <pt x="337" y="119" on="0"/>
        <pt x="349" y="119" on="0"/>
        <pt x="360" y="120" on="0"/>
        <pt x="362" y="120" on="1"/>
        <pt x="362" y="293" on="1"/>
        <pt x="501" y="293" on="1"/>
        <pt x="501" y="9" on="1"/>
        <pt x="437" y="0" on="0"/>
        <pt x="346" y="-7" on="0"/>
      </contour>
    </TTGlyph>
    <TTGlyph name="Gacute" xMin="30" yMin="-9" xMax="546" yMax="973">
      <contour>
        <pt x="267" y="798" on="1"/>
        <pt x="333" y="973" on="1"/>
        <pt x="497" y="973" on="1"/>
        <pt x="382" y="789" on="1"/>
      </contour>
      <contour>
        <pt x="334" y="-9" on="1"/>
        <pt x="179" y="-9" on="0"/>
        <pt x="30" y="178" on="0"/>
        <pt x="30" y="370" on="1"/>
        <pt x="30" y="749" on="0"/>
        <pt x="373" y="749" on="1"/>
        <pt x="447" y="749" on="0"/>
        <pt x="536" y="728" on="1"/>
        <pt x="536" y="597" on="1"/>
        <pt x="488" y="606" on="0"/>
        <pt x="418" y="615" on="0"/>
        <pt x="389" y="615" on="1"/>
        <pt x="335" y="615" on="0"/>
        <pt x="262" y="590" on="0"/>
        <pt x="217" y="533" on="0"/>
        <pt x="198" y="438" on="0"/>
        <pt x="198" y="369" on="1"/>
        <pt x="198" y="299" on="0"/>
        <pt x="214" y="205" on="0"/>
        <pt x="251" y="149" on="0"/>
        <pt x="312" y="126" on="0"/>
        <pt x="357" y="126" on="1"/>
        <pt x="368" y="126" on="0"/>
        <pt x="388" y="126" on="0"/>
        <pt x="399" y="127" on="1"/>
        <pt x="399" y="376" on="1"/>
        <pt x="546" y="376" on="1"/>
        <pt x="546" y="8" on="1"/>
        <pt x="475" y="-2" on="0"/>
        <pt x="377" y="-9" on="0"/>
      </contour>
    </TTGlyph>
    <TTGlyph name="Gacute.sc" xMin="29" yMin="-7" xMax="501" yMax="772">
      <contour>
        <pt x="306" y="-7" on="1"/>
        <pt x="29" y="-7" on="0"/>
        <pt x="29" y="289" on="1"/>
        <pt x="29" y="436" on="0"/>
        <pt x="184" y="585" on="0"/>
        <pt x="341" y="585" on="1"/>
        <pt x="376" y="585" on="0"/>
        <pt x="452" y="576" on="0"/>
        <pt x="492" y="566" on="1"/>
        <pt x="492" y="445" on="1"/>
        <pt x="447" y="453" on="0"/>
        <pt x="383" y="460" on="0"/>
        <pt x="357" y="460" on="1"/>
        <pt x="309" y="460" on="0"/>
        <pt x="244" y="443" on="0"/>
        <pt x="205" y="403" on="0"/>
        <pt x="188" y="337" on="0"/>
        <pt x="188" y="288" on="1"/>
        <pt x="188" y="237" on="0"/>
        <pt x="201" y="172" on="0"/>
        <pt x="233" y="134" on="0"/>
        <pt x="286" y="119" on="0"/>
        <pt x="326" y="119" on="1"/>
        <pt x="327" y="119" on="0"/>
        <pt x="337" y="119" on="0"/>
        <pt x="349" y="119" on="0"/>
        <pt x="360" y="120" on="0"/>
        <pt x="362" y="120" on="1"/>
        <pt x="362" y="293" on="1"/>
        <pt x="501" y="293" on="1"/>
        <pt x="501" y="9" on="1"/>
        <pt x="437" y="0" on="0"/>
        <pt x="346" y="-7" on="0"/>
      </contour>
      <contour>
        <pt x="242" y="625" on="1"/>
        <pt x="301" y="772" on="1"/>
        <pt x="454" y="772" on="1"/>
        <pt x="349" y="617" on="1"/>
      </contour>
    </TTGlyph>
    <TTGlyph name="Gbreve" xMin="30" yMin="-9" xMax="546" yMax="970">
      <contour>
        <pt x="331" y="795" on="1"/>
        <pt x="243" y="795" on="0"/>
        <pt x="153" y="888" on="0"/>
        <pt x="153" y="970" on="1"/>
        <pt x="262" y="970" on="1"/>
        <pt x="262" y="916" on="0"/>
        <pt x="292" y="871" on="0"/>
        <pt x="331" y="871" on="1"/>
        <pt x="369" y="871" on="0"/>
        <pt x="400" y="916" on="0"/>
        <pt x="400" y="970" on="1"/>
        <pt x="510" y="970" on="1"/>
        <pt x="510" y="889" on="0"/>
        <pt x="418" y="795" on="0"/>
      </contour>
      <contour>
        <pt x="334" y="-9" on="1"/>
        <pt x="179" y="-9" on="0"/>
        <pt x="30" y="178" on="0"/>
        <pt x="30" y="370" on="1"/>
        <pt x="30" y="749" on="0"/>
        <pt x="373" y="749" on="1"/>
        <pt x="447" y="749" on="0"/>
        <pt x="536" y="728" on="1"/>
        <pt x="536" y="597" on="1"/>
        <pt x="488" y="606" on="0"/>
        <pt x="418" y="615" on="0"/>
        <pt x="389" y="615" on="1"/>
        <pt x="335" y="615" on="0"/>
        <pt x="262" y="590" on="0"/>
        <pt x="217" y="533" on="0"/>
        <pt x="198" y="438" on="0"/>
        <pt x="198" y="369" on="1"/>
        <pt x="198" y="299" on="0"/>
        <pt x="214" y="205" on="0"/>
        <pt x="251" y="149" on="0"/>
        <pt x="312" y="126" on="0"/>
        <pt x="357" y="126" on="1"/>
        <pt x="368" y="126" on="0"/>
        <pt x="388" y="126" on="0"/>
        <pt x="399" y="127" on="1"/>
        <pt x="399" y="376" on="1"/>
        <pt x="546" y="376" on="1"/>
        <pt x="546" y="8" on="1"/>
        <pt x="475" y="-2" on="0"/>
        <pt x="377" y="-9" on="0"/>
      </contour>
    </TTGlyph>
    <TTGlyph name="Gbreve.sc" xMin="29" yMin="-7" xMax="501" yMax="763">
      <contour>
        <pt x="306" y="-7" on="1"/>
        <pt x="29" y="-7" on="0"/>
        <pt x="29" y="289" on="1"/>
        <pt x="29" y="436" on="0"/>
        <pt x="184" y="585" on="0"/>
        <pt x="341" y="585" on="1"/>
        <pt x="376" y="585" on="0"/>
        <pt x="452" y="576" on="0"/>
        <pt x="492" y="566" on="1"/>
        <pt x="492" y="445" on="1"/>
        <pt x="447" y="453" on="0"/>
        <pt x="383" y="460" on="0"/>
        <pt x="357" y="460" on="1"/>
        <pt x="309" y="460" on="0"/>
        <pt x="244" y="443" on="0"/>
        <pt x="205" y="403" on="0"/>
        <pt x="188" y="337" on="0"/>
        <pt x="188" y="288" on="1"/>
        <pt x="188" y="237" on="0"/>
        <pt x="201" y="172" on="0"/>
        <pt x="233" y="134" on="0"/>
        <pt x="286" y="119" on="0"/>
        <pt x="326" y="119" on="1"/>
        <pt x="327" y="119" on="0"/>
        <pt x="337" y="119" on="0"/>
        <pt x="349" y="119" on="0"/>
        <pt x="360" y="120" on="0"/>
        <pt x="362" y="120" on="1"/>
        <pt x="362" y="293" on="1"/>
        <pt x="501" y="293" on="1"/>
        <pt x="501" y="9" on="1"/>
        <pt x="437" y="0" on="0"/>
        <pt x="346" y="-7" on="0"/>
      </contour>
      <contour>
        <pt x="303" y="617" on="1"/>
        <pt x="221" y="617" on="0"/>
        <pt x="138" y="695" on="0"/>
        <pt x="138" y="763" on="1"/>
        <pt x="240" y="763" on="1"/>
        <pt x="240" y="718" on="0"/>
        <pt x="266" y="685" on="0"/>
        <pt x="303" y="685" on="1"/>
        <pt x="338" y="685" on="0"/>
        <pt x="364" y="718" on="0"/>
        <pt x="364" y="763" on="1"/>
        <pt x="468" y="763" on="1"/>
        <pt x="468" y="695" on="0"/>
        <pt x="384" y="617" on="0"/>
      </contour>
    </TTGlyph>
    <TTGlyph name="Gcircumflex" xMin="30" yMin="-9" xMax="546" yMax="972">
      <contour>
        <pt x="334" y="-9" on="1"/>
        <pt x="179" y="-9" on="0"/>
        <pt x="30" y="178" on="0"/>
        <pt x="30" y="370" on="1"/>
        <pt x="30" y="749" on="0"/>
        <pt x="373" y="749" on="1"/>
        <pt x="447" y="749" on="0"/>
        <pt x="536" y="728" on="1"/>
        <pt x="536" y="597" on="1"/>
        <pt x="488" y="606" on="0"/>
        <pt x="418" y="615" on="0"/>
        <pt x="389" y="615" on="1"/>
        <pt x="335" y="615" on="0"/>
        <pt x="262" y="590" on="0"/>
        <pt x="217" y="533" on="0"/>
        <pt x="198" y="438" on="0"/>
        <pt x="198" y="369" on="1"/>
        <pt x="198" y="299" on="0"/>
        <pt x="214" y="205" on="0"/>
        <pt x="251" y="149" on="0"/>
        <pt x="312" y="126" on="0"/>
        <pt x="357" y="126" on="1"/>
        <pt x="368" y="126" on="0"/>
        <pt x="388" y="126" on="0"/>
        <pt x="399" y="127" on="1"/>
        <pt x="399" y="376" on="1"/>
        <pt x="546" y="376" on="1"/>
        <pt x="546" y="8" on="1"/>
        <pt x="475" y="-2" on="0"/>
        <pt x="377" y="-9" on="0"/>
      </contour>
      <contour>
        <pt x="169" y="900" on="1"/>
        <pt x="331" y="972" on="1"/>
        <pt x="492" y="900" on="1"/>
        <pt x="492" y="792" on="1"/>
        <pt x="330" y="864" on="1"/>
        <pt x="169" y="792" on="1"/>
      </contour>
    </TTGlyph>
    <TTGlyph name="Gcircumflex.sc" xMin="29" yMin="-7" xMax="501" yMax="768">
      <contour>
        <pt x="306" y="-7" on="1"/>
        <pt x="29" y="-7" on="0"/>
        <pt x="29" y="289" on="1"/>
        <pt x="29" y="436" on="0"/>
        <pt x="184" y="585" on="0"/>
        <pt x="341" y="585" on="1"/>
        <pt x="376" y="585" on="0"/>
        <pt x="452" y="576" on="0"/>
        <pt x="492" y="566" on="1"/>
        <pt x="492" y="445" on="1"/>
        <pt x="447" y="453" on="0"/>
        <pt x="383" y="460" on="0"/>
        <pt x="357" y="460" on="1"/>
        <pt x="309" y="460" on="0"/>
        <pt x="244" y="443" on="0"/>
        <pt x="205" y="403" on="0"/>
        <pt x="188" y="337" on="0"/>
        <pt x="188" y="288" on="1"/>
        <pt x="188" y="237" on="0"/>
        <pt x="201" y="172" on="0"/>
        <pt x="233" y="134" on="0"/>
        <pt x="286" y="119" on="0"/>
        <pt x="326" y="119" on="1"/>
        <pt x="327" y="119" on="0"/>
        <pt x="337" y="119" on="0"/>
        <pt x="349" y="119" on="0"/>
        <pt x="360" y="120" on="0"/>
        <pt x="362" y="120" on="1"/>
        <pt x="362" y="293" on="1"/>
        <pt x="501" y="293" on="1"/>
        <pt x="501" y="9" on="1"/>
        <pt x="437" y="0" on="0"/>
        <pt x="346" y="-7" on="0"/>
      </contour>
      <contour>
        <pt x="153" y="712" on="1"/>
        <pt x="302" y="768" on="1"/>
        <pt x="450" y="712" on="1"/>
        <pt x="450" y="614" on="1"/>
        <pt x="302" y="670" on="1"/>
        <pt x="153" y="614" on="1"/>
      </contour>
    </TTGlyph>
    <TTGlyph name="Gcommaaccent" xMin="30" yMin="-220" xMax="546" yMax="749">
      <contour>
        <pt x="260" y="-69" on="1"/>
        <pt x="424" y="-69" on="1"/>
        <pt x="338" y="-220" on="1"/>
        <pt x="218" y="-220" on="1"/>
      </contour>
      <contour>
        <pt x="334" y="-9" on="1"/>
        <pt x="179" y="-9" on="0"/>
        <pt x="30" y="178" on="0"/>
        <pt x="30" y="370" on="1"/>
        <pt x="30" y="749" on="0"/>
        <pt x="373" y="749" on="1"/>
        <pt x="447" y="749" on="0"/>
        <pt x="536" y="728" on="1"/>
        <pt x="536" y="597" on="1"/>
        <pt x="488" y="606" on="0"/>
        <pt x="418" y="615" on="0"/>
        <pt x="389" y="615" on="1"/>
        <pt x="335" y="615" on="0"/>
        <pt x="262" y="590" on="0"/>
        <pt x="217" y="533" on="0"/>
        <pt x="198" y="438" on="0"/>
        <pt x="198" y="369" on="1"/>
        <pt x="198" y="299" on="0"/>
        <pt x="214" y="205" on="0"/>
        <pt x="251" y="149" on="0"/>
        <pt x="312" y="126" on="0"/>
        <pt x="357" y="126" on="1"/>
        <pt x="368" y="126" on="0"/>
        <pt x="388" y="126" on="0"/>
        <pt x="399" y="127" on="1"/>
        <pt x="399" y="376" on="1"/>
        <pt x="546" y="376" on="1"/>
        <pt x="546" y="8" on="1"/>
        <pt x="475" y="-2" on="0"/>
        <pt x="377" y="-9" on="0"/>
      </contour>
    </TTGlyph>
    <TTGlyph name="Gcommaaccent.sc" xMin="29" yMin="-172" xMax="501" yMax="585">
      <contour>
        <pt x="306" y="-7" on="1"/>
        <pt x="29" y="-7" on="0"/>
        <pt x="29" y="289" on="1"/>
        <pt x="29" y="436" on="0"/>
        <pt x="184" y="585" on="0"/>
        <pt x="341" y="585" on="1"/>
        <pt x="376" y="585" on="0"/>
        <pt x="452" y="576" on="0"/>
        <pt x="492" y="566" on="1"/>
        <pt x="492" y="445" on="1"/>
        <pt x="447" y="453" on="0"/>
        <pt x="383" y="460" on="0"/>
        <pt x="357" y="460" on="1"/>
        <pt x="309" y="460" on="0"/>
        <pt x="244" y="443" on="0"/>
        <pt x="205" y="403" on="0"/>
        <pt x="188" y="337" on="0"/>
        <pt x="188" y="288" on="1"/>
        <pt x="188" y="237" on="0"/>
        <pt x="201" y="172" on="0"/>
        <pt x="233" y="134" on="0"/>
        <pt x="286" y="119" on="0"/>
        <pt x="326" y="119" on="1"/>
        <pt x="327" y="119" on="0"/>
        <pt x="337" y="119" on="0"/>
        <pt x="349" y="119" on="0"/>
        <pt x="360" y="120" on="0"/>
        <pt x="362" y="120" on="1"/>
        <pt x="362" y="293" on="1"/>
        <pt x="501" y="293" on="1"/>
        <pt x="501" y="9" on="1"/>
        <pt x="437" y="0" on="0"/>
        <pt x="346" y="-7" on="0"/>
      </contour>
      <contour>
        <pt x="234" y="-54" on="1"/>
        <pt x="389" y="-54" on="1"/>
        <pt x="310" y="-172" on="1"/>
        <pt x="197" y="-172" on="1"/>
      </contour>
    </TTGlyph>
    <TTGlyph name="Gdotaccent" xMin="30" yMin="-9" xMax="546" yMax="970">
      <contour>
        <pt x="330" y="798" on="1"/>
        <pt x="283" y="798" on="0"/>
        <pt x="242" y="839" on="0"/>
        <pt x="242" y="885" on="1"/>
        <pt x="242" y="930" on="0"/>
        <pt x="283" y="970" on="0"/>
        <pt x="330" y="970" on="1"/>
        <pt x="376" y="970" on="0"/>
        <pt x="419" y="930" on="0"/>
        <pt x="419" y="885" on="1"/>
        <pt x="419" y="838" on="0"/>
        <pt x="376" y="798" on="0"/>
      </contour>
      <contour>
        <pt x="334" y="-9" on="1"/>
        <pt x="179" y="-9" on="0"/>
        <pt x="30" y="178" on="0"/>
        <pt x="30" y="370" on="1"/>
        <pt x="30" y="749" on="0"/>
        <pt x="373" y="749" on="1"/>
        <pt x="447" y="749" on="0"/>
        <pt x="536" y="728" on="1"/>
        <pt x="536" y="597" on="1"/>
        <pt x="488" y="606" on="0"/>
        <pt x="418" y="615" on="0"/>
        <pt x="389" y="615" on="1"/>
        <pt x="335" y="615" on="0"/>
        <pt x="262" y="590" on="0"/>
        <pt x="217" y="533" on="0"/>
        <pt x="198" y="438" on="0"/>
        <pt x="198" y="369" on="1"/>
        <pt x="198" y="299" on="0"/>
        <pt x="214" y="205" on="0"/>
        <pt x="251" y="149" on="0"/>
        <pt x="312" y="126" on="0"/>
        <pt x="357" y="126" on="1"/>
        <pt x="368" y="126" on="0"/>
        <pt x="388" y="126" on="0"/>
        <pt x="399" y="127" on="1"/>
        <pt x="399" y="376" on="1"/>
        <pt x="546" y="376" on="1"/>
        <pt x="546" y="8" on="1"/>
        <pt x="475" y="-2" on="0"/>
        <pt x="377" y="-9" on="0"/>
      </contour>
    </TTGlyph>
    <TTGlyph name="Gdotaccent.sc" xMin="29" yMin="-7" xMax="501" yMax="780">
      <contour>
        <pt x="306" y="-7" on="1"/>
        <pt x="29" y="-7" on="0"/>
        <pt x="29" y="289" on="1"/>
        <pt x="29" y="436" on="0"/>
        <pt x="184" y="585" on="0"/>
        <pt x="341" y="585" on="1"/>
        <pt x="376" y="585" on="0"/>
        <pt x="452" y="576" on="0"/>
        <pt x="492" y="566" on="1"/>
        <pt x="492" y="445" on="1"/>
        <pt x="447" y="453" on="0"/>
        <pt x="383" y="460" on="0"/>
        <pt x="357" y="460" on="1"/>
        <pt x="309" y="460" on="0"/>
        <pt x="244" y="443" on="0"/>
        <pt x="205" y="403" on="0"/>
        <pt x="188" y="337" on="0"/>
        <pt x="188" y="288" on="1"/>
        <pt x="188" y="237" on="0"/>
        <pt x="201" y="172" on="0"/>
        <pt x="233" y="134" on="0"/>
        <pt x="286" y="119" on="0"/>
        <pt x="326" y="119" on="1"/>
        <pt x="327" y="119" on="0"/>
        <pt x="337" y="119" on="0"/>
        <pt x="349" y="119" on="0"/>
        <pt x="360" y="120" on="0"/>
        <pt x="362" y="120" on="1"/>
        <pt x="362" y="293" on="1"/>
        <pt x="501" y="293" on="1"/>
        <pt x="501" y="9" on="1"/>
        <pt x="437" y="0" on="0"/>
        <pt x="346" y="-7" on="0"/>
      </contour>
      <contour>
        <pt x="302" y="622" on="1"/>
        <pt x="259" y="622" on="0"/>
        <pt x="220" y="660" on="0"/>
        <pt x="220" y="702" on="1"/>
        <pt x="220" y="744" on="0"/>
        <pt x="259" y="780" on="0"/>
        <pt x="302" y="780" on="1"/>
        <pt x="346" y="780" on="0"/>
        <pt x="385" y="744" on="0"/>
        <pt x="385" y="702" on="1"/>
        <pt x="385" y="660" on="0"/>
        <pt x="346" y="622" on="0"/>
      </contour>
    </TTGlyph>
    <TTGlyph name="H" xMin="56" yMin="0" xMax="617" yMax="740">
      <contour>
        <pt x="56" y="740" on="1"/>
        <pt x="220" y="740" on="1"/>
        <pt x="220" y="447" on="1"/>
        <pt x="453" y="447" on="1"/>
        <pt x="453" y="740" on="1"/>
        <pt x="617" y="740" on="1"/>
        <pt x="617" y="0" on="1"/>
        <pt x="453" y="0" on="1"/>
        <pt x="453" y="309" on="1"/>
        <pt x="220" y="309" on="1"/>
        <pt x="220" y="0" on="1"/>
        <pt x="56" y="0" on="1"/>
      </contour>
    </TTGlyph>
    <TTGlyph name="H.sc" xMin="54" yMin="0" xMax="569" yMax="577">
      <contour>
        <pt x="54" y="577" on="1"/>
        <pt x="208" y="577" on="1"/>
        <pt x="208" y="359" on="1"/>
        <pt x="414" y="359" on="1"/>
        <pt x="414" y="577" on="1"/>
        <pt x="569" y="577" on="1"/>
        <pt x="569" y="0" on="1"/>
        <pt x="414" y="0" on="1"/>
        <pt x="414" y="231" on="1"/>
        <pt x="208" y="231" on="1"/>
        <pt x="208" y="0" on="1"/>
        <pt x="54" y="0" on="1"/>
      </contour>
    </TTGlyph>
    <TTGlyph name="Hbar" xMin="-2" yMin="0" xMax="709" yMax="740">
      <contour>
        <pt x="-2" y="615" on="1"/>
        <pt x="67" y="615" on="1"/>
        <pt x="67" y="740" on="1"/>
        <pt x="231" y="740" on="1"/>
        <pt x="231" y="615" on="1"/>
        <pt x="464" y="615" on="1"/>
        <pt x="464" y="740" on="1"/>
        <pt x="628" y="740" on="1"/>
        <pt x="628" y="615" on="1"/>
        <pt x="709" y="615" on="1"/>
        <pt x="709" y="539" on="1"/>
        <pt x="628" y="539" on="1"/>
        <pt x="628" y="0" on="1"/>
        <pt x="464" y="0" on="1"/>
        <pt x="464" y="309" on="1"/>
        <pt x="231" y="309" on="1"/>
        <pt x="231" y="0" on="1"/>
        <pt x="67" y="0" on="1"/>
        <pt x="67" y="539" on="1"/>
        <pt x="-2" y="539" on="1"/>
      </contour>
      <contour>
        <pt x="464" y="447" on="1"/>
        <pt x="464" y="539" on="1"/>
        <pt x="231" y="539" on="1"/>
        <pt x="231" y="447" on="1"/>
      </contour>
    </TTGlyph>
    <TTGlyph name="Hbar.sc" xMin="4" yMin="0" xMax="650" yMax="577">
      <contour>
        <pt x="4" y="487" on="1"/>
        <pt x="65" y="487" on="1"/>
        <pt x="65" y="577" on="1"/>
        <pt x="219" y="577" on="1"/>
        <pt x="219" y="487" on="1"/>
        <pt x="425" y="487" on="1"/>
        <pt x="425" y="577" on="1"/>
        <pt x="579" y="577" on="1"/>
        <pt x="579" y="487" on="1"/>
        <pt x="650" y="487" on="1"/>
        <pt x="650" y="418" on="1"/>
        <pt x="579" y="418" on="1"/>
        <pt x="579" y="0" on="1"/>
        <pt x="425" y="0" on="1"/>
        <pt x="425" y="231" on="1"/>
        <pt x="219" y="231" on="1"/>
        <pt x="219" y="0" on="1"/>
        <pt x="65" y="0" on="1"/>
        <pt x="65" y="418" on="1"/>
        <pt x="4" y="418" on="1"/>
      </contour>
      <contour>
        <pt x="425" y="359" on="1"/>
        <pt x="425" y="418" on="1"/>
        <pt x="219" y="418" on="1"/>
        <pt x="219" y="359" on="1"/>
      </contour>
    </TTGlyph>
    <TTGlyph name="Hcircumflex" xMin="56" yMin="0" xMax="617" yMax="972">
      <contour>
        <pt x="56" y="740" on="1"/>
        <pt x="220" y="740" on="1"/>
        <pt x="220" y="447" on="1"/>
        <pt x="453" y="447" on="1"/>
        <pt x="453" y="740" on="1"/>
        <pt x="617" y="740" on="1"/>
        <pt x="617" y="0" on="1"/>
        <pt x="453" y="0" on="1"/>
        <pt x="453" y="309" on="1"/>
        <pt x="220" y="309" on="1"/>
        <pt x="220" y="0" on="1"/>
        <pt x="56" y="0" on="1"/>
      </contour>
      <contour>
        <pt x="173" y="900" on="1"/>
        <pt x="335" y="972" on="1"/>
        <pt x="496" y="900" on="1"/>
        <pt x="496" y="792" on="1"/>
        <pt x="334" y="864" on="1"/>
        <pt x="173" y="792" on="1"/>
      </contour>
    </TTGlyph>
    <TTGlyph name="Hcircumflex.sc" xMin="54" yMin="0" xMax="569" yMax="768">
      <contour>
        <pt x="54" y="577" on="1"/>
        <pt x="208" y="577" on="1"/>
        <pt x="208" y="359" on="1"/>
        <pt x="414" y="359" on="1"/>
        <pt x="414" y="577" on="1"/>
        <pt x="569" y="577" on="1"/>
        <pt x="569" y="0" on="1"/>
        <pt x="414" y="0" on="1"/>
        <pt x="414" y="231" on="1"/>
        <pt x="208" y="231" on="1"/>
        <pt x="208" y="0" on="1"/>
        <pt x="54" y="0" on="1"/>
      </contour>
      <contour>
        <pt x="160" y="712" on="1"/>
        <pt x="310" y="768" on="1"/>
        <pt x="458" y="712" on="1"/>
        <pt x="458" y="614" on="1"/>
        <pt x="310" y="670" on="1"/>
        <pt x="160" y="614" on="1"/>
      </contour>
    </TTGlyph>
    <TTGlyph name="Hdotbelow" xMin="56" yMin="-208" xMax="617" yMax="740">
      <contour>
        <pt x="56" y="740" on="1"/>
        <pt x="220" y="740" on="1"/>
        <pt x="220" y="447" on="1"/>
        <pt x="453" y="447" on="1"/>
        <pt x="453" y="740" on="1"/>
        <pt x="617" y="740" on="1"/>
        <pt x="617" y="0" on="1"/>
        <pt x="453" y="0" on="1"/>
        <pt x="453" y="309" on="1"/>
        <pt x="220" y="309" on="1"/>
        <pt x="220" y="0" on="1"/>
        <pt x="56" y="0" on="1"/>
      </contour>
      <contour>
        <pt x="338" y="-208" on="1"/>
        <pt x="300" y="-208" on="0"/>
        <pt x="268" y="-176" on="0"/>
        <pt x="268" y="-139" on="1"/>
        <pt x="268" y="-103" on="0"/>
        <pt x="300" y="-71" on="0"/>
        <pt x="338" y="-71" on="1"/>
        <pt x="375" y="-71" on="0"/>
        <pt x="409" y="-102" on="0"/>
        <pt x="409" y="-139" on="1"/>
        <pt x="409" y="-177" on="0"/>
        <pt x="375" y="-208" on="0"/>
      </contour>
    </TTGlyph>
    <TTGlyph name="Hdotbelow.sc" xMin="54" yMin="-172" xMax="569" yMax="577">
      <contour>
        <pt x="54" y="577" on="1"/>
        <pt x="208" y="577" on="1"/>
        <pt x="208" y="359" on="1"/>
        <pt x="414" y="359" on="1"/>
        <pt x="414" y="577" on="1"/>
        <pt x="569" y="577" on="1"/>
        <pt x="569" y="0" on="1"/>
        <pt x="414" y="0" on="1"/>
        <pt x="414" y="231" on="1"/>
        <pt x="208" y="231" on="1"/>
        <pt x="208" y="0" on="1"/>
        <pt x="54" y="0" on="1"/>
      </contour>
      <contour>
        <pt x="312" y="-172" on="1"/>
        <pt x="277" y="-172" on="0"/>
        <pt x="247" y="-143" on="0"/>
        <pt x="247" y="-111" on="1"/>
        <pt x="247" y="-79" on="0"/>
        <pt x="277" y="-51" on="0"/>
        <pt x="312" y="-51" on="1"/>
        <pt x="347" y="-51" on="0"/>
        <pt x="378" y="-79" on="0"/>
        <pt x="378" y="-111" on="1"/>
        <pt x="378" y="-144" on="0"/>
        <pt x="347" y="-172" on="0"/>
      </contour>
    </TTGlyph>
    <TTGlyph name="I" xMin="56" yMin="0" xMax="220" yMax="740">
      <contour>
        <pt x="56" y="740" on="1"/>
        <pt x="220" y="740" on="1"/>
        <pt x="220" y="0" on="1"/>
        <pt x="56" y="0" on="1"/>
      </contour>
    </TTGlyph>
    <TTGlyph name="I.sc" xMin="54" yMin="0" xMax="208" yMax="577">
      <contour>
        <pt x="54" y="577" on="1"/>
        <pt x="208" y="577" on="1"/>
        <pt x="208" y="0" on="1"/>
        <pt x="54" y="0" on="1"/>
      </contour>
    </TTGlyph>
    <TTGlyph name="IJ" xMin="56" yMin="-207" xMax="499" yMax="740">
      <contour>
        <pt x="56" y="740" on="1"/>
        <pt x="220" y="740" on="1"/>
        <pt x="220" y="0" on="1"/>
        <pt x="56" y="0" on="1"/>
      </contour>
      <contour>
        <pt x="258" y="-160" on="1"/>
        <pt x="280" y="-109" on="0"/>
        <pt x="309" y="-25" on="0"/>
        <pt x="327" y="56" on="0"/>
        <pt x="334" y="142" on="0"/>
        <pt x="334" y="194" on="1"/>
        <pt x="334" y="740" on="1"/>
        <pt x="499" y="740" on="1"/>
        <pt x="499" y="180" on="1"/>
        <pt x="499" y="129" on="0"/>
        <pt x="484" y="36" on="0"/>
        <pt x="451" y="-56" on="0"/>
        <pt x="399" y="-152" on="0"/>
        <pt x="361" y="-207" on="1"/>
      </contour>
    </TTGlyph>
    <TTGlyph name="Iacute" xMin="56" yMin="0" xMax="305" yMax="973">
      <contour>
        <pt x="56" y="740" on="1"/>
        <pt x="220" y="740" on="1"/>
        <pt x="220" y="0" on="1"/>
        <pt x="56" y="0" on="1"/>
      </contour>
      <contour>
        <pt x="75" y="798" on="1"/>
        <pt x="141" y="973" on="1"/>
        <pt x="305" y="973" on="1"/>
        <pt x="190" y="789" on="1"/>
      </contour>
    </TTGlyph>
    <TTGlyph name="Iacute.sc" xMin="54" yMin="0" xMax="285" yMax="772">
      <contour>
        <pt x="54" y="577" on="1"/>
        <pt x="208" y="577" on="1"/>
        <pt x="208" y="0" on="1"/>
        <pt x="54" y="0" on="1"/>
      </contour>
      <contour>
        <pt x="72" y="625" on="1"/>
        <pt x="131" y="772" on="1"/>
        <pt x="285" y="772" on="1"/>
        <pt x="179" y="617" on="1"/>
      </contour>
    </TTGlyph>
    <TTGlyph name="Ibreve" xMin="-39" yMin="0" xMax="318" yMax="970">
      <contour>
        <pt x="56" y="740" on="1"/>
        <pt x="220" y="740" on="1"/>
        <pt x="220" y="0" on="1"/>
        <pt x="56" y="0" on="1"/>
      </contour>
      <contour>
        <pt x="139" y="795" on="1"/>
        <pt x="51" y="795" on="0"/>
        <pt x="-39" y="888" on="0"/>
        <pt x="-39" y="970" on="1"/>
        <pt x="70" y="970" on="1"/>
        <pt x="70" y="916" on="0"/>
        <pt x="100" y="871" on="0"/>
        <pt x="139" y="871" on="1"/>
        <pt x="177" y="871" on="0"/>
        <pt x="208" y="916" on="0"/>
        <pt x="208" y="970" on="1"/>
        <pt x="318" y="970" on="1"/>
        <pt x="318" y="889" on="0"/>
        <pt x="226" y="795" on="0"/>
      </contour>
    </TTGlyph>
    <TTGlyph name="Ibreve.sc" xMin="-33" yMin="0" xMax="296" yMax="763">
      <contour>
        <pt x="54" y="577" on="1"/>
        <pt x="208" y="577" on="1"/>
        <pt x="208" y="0" on="1"/>
        <pt x="54" y="0" on="1"/>
      </contour>
      <contour>
        <pt x="132" y="617" on="1"/>
        <pt x="49" y="617" on="0"/>
        <pt x="-33" y="695" on="0"/>
        <pt x="-33" y="763" on="1"/>
        <pt x="69" y="763" on="1"/>
        <pt x="69" y="718" on="0"/>
        <pt x="96" y="685" on="0"/>
        <pt x="132" y="685" on="1"/>
        <pt x="167" y="685" on="0"/>
        <pt x="194" y="718" on="0"/>
        <pt x="194" y="763" on="1"/>
        <pt x="296" y="763" on="1"/>
        <pt x="296" y="695" on="0"/>
        <pt x="213" y="617" on="0"/>
      </contour>
    </TTGlyph>
    <TTGlyph name="Icircumflex" xMin="-22" yMin="0" xMax="301" yMax="972">
      <contour>
        <pt x="56" y="740" on="1"/>
        <pt x="220" y="740" on="1"/>
        <pt x="220" y="0" on="1"/>
        <pt x="56" y="0" on="1"/>
      </contour>
      <contour>
        <pt x="-22" y="900" on="1"/>
        <pt x="140" y="972" on="1"/>
        <pt x="301" y="900" on="1"/>
        <pt x="301" y="792" on="1"/>
        <pt x="139" y="864" on="1"/>
        <pt x="-22" y="792" on="1"/>
      </contour>
    </TTGlyph>
    <TTGlyph name="Icircumflex.sc" xMin="-17" yMin="0" xMax="281" yMax="768">
      <contour>
        <pt x="54" y="577" on="1"/>
        <pt x="208" y="577" on="1"/>
        <pt x="208" y="0" on="1"/>
        <pt x="54" y="0" on="1"/>
      </contour>
      <contour>
        <pt x="-17" y="712" on="1"/>
        <pt x="132" y="768" on="1"/>
        <pt x="281" y="712" on="1"/>
        <pt x="281" y="614" on="1"/>
        <pt x="132" y="670" on="1"/>
        <pt x="-17" y="614" on="1"/>
      </contour>
    </TTGlyph>
    <TTGlyph name="Idblgrave" xMin="-102" yMin="0" xMax="283" yMax="973">
      <contour>
        <pt x="56" y="740" on="1"/>
        <pt x="220" y="740" on="1"/>
        <pt x="220" y="0" on="1"/>
        <pt x="56" y="0" on="1"/>
      </contour>
      <contour>
        <pt x="14" y="789" on="1"/>
        <pt x="-102" y="973" on="1"/>
        <pt x="32" y="973" on="1"/>
        <pt x="99" y="800" on="1"/>
      </contour>
      <contour>
        <pt x="199" y="789" on="1"/>
        <pt x="82" y="973" on="1"/>
        <pt x="216" y="973" on="1"/>
        <pt x="283" y="800" on="1"/>
      </contour>
    </TTGlyph>
    <TTGlyph name="Idblgrave.sc" xMin="-90" yMin="0" xMax="266" yMax="772">
      <contour>
        <pt x="54" y="577" on="1"/>
        <pt x="208" y="577" on="1"/>
        <pt x="208" y="0" on="1"/>
        <pt x="54" y="0" on="1"/>
      </contour>
      <contour>
        <pt x="15" y="617" on="1"/>
        <pt x="-90" y="772" on="1"/>
        <pt x="38" y="772" on="1"/>
        <pt x="96" y="625" on="1"/>
      </contour>
      <contour>
        <pt x="185" y="617" on="1"/>
        <pt x="79" y="772" on="1"/>
        <pt x="207" y="772" on="1"/>
        <pt x="266" y="625" on="1"/>
      </contour>
    </TTGlyph>
    <TTGlyph name="Idieresis" xMin="-73" yMin="0" xMax="349" yMax="973">
      <contour>
        <pt x="56" y="740" on="1"/>
        <pt x="220" y="740" on="1"/>
        <pt x="220" y="0" on="1"/>
        <pt x="56" y="0" on="1"/>
      </contour>
      <contour>
        <pt x="15" y="801" on="1"/>
        <pt x="-32" y="801" on="0"/>
        <pt x="-73" y="842" on="0"/>
        <pt x="-73" y="888" on="1"/>
        <pt x="-73" y="933" on="0"/>
        <pt x="-32" y="973" on="0"/>
        <pt x="15" y="973" on="1"/>
        <pt x="61" y="973" on="0"/>
        <pt x="104" y="933" on="0"/>
        <pt x="104" y="888" on="1"/>
        <pt x="104" y="841" on="0"/>
        <pt x="61" y="801" on="0"/>
      </contour>
      <contour>
        <pt x="260" y="801" on="1"/>
        <pt x="213" y="801" on="0"/>
        <pt x="172" y="842" on="0"/>
        <pt x="172" y="888" on="1"/>
        <pt x="172" y="933" on="0"/>
        <pt x="213" y="973" on="0"/>
        <pt x="260" y="973" on="1"/>
        <pt x="306" y="973" on="0"/>
        <pt x="349" y="933" on="0"/>
        <pt x="349" y="888" on="1"/>
        <pt x="349" y="841" on="0"/>
        <pt x="306" y="801" on="0"/>
      </contour>
    </TTGlyph>
    <TTGlyph name="Idieresis.sc" xMin="-64" yMin="0" xMax="327" yMax="780">
      <contour>
        <pt x="54" y="577" on="1"/>
        <pt x="208" y="577" on="1"/>
        <pt x="208" y="0" on="1"/>
        <pt x="54" y="0" on="1"/>
      </contour>
      <contour>
        <pt x="18" y="622" on="1"/>
        <pt x="-26" y="622" on="0"/>
        <pt x="-64" y="659" on="0"/>
        <pt x="-64" y="701" on="1"/>
        <pt x="-64" y="743" on="0"/>
        <pt x="-26" y="780" on="0"/>
        <pt x="18" y="780" on="1"/>
        <pt x="61" y="780" on="0"/>
        <pt x="101" y="743" on="0"/>
        <pt x="101" y="701" on="1"/>
        <pt x="101" y="659" on="0"/>
        <pt x="61" y="622" on="0"/>
      </contour>
      <contour>
        <pt x="244" y="622" on="1"/>
        <pt x="200" y="622" on="0"/>
        <pt x="162" y="659" on="0"/>
        <pt x="162" y="701" on="1"/>
        <pt x="162" y="743" on="0"/>
        <pt x="200" y="780" on="0"/>
        <pt x="244" y="780" on="1"/>
        <pt x="287" y="780" on="0"/>
        <pt x="327" y="743" on="0"/>
        <pt x="327" y="701" on="1"/>
        <pt x="327" y="659" on="0"/>
        <pt x="287" y="622" on="0"/>
      </contour>
    </TTGlyph>
    <TTGlyph name="Idotaccent" xMin="51" yMin="0" xMax="228" yMax="970">
      <contour>
        <pt x="56" y="740" on="1"/>
        <pt x="220" y="740" on="1"/>
        <pt x="220" y="0" on="1"/>
        <pt x="56" y="0" on="1"/>
      </contour>
      <contour>
        <pt x="139" y="798" on="1"/>
        <pt x="92" y="798" on="0"/>
        <pt x="51" y="839" on="0"/>
        <pt x="51" y="885" on="1"/>
        <pt x="51" y="930" on="0"/>
        <pt x="92" y="970" on="0"/>
        <pt x="139" y="970" on="1"/>
        <pt x="185" y="970" on="0"/>
        <pt x="228" y="930" on="0"/>
        <pt x="228" y="885" on="1"/>
        <pt x="228" y="838" on="0"/>
        <pt x="185" y="798" on="0"/>
      </contour>
    </TTGlyph>
    <TTGlyph name="Idotaccent.sc" xMin="50" yMin="0" xMax="215" yMax="780">
      <contour>
        <pt x="54" y="577" on="1"/>
        <pt x="208" y="577" on="1"/>
        <pt x="208" y="0" on="1"/>
        <pt x="54" y="0" on="1"/>
      </contour>
      <contour>
        <pt x="131" y="622" on="1"/>
        <pt x="88" y="622" on="0"/>
        <pt x="50" y="660" on="0"/>
        <pt x="50" y="702" on="1"/>
        <pt x="50" y="744" on="0"/>
        <pt x="88" y="780" on="0"/>
        <pt x="131" y="780" on="1"/>
        <pt x="175" y="780" on="0"/>
        <pt x="215" y="744" on="0"/>
        <pt x="215" y="702" on="1"/>
        <pt x="215" y="660" on="0"/>
        <pt x="175" y="622" on="0"/>
      </contour>
    </TTGlyph>
    <TTGlyph name="Idotbelow" xMin="56" yMin="-208" xMax="220" yMax="740">
      <contour>
        <pt x="56" y="740" on="1"/>
        <pt x="220" y="740" on="1"/>
        <pt x="220" y="0" on="1"/>
        <pt x="56" y="0" on="1"/>
      </contour>
      <contour>
        <pt x="139" y="-208" on="1"/>
        <pt x="101" y="-208" on="0"/>
        <pt x="69" y="-176" on="0"/>
        <pt x="69" y="-139" on="1"/>
        <pt x="69" y="-103" on="0"/>
        <pt x="101" y="-71" on="0"/>
        <pt x="139" y="-71" on="1"/>
        <pt x="176" y="-71" on="0"/>
        <pt x="210" y="-102" on="0"/>
        <pt x="210" y="-139" on="1"/>
        <pt x="210" y="-177" on="0"/>
        <pt x="176" y="-208" on="0"/>
      </contour>
    </TTGlyph>
    <TTGlyph name="Idotbelow.sc" xMin="54" yMin="-172" xMax="208" yMax="577">
      <contour>
        <pt x="54" y="577" on="1"/>
        <pt x="208" y="577" on="1"/>
        <pt x="208" y="0" on="1"/>
        <pt x="54" y="0" on="1"/>
      </contour>
      <contour>
        <pt x="131" y="-172" on="1"/>
        <pt x="96" y="-172" on="0"/>
        <pt x="67" y="-143" on="0"/>
        <pt x="67" y="-111" on="1"/>
        <pt x="67" y="-79" on="0"/>
        <pt x="96" y="-51" on="0"/>
        <pt x="131" y="-51" on="1"/>
        <pt x="166" y="-51" on="0"/>
        <pt x="197" y="-79" on="0"/>
        <pt x="197" y="-111" on="1"/>
        <pt x="197" y="-144" on="0"/>
        <pt x="166" y="-172" on="0"/>
      </contour>
    </TTGlyph>
    <TTGlyph name="Igrave" xMin="-38" yMin="0" xMax="220" yMax="973">
      <contour>
        <pt x="56" y="740" on="1"/>
        <pt x="220" y="740" on="1"/>
        <pt x="220" y="0" on="1"/>
        <pt x="56" y="0" on="1"/>
      </contour>
      <contour>
        <pt x="78" y="789" on="1"/>
        <pt x="-38" y="973" on="1"/>
        <pt x="126" y="973" on="1"/>
        <pt x="193" y="800" on="1"/>
      </contour>
    </TTGlyph>
    <TTGlyph name="Igrave.sc" xMin="-30" yMin="0" xMax="208" yMax="772">
      <contour>
        <pt x="54" y="577" on="1"/>
        <pt x="208" y="577" on="1"/>
        <pt x="208" y="0" on="1"/>
        <pt x="54" y="0" on="1"/>
      </contour>
      <contour>
        <pt x="76" y="617" on="1"/>
        <pt x="-30" y="772" on="1"/>
        <pt x="124" y="772" on="1"/>
        <pt x="183" y="625" on="1"/>
      </contour>
    </TTGlyph>
    <TTGlyph name="Iinvertedbreve" xMin="-38" yMin="0" xMax="319" yMax="980">
      <contour>
        <pt x="56" y="740" on="1"/>
        <pt x="220" y="740" on="1"/>
        <pt x="220" y="0" on="1"/>
        <pt x="56" y="0" on="1"/>
      </contour>
      <contour>
        <pt x="209" y="805" on="1"/>
        <pt x="209" y="860" on="0"/>
        <pt x="178" y="905" on="0"/>
        <pt x="140" y="905" on="1"/>
        <pt x="101" y="905" on="0"/>
        <pt x="71" y="860" on="0"/>
        <pt x="71" y="805" on="1"/>
        <pt x="-38" y="805" on="1"/>
        <pt x="-38" y="887" on="0"/>
        <pt x="52" y="980" on="0"/>
        <pt x="140" y="980" on="1"/>
        <pt x="227" y="980" on="0"/>
        <pt x="319" y="887" on="0"/>
        <pt x="319" y="805" on="1"/>
      </contour>
    </TTGlyph>
    <TTGlyph name="Iinvertedbreve.sc" xMin="-32" yMin="0" xMax="297" yMax="770">
      <contour>
        <pt x="54" y="577" on="1"/>
        <pt x="208" y="577" on="1"/>
        <pt x="208" y="0" on="1"/>
        <pt x="54" y="0" on="1"/>
      </contour>
      <contour>
        <pt x="194" y="625" on="1"/>
        <pt x="194" y="669" on="0"/>
        <pt x="167" y="702" on="0"/>
        <pt x="132" y="702" on="1"/>
        <pt x="96" y="702" on="0"/>
        <pt x="70" y="669" on="0"/>
        <pt x="70" y="625" on="1"/>
        <pt x="-32" y="625" on="1"/>
        <pt x="-32" y="693" on="0"/>
        <pt x="50" y="770" on="0"/>
        <pt x="132" y="770" on="1"/>
        <pt x="213" y="770" on="0"/>
        <pt x="297" y="693" on="0"/>
        <pt x="297" y="625" on="1"/>
      </contour>
    </TTGlyph>
    <TTGlyph name="Imacron" xMin="-22" yMin="0" xMax="295" yMax="944">
      <contour>
        <pt x="56" y="740" on="1"/>
        <pt x="220" y="740" on="1"/>
        <pt x="220" y="0" on="1"/>
        <pt x="56" y="0" on="1"/>
      </contour>
      <contour>
        <pt x="-22" y="944" on="1"/>
        <pt x="295" y="944" on="1"/>
        <pt x="295" y="837" on="1"/>
        <pt x="-22" y="837" on="1"/>
      </contour>
    </TTGlyph>
    <TTGlyph name="Imacron.sc" xMin="-17" yMin="0" xMax="277" yMax="751">
      <contour>
        <pt x="54" y="577" on="1"/>
        <pt x="208" y="577" on="1"/>
        <pt x="208" y="0" on="1"/>
        <pt x="54" y="0" on="1"/>
      </contour>
      <contour>
        <pt x="-17" y="751" on="1"/>
        <pt x="277" y="751" on="1"/>
        <pt x="277" y="652" on="1"/>
        <pt x="-17" y="652" on="1"/>
      </contour>
    </TTGlyph>
    <TTGlyph name="Iogonek" xMin="11" yMin="-220" xMax="220" yMax="740">
      <contour>
        <pt x="56" y="740" on="1"/>
        <pt x="220" y="740" on="1"/>
        <pt x="220" y="-8" on="1"/>
        <pt x="190" y="-19" on="0"/>
        <pt x="150" y="-45" on="0"/>
        <pt x="125" y="-71" on="0"/>
        <pt x="114" y="-94" on="0"/>
        <pt x="114" y="-103" on="1"/>
        <pt x="114" y="-116" on="0"/>
        <pt x="135" y="-127" on="0"/>
        <pt x="152" y="-127" on="1"/>
        <pt x="169" y="-127" on="0"/>
        <pt x="206" y="-120" on="0"/>
        <pt x="220" y="-115" on="1"/>
        <pt x="220" y="-208" on="1"/>
        <pt x="197" y="-213" on="0"/>
        <pt x="157" y="-220" on="0"/>
        <pt x="134" y="-220" on="1"/>
        <pt x="11" y="-220" on="0"/>
        <pt x="11" y="-120" on="1"/>
        <pt x="11" y="-86" on="0"/>
        <pt x="45" y="-32" on="0"/>
        <pt x="87" y="0" on="1"/>
        <pt x="56" y="0" on="1"/>
      </contour>
    </TTGlyph>
    <TTGlyph name="Iogonek.sc" xMin="16" yMin="-172" xMax="209" yMax="577">
      <contour>
        <pt x="55" y="577" on="1"/>
        <pt x="209" y="577" on="1"/>
        <pt x="209" y="-3" on="1"/>
        <pt x="154" y="-23" on="0"/>
        <pt x="113" y="-64" on="0"/>
        <pt x="113" y="-74" on="1"/>
        <pt x="113" y="-87" on="0"/>
        <pt x="146" y="-87" on="1"/>
        <pt x="161" y="-87" on="0"/>
        <pt x="196" y="-81" on="0"/>
        <pt x="209" y="-77" on="1"/>
        <pt x="209" y="-162" on="1"/>
        <pt x="187" y="-167" on="0"/>
        <pt x="152" y="-172" on="0"/>
        <pt x="131" y="-172" on="1"/>
        <pt x="16" y="-172" on="0"/>
        <pt x="16" y="-91" on="1"/>
        <pt x="16" y="-65" on="0"/>
        <pt x="46" y="-25" on="0"/>
        <pt x="81" y="0" on="1"/>
        <pt x="55" y="0" on="1"/>
      </contour>
    </TTGlyph>
    <TTGlyph name="Itilde" xMin="-41" yMin="0" xMax="342" yMax="952">
      <contour>
        <pt x="56" y="740" on="1"/>
        <pt x="220" y="740" on="1"/>
        <pt x="220" y="0" on="1"/>
        <pt x="56" y="0" on="1"/>
      </contour>
      <contour>
        <pt x="-41" y="836" on="1"/>
        <pt x="-12" y="894" on="0"/>
        <pt x="60" y="952" on="0"/>
        <pt x="96" y="952" on="1"/>
        <pt x="115" y="952" on="0"/>
        <pt x="152" y="940" on="0"/>
        <pt x="189" y="925" on="0"/>
        <pt x="226" y="913" on="0"/>
        <pt x="245" y="913" on="1"/>
        <pt x="264" y="913" on="0"/>
        <pt x="298" y="931" on="0"/>
        <pt x="318" y="952" on="1"/>
        <pt x="342" y="931" on="1"/>
        <pt x="315" y="871" on="0"/>
        <pt x="243" y="814" on="0"/>
        <pt x="207" y="814" on="1"/>
        <pt x="187" y="814" on="0"/>
        <pt x="150" y="826" on="0"/>
        <pt x="113" y="840" on="0"/>
        <pt x="77" y="852" on="0"/>
        <pt x="58" y="852" on="1"/>
        <pt x="38" y="852" on="0"/>
        <pt x="2" y="835" on="0"/>
        <pt x="-18" y="815" on="1"/>
      </contour>
    </TTGlyph>
    <TTGlyph name="Itilde.sc" xMin="-35" yMin="0" xMax="319" yMax="756">
      <contour>
        <pt x="54" y="577" on="1"/>
        <pt x="208" y="577" on="1"/>
        <pt x="208" y="0" on="1"/>
        <pt x="54" y="0" on="1"/>
      </contour>
      <contour>
        <pt x="-35" y="651" on="1"/>
        <pt x="-9" y="704" on="0"/>
        <pt x="58" y="755" on="0"/>
        <pt x="91" y="755" on="1"/>
        <pt x="109" y="755" on="0"/>
        <pt x="143" y="746" on="0"/>
        <pt x="177" y="735" on="0"/>
        <pt x="211" y="726" on="0"/>
        <pt x="229" y="726" on="1"/>
        <pt x="246" y="726" on="0"/>
        <pt x="279" y="738" on="0"/>
        <pt x="297" y="756" on="1"/>
        <pt x="319" y="738" on="1"/>
        <pt x="293" y="684" on="0"/>
        <pt x="226" y="634" on="0"/>
        <pt x="193" y="634" on="1"/>
        <pt x="175" y="634" on="0"/>
        <pt x="141" y="643" on="0"/>
        <pt x="107" y="654" on="0"/>
        <pt x="73" y="663" on="0"/>
        <pt x="55" y="663" on="1"/>
        <pt x="37" y="663" on="0"/>
        <pt x="5" y="651" on="0"/>
        <pt x="-15" y="634" on="1"/>
      </contour>
    </TTGlyph>
    <TTGlyph name="J" xMin="-18" yMin="-207" xMax="223" yMax="740">
      <contour>
        <pt x="-18" y="-160" on="1"/>
        <pt x="4" y="-109" on="0"/>
        <pt x="33" y="-25" on="0"/>
        <pt x="51" y="56" on="0"/>
        <pt x="58" y="142" on="0"/>
        <pt x="58" y="194" on="1"/>
        <pt x="58" y="740" on="1"/>
        <pt x="223" y="740" on="1"/>
        <pt x="223" y="180" on="1"/>
        <pt x="223" y="129" on="0"/>
        <pt x="208" y="36" on="0"/>
        <pt x="175" y="-56" on="0"/>
        <pt x="123" y="-152" on="0"/>
        <pt x="85" y="-207" on="1"/>
      </contour>
    </TTGlyph>
    <TTGlyph name="J.sc" xMin="-12" yMin="-167" xMax="211" yMax="577">
      <contour>
        <pt x="-12" y="-125" on="1"/>
        <pt x="8" y="-86" on="0"/>
        <pt x="34" y="-20" on="0"/>
        <pt x="50" y="44" on="0"/>
        <pt x="56" y="113" on="0"/>
        <pt x="56" y="155" on="1"/>
        <pt x="56" y="577" on="1"/>
        <pt x="211" y="577" on="1"/>
        <pt x="211" y="141" on="1"/>
        <pt x="211" y="100" on="0"/>
        <pt x="198" y="27" on="0"/>
        <pt x="169" y="-46" on="0"/>
        <pt x="121" y="-122" on="0"/>
        <pt x="86" y="-167" on="1"/>
      </contour>
    </TTGlyph>
    <TTGlyph name="Jcircumflex" xMin="-19" yMin="-207" xMax="304" yMax="972">
      <contour>
        <pt x="-18" y="-160" on="1"/>
        <pt x="4" y="-109" on="0"/>
        <pt x="33" y="-25" on="0"/>
        <pt x="51" y="56" on="0"/>
        <pt x="58" y="142" on="0"/>
        <pt x="58" y="194" on="1"/>
        <pt x="58" y="740" on="1"/>
        <pt x="223" y="740" on="1"/>
        <pt x="223" y="180" on="1"/>
        <pt x="223" y="129" on="0"/>
        <pt x="208" y="36" on="0"/>
        <pt x="175" y="-56" on="0"/>
        <pt x="123" y="-152" on="0"/>
        <pt x="85" y="-207" on="1"/>
      </contour>
      <contour>
        <pt x="-19" y="900" on="1"/>
        <pt x="143" y="972" on="1"/>
        <pt x="304" y="900" on="1"/>
        <pt x="304" y="792" on="1"/>
        <pt x="142" y="864" on="1"/>
        <pt x="-19" y="792" on="1"/>
      </contour>
    </TTGlyph>
    <TTGlyph name="Jcircumflex.sc" xMin="-13" yMin="-167" xMax="284" yMax="768">
      <contour>
        <pt x="-11" y="-125" on="1"/>
        <pt x="8" y="-86" on="0"/>
        <pt x="34" y="-20" on="0"/>
        <pt x="50" y="44" on="0"/>
        <pt x="56" y="113" on="0"/>
        <pt x="56" y="155" on="1"/>
        <pt x="56" y="577" on="1"/>
        <pt x="211" y="577" on="1"/>
        <pt x="211" y="141" on="1"/>
        <pt x="211" y="100" on="0"/>
        <pt x="198" y="27" on="0"/>
        <pt x="169" y="-46" on="0"/>
        <pt x="121" y="-122" on="0"/>
        <pt x="86" y="-167" on="1"/>
      </contour>
      <contour>
        <pt x="-13" y="712" on="1"/>
        <pt x="137" y="768" on="1"/>
        <pt x="284" y="712" on="1"/>
        <pt x="284" y="614" on="1"/>
        <pt x="136" y="670" on="1"/>
        <pt x="-13" y="614" on="1"/>
      </contour>
    </TTGlyph>
    <TTGlyph name="K" xMin="56" yMin="0" xMax="628" yMax="740">
      <contour>
        <pt x="56" y="740" on="1"/>
        <pt x="220" y="740" on="1"/>
        <pt x="220" y="446" on="1"/>
        <pt x="293" y="446" on="1"/>
        <pt x="426" y="740" on="1"/>
        <pt x="608" y="740" on="1"/>
        <pt x="448" y="407" on="1"/>
        <pt x="393" y="380" on="1"/>
        <pt x="393" y="374" on="1"/>
        <pt x="449" y="347" on="1"/>
        <pt x="628" y="0" on="1"/>
        <pt x="446" y="0" on="1"/>
        <pt x="287" y="309" on="1"/>
        <pt x="220" y="309" on="1"/>
        <pt x="220" y="0" on="1"/>
        <pt x="56" y="0" on="1"/>
      </contour>
    </TTGlyph>
    <TTGlyph name="K.sc" xMin="54" yMin="0" xMax="577" yMax="577">
      <contour>
        <pt x="54" y="577" on="1"/>
        <pt x="208" y="577" on="1"/>
        <pt x="208" y="358" on="1"/>
        <pt x="274" y="358" on="1"/>
        <pt x="389" y="577" on="1"/>
        <pt x="559" y="577" on="1"/>
        <pt x="419" y="319" on="1"/>
        <pt x="361" y="297" on="1"/>
        <pt x="361" y="291" on="1"/>
        <pt x="420" y="269" on="1"/>
        <pt x="577" y="0" on="1"/>
        <pt x="406" y="0" on="1"/>
        <pt x="269" y="231" on="1"/>
        <pt x="208" y="231" on="1"/>
        <pt x="208" y="0" on="1"/>
        <pt x="54" y="0" on="1"/>
      </contour>
    </TTGlyph>
    <TTGlyph name="Kcommaaccent" xMin="56" yMin="-220" xMax="628" yMax="740">
      <contour>
        <pt x="242" y="-69" on="1"/>
        <pt x="406" y="-69" on="1"/>
        <pt x="320" y="-220" on="1"/>
        <pt x="200" y="-220" on="1"/>
      </contour>
      <contour>
        <pt x="56" y="740" on="1"/>
        <pt x="220" y="740" on="1"/>
        <pt x="220" y="446" on="1"/>
        <pt x="293" y="446" on="1"/>
        <pt x="426" y="740" on="1"/>
        <pt x="608" y="740" on="1"/>
        <pt x="448" y="407" on="1"/>
        <pt x="393" y="380" on="1"/>
        <pt x="393" y="374" on="1"/>
        <pt x="449" y="347" on="1"/>
        <pt x="628" y="0" on="1"/>
        <pt x="446" y="0" on="1"/>
        <pt x="287" y="309" on="1"/>
        <pt x="220" y="309" on="1"/>
        <pt x="220" y="0" on="1"/>
        <pt x="56" y="0" on="1"/>
      </contour>
    </TTGlyph>
    <TTGlyph name="Kcommaaccent.sc" xMin="54" yMin="-172" xMax="577" yMax="577">
      <contour>
        <pt x="54" y="577" on="1"/>
        <pt x="208" y="577" on="1"/>
        <pt x="208" y="358" on="1"/>
        <pt x="274" y="358" on="1"/>
        <pt x="389" y="577" on="1"/>
        <pt x="559" y="577" on="1"/>
        <pt x="419" y="319" on="1"/>
        <pt x="361" y="297" on="1"/>
        <pt x="361" y="291" on="1"/>
        <pt x="420" y="269" on="1"/>
        <pt x="577" y="0" on="1"/>
        <pt x="406" y="0" on="1"/>
        <pt x="269" y="231" on="1"/>
        <pt x="208" y="231" on="1"/>
        <pt x="208" y="0" on="1"/>
        <pt x="54" y="0" on="1"/>
      </contour>
      <contour>
        <pt x="220" y="-54" on="1"/>
        <pt x="375" y="-54" on="1"/>
        <pt x="296" y="-172" on="1"/>
        <pt x="183" y="-172" on="1"/>
      </contour>
    </TTGlyph>
    <TTGlyph name="L" xMin="56" yMin="0" xMax="450" yMax="740">
      <contour>
        <pt x="56" y="740" on="1"/>
        <pt x="220" y="740" on="1"/>
        <pt x="220" y="137" on="1"/>
        <pt x="450" y="137" on="1"/>
        <pt x="450" y="0" on="1"/>
        <pt x="56" y="0" on="1"/>
      </contour>
    </TTGlyph>
    <TTGlyph name="L.sc" xMin="54" yMin="0" xMax="417" yMax="577">
      <contour>
        <pt x="54" y="577" on="1"/>
        <pt x="208" y="577" on="1"/>
        <pt x="208" y="127" on="1"/>
        <pt x="417" y="127" on="1"/>
        <pt x="417" y="0" on="1"/>
        <pt x="54" y="0" on="1"/>
      </contour>
    </TTGlyph>
    <TTGlyph name="Lacute" xMin="56" yMin="0" xMax="450" yMax="973">
      <contour>
        <pt x="81" y="798" on="1"/>
        <pt x="147" y="973" on="1"/>
        <pt x="311" y="973" on="1"/>
        <pt x="196" y="789" on="1"/>
      </contour>
      <contour>
        <pt x="56" y="740" on="1"/>
        <pt x="220" y="740" on="1"/>
        <pt x="220" y="137" on="1"/>
        <pt x="450" y="137" on="1"/>
        <pt x="450" y="0" on="1"/>
        <pt x="56" y="0" on="1"/>
      </contour>
    </TTGlyph>
    <TTGlyph name="Lacute.sc" xMin="54" yMin="0" xMax="417" yMax="772">
      <contour>
        <pt x="54" y="577" on="1"/>
        <pt x="208" y="577" on="1"/>
        <pt x="208" y="127" on="1"/>
        <pt x="417" y="127" on="1"/>
        <pt x="417" y="0" on="1"/>
        <pt x="54" y="0" on="1"/>
      </contour>
      <contour>
        <pt x="76" y="625" on="1"/>
        <pt x="135" y="772" on="1"/>
        <pt x="289" y="772" on="1"/>
        <pt x="184" y="617" on="1"/>
      </contour>
    </TTGlyph>
    <TTGlyph name="Lcaron" xMin="56" yMin="0" xMax="505" yMax="795">
      <contour>
        <pt x="379" y="795" on="1"/>
        <pt x="505" y="795" on="1"/>
        <pt x="464" y="567" on="1"/>
        <pt x="379" y="567" on="1"/>
      </contour>
      <contour>
        <pt x="56" y="740" on="1"/>
        <pt x="220" y="740" on="1"/>
        <pt x="220" y="137" on="1"/>
        <pt x="450" y="137" on="1"/>
        <pt x="450" y="0" on="1"/>
        <pt x="56" y="0" on="1"/>
      </contour>
    </TTGlyph>
    <TTGlyph name="Lcaron.sc" xMin="55" yMin="0" xMax="468" yMax="630">
      <contour>
        <pt x="55" y="577" on="1"/>
        <pt x="209" y="577" on="1"/>
        <pt x="209" y="127" on="1"/>
        <pt x="418" y="127" on="1"/>
        <pt x="418" y="0" on="1"/>
        <pt x="55" y="0" on="1"/>
      </contour>
      <contour>
        <pt x="349" y="630" on="1"/>
        <pt x="468" y="630" on="1"/>
        <pt x="429" y="453" on="1"/>
        <pt x="349" y="453" on="1"/>
      </contour>
    </TTGlyph>
    <TTGlyph name="Lcommaaccent" xMin="56" yMin="-220" xMax="450" yMax="740">
      <contour>
        <pt x="178" y="-69" on="1"/>
        <pt x="342" y="-69" on="1"/>
        <pt x="256" y="-220" on="1"/>
        <pt x="136" y="-220" on="1"/>
      </contour>
      <contour>
        <pt x="56" y="740" on="1"/>
        <pt x="220" y="740" on="1"/>
        <pt x="220" y="137" on="1"/>
        <pt x="450" y="137" on="1"/>
        <pt x="450" y="0" on="1"/>
        <pt x="56" y="0" on="1"/>
      </contour>
    </TTGlyph>
    <TTGlyph name="Lcommaaccent.sc" xMin="54" yMin="-172" xMax="417" yMax="577">
      <contour>
        <pt x="54" y="577" on="1"/>
        <pt x="208" y="577" on="1"/>
        <pt x="208" y="127" on="1"/>
        <pt x="417" y="127" on="1"/>
        <pt x="417" y="0" on="1"/>
        <pt x="54" y="0" on="1"/>
      </contour>
      <contour>
        <pt x="163" y="-54" on="1"/>
        <pt x="316" y="-54" on="1"/>
        <pt x="238" y="-172" on="1"/>
        <pt x="125" y="-172" on="1"/>
      </contour>
    </TTGlyph>
    <TTGlyph name="Ldot" xMin="56" yMin="0" xMax="466" yMax="740">
      <contour>
        <pt x="56" y="740" on="1"/>
        <pt x="220" y="740" on="1"/>
        <pt x="220" y="137" on="1"/>
        <pt x="450" y="137" on="1"/>
        <pt x="450" y="0" on="1"/>
        <pt x="56" y="0" on="1"/>
      </contour>
      <contour>
        <pt x="377" y="283" on="1"/>
        <pt x="330" y="283" on="0"/>
        <pt x="289" y="324" on="0"/>
        <pt x="289" y="370" on="1"/>
        <pt x="289" y="416" on="0"/>
        <pt x="330" y="457" on="0"/>
        <pt x="377" y="457" on="1"/>
        <pt x="423" y="457" on="0"/>
        <pt x="466" y="416" on="0"/>
        <pt x="466" y="370" on="1"/>
        <pt x="466" y="324" on="0"/>
        <pt x="423" y="283" on="0"/>
      </contour>
    </TTGlyph>
    <TTGlyph name="Ldot.sc" xMin="54" yMin="0" xMax="435" yMax="577">
      <contour>
        <pt x="54" y="577" on="1"/>
        <pt x="208" y="577" on="1"/>
        <pt x="208" y="127" on="1"/>
        <pt x="417" y="127" on="1"/>
        <pt x="417" y="0" on="1"/>
        <pt x="54" y="0" on="1"/>
      </contour>
      <contour>
        <pt x="352" y="211" on="1"/>
        <pt x="307" y="211" on="0"/>
        <pt x="270" y="249" on="0"/>
        <pt x="270" y="291" on="1"/>
        <pt x="270" y="333" on="0"/>
        <pt x="307" y="369" on="0"/>
        <pt x="352" y="369" on="1"/>
        <pt x="395" y="369" on="0"/>
        <pt x="435" y="333" on="0"/>
        <pt x="435" y="291" on="1"/>
        <pt x="435" y="249" on="0"/>
        <pt x="395" y="211" on="0"/>
      </contour>
    </TTGlyph>
    <TTGlyph name="Lslash" xMin="7" yMin="0" xMax="467" yMax="740">
      <contour>
        <pt x="7" y="345" on="1"/>
        <pt x="73" y="384" on="1"/>
        <pt x="73" y="740" on="1"/>
        <pt x="237" y="740" on="1"/>
        <pt x="237" y="482" on="1"/>
        <pt x="338" y="543" on="1"/>
        <pt x="338" y="423" on="1"/>
        <pt x="237" y="362" on="1"/>
        <pt x="237" y="137" on="1"/>
        <pt x="467" y="137" on="1"/>
        <pt x="467" y="0" on="1"/>
        <pt x="73" y="0" on="1"/>
        <pt x="73" y="264" on="1"/>
        <pt x="7" y="225" on="1"/>
      </contour>
    </TTGlyph>
    <TTGlyph name="Lslash.sc" xMin="11" yMin="0" xMax="433" yMax="577">
      <contour>
        <pt x="11" y="285" on="1"/>
        <pt x="69" y="316" on="1"/>
        <pt x="69" y="577" on="1"/>
        <pt x="224" y="577" on="1"/>
        <pt x="224" y="387" on="1"/>
        <pt x="316" y="435" on="1"/>
        <pt x="316" y="327" on="1"/>
        <pt x="224" y="279" on="1"/>
        <pt x="224" y="127" on="1"/>
        <pt x="433" y="127" on="1"/>
        <pt x="433" y="0" on="1"/>
        <pt x="69" y="0" on="1"/>
        <pt x="69" y="207" on="1"/>
        <pt x="11" y="176" on="1"/>
      </contour>
    </TTGlyph>
    <TTGlyph name="M" xMin="56" yMin="0" xMax="817" yMax="740">
      <contour>
        <pt x="56" y="740" on="1"/>
        <pt x="291" y="740" on="1"/>
        <pt x="409" y="369" on="1"/>
        <pt x="433" y="246" on="1"/>
        <pt x="440" y="246" on="1"/>
        <pt x="463" y="369" on="1"/>
        <pt x="583" y="740" on="1"/>
        <pt x="817" y="740" on="1"/>
        <pt x="817" y="0" on="1"/>
        <pt x="664" y="0" on="1"/>
        <pt x="664" y="538" on="1"/>
        <pt x="658" y="538" on="1"/>
        <pt x="625" y="413" on="1"/>
        <pt x="504" y="38" on="1"/>
        <pt x="366" y="38" on="1"/>
        <pt x="246" y="413" on="1"/>
        <pt x="212" y="538" on="1"/>
        <pt x="206" y="538" on="1"/>
        <pt x="206" y="0" on="1"/>
        <pt x="56" y="0" on="1"/>
      </contour>
    </TTGlyph>
    <TTGlyph name="M.sc" xMin="54" yMin="0" xMax="748" yMax="577">
      <contour>
        <pt x="54" y="577" on="1"/>
        <pt x="273" y="577" on="1"/>
        <pt x="377" y="297" on="1"/>
        <pt x="396" y="219" on="1"/>
        <pt x="404" y="219" on="1"/>
        <pt x="424" y="297" on="1"/>
        <pt x="528" y="577" on="1"/>
        <pt x="748" y="577" on="1"/>
        <pt x="748" y="0" on="1"/>
        <pt x="606" y="0" on="1"/>
        <pt x="606" y="401" on="1"/>
        <pt x="598" y="400" on="1"/>
        <pt x="560" y="289" on="1"/>
        <pt x="465" y="31" on="1"/>
        <pt x="336" y="31" on="1"/>
        <pt x="241" y="289" on="1"/>
        <pt x="204" y="400" on="1"/>
        <pt x="196" y="401" on="1"/>
        <pt x="196" y="0" on="1"/>
        <pt x="54" y="0" on="1"/>
      </contour>
    </TTGlyph>
    <TTGlyph name="N" xMin="56" yMin="0" xMax="624" yMax="740">
      <contour>
        <pt x="56" y="740" on="1"/>
        <pt x="193" y="740" on="1"/>
        <pt x="431" y="366" on="1"/>
        <pt x="470" y="287" on="1"/>
        <pt x="479" y="287" on="1"/>
        <pt x="479" y="740" on="1"/>
        <pt x="624" y="740" on="1"/>
        <pt x="624" y="0" on="1"/>
        <pt x="487" y="0" on="1"/>
        <pt x="247" y="377" on="1"/>
        <pt x="210" y="455" on="1"/>
        <pt x="200" y="455" on="1"/>
        <pt x="200" y="0" on="1"/>
        <pt x="56" y="0" on="1"/>
      </contour>
    </TTGlyph>
    <TTGlyph name="N.sc" xMin="54" yMin="0" xMax="572" yMax="577">
      <contour>
        <pt x="54" y="577" on="1"/>
        <pt x="180" y="577" on="1"/>
        <pt x="383" y="311" on="1"/>
        <pt x="426" y="248" on="1"/>
        <pt x="435" y="248" on="1"/>
        <pt x="435" y="577" on="1"/>
        <pt x="572" y="577" on="1"/>
        <pt x="572" y="0" on="1"/>
        <pt x="447" y="0" on="1"/>
        <pt x="242" y="270" on="1"/>
        <pt x="200" y="331" on="1"/>
        <pt x="191" y="332" on="1"/>
        <pt x="191" y="0" on="1"/>
        <pt x="54" y="0" on="1"/>
      </contour>
    </TTGlyph>
    <TTGlyph name="Nacute" xMin="56" yMin="0" xMax="624" yMax="973">
      <contour>
        <pt x="267" y="798" on="1"/>
        <pt x="333" y="973" on="1"/>
        <pt x="497" y="973" on="1"/>
        <pt x="382" y="789" on="1"/>
      </contour>
      <contour>
        <pt x="56" y="740" on="1"/>
        <pt x="193" y="740" on="1"/>
        <pt x="431" y="366" on="1"/>
        <pt x="470" y="287" on="1"/>
        <pt x="479" y="287" on="1"/>
        <pt x="479" y="740" on="1"/>
        <pt x="624" y="740" on="1"/>
        <pt x="624" y="0" on="1"/>
        <pt x="487" y="0" on="1"/>
        <pt x="247" y="377" on="1"/>
        <pt x="210" y="455" on="1"/>
        <pt x="200" y="455" on="1"/>
        <pt x="200" y="0" on="1"/>
        <pt x="56" y="0" on="1"/>
      </contour>
    </TTGlyph>
    <TTGlyph name="Nacute.sc" xMin="54" yMin="0" xMax="572" yMax="772">
      <contour>
        <pt x="54" y="577" on="1"/>
        <pt x="180" y="577" on="1"/>
        <pt x="383" y="311" on="1"/>
        <pt x="426" y="248" on="1"/>
        <pt x="435" y="248" on="1"/>
        <pt x="435" y="577" on="1"/>
        <pt x="572" y="577" on="1"/>
        <pt x="572" y="0" on="1"/>
        <pt x="447" y="0" on="1"/>
        <pt x="242" y="270" on="1"/>
        <pt x="200" y="331" on="1"/>
        <pt x="191" y="332" on="1"/>
        <pt x="191" y="0" on="1"/>
        <pt x="54" y="0" on="1"/>
      </contour>
      <contour>
        <pt x="244" y="625" on="1"/>
        <pt x="303" y="772" on="1"/>
        <pt x="456" y="772" on="1"/>
        <pt x="351" y="617" on="1"/>
      </contour>
    </TTGlyph>
    <TTGlyph name="Ncaron" xMin="56" yMin="0" xMax="624" yMax="968">
      <contour>
        <pt x="179" y="968" on="1"/>
        <pt x="340" y="897" on="1"/>
        <pt x="501" y="968" on="1"/>
        <pt x="501" y="860" on="1"/>
        <pt x="341" y="788" on="1"/>
        <pt x="179" y="860" on="1"/>
      </contour>
      <contour>
        <pt x="56" y="740" on="1"/>
        <pt x="193" y="740" on="1"/>
        <pt x="431" y="366" on="1"/>
        <pt x="470" y="287" on="1"/>
        <pt x="479" y="287" on="1"/>
        <pt x="479" y="740" on="1"/>
        <pt x="624" y="740" on="1"/>
        <pt x="624" y="0" on="1"/>
        <pt x="487" y="0" on="1"/>
        <pt x="247" y="377" on="1"/>
        <pt x="210" y="455" on="1"/>
        <pt x="200" y="455" on="1"/>
        <pt x="200" y="0" on="1"/>
        <pt x="56" y="0" on="1"/>
      </contour>
    </TTGlyph>
    <TTGlyph name="Ncaron.sc" xMin="54" yMin="0" xMax="572" yMax="768">
      <contour>
        <pt x="54" y="577" on="1"/>
        <pt x="180" y="577" on="1"/>
        <pt x="383" y="311" on="1"/>
        <pt x="426" y="248" on="1"/>
        <pt x="435" y="248" on="1"/>
        <pt x="435" y="577" on="1"/>
        <pt x="572" y="577" on="1"/>
        <pt x="572" y="0" on="1"/>
        <pt x="447" y="0" on="1"/>
        <pt x="242" y="270" on="1"/>
        <pt x="200" y="331" on="1"/>
        <pt x="191" y="332" on="1"/>
        <pt x="191" y="0" on="1"/>
        <pt x="54" y="0" on="1"/>
      </contour>
      <contour>
        <pt x="164" y="669" on="1"/>
        <pt x="164" y="768" on="1"/>
        <pt x="312" y="712" on="1"/>
        <pt x="462" y="768" on="1"/>
        <pt x="462" y="669" on="1"/>
        <pt x="313" y="613" on="1"/>
      </contour>
    </TTGlyph>
    <TTGlyph name="Ncommaaccent" xMin="56" yMin="-220" xMax="624" yMax="740">
      <contour>
        <pt x="271" y="-69" on="1"/>
        <pt x="435" y="-69" on="1"/>
        <pt x="349" y="-220" on="1"/>
        <pt x="229" y="-220" on="1"/>
      </contour>
      <contour>
        <pt x="56" y="740" on="1"/>
        <pt x="193" y="740" on="1"/>
        <pt x="431" y="366" on="1"/>
        <pt x="470" y="287" on="1"/>
        <pt x="479" y="287" on="1"/>
        <pt x="479" y="740" on="1"/>
        <pt x="624" y="740" on="1"/>
        <pt x="624" y="0" on="1"/>
        <pt x="487" y="0" on="1"/>
        <pt x="247" y="377" on="1"/>
        <pt x="210" y="455" on="1"/>
        <pt x="200" y="455" on="1"/>
        <pt x="200" y="0" on="1"/>
        <pt x="56" y="0" on="1"/>
      </contour>
    </TTGlyph>
    <TTGlyph name="Ncommaaccent.sc" xMin="54" yMin="-172" xMax="572" yMax="577">
      <contour>
        <pt x="54" y="577" on="1"/>
        <pt x="180" y="577" on="1"/>
        <pt x="383" y="311" on="1"/>
        <pt x="426" y="248" on="1"/>
        <pt x="435" y="248" on="1"/>
        <pt x="435" y="577" on="1"/>
        <pt x="572" y="577" on="1"/>
        <pt x="572" y="0" on="1"/>
        <pt x="447" y="0" on="1"/>
        <pt x="242" y="270" on="1"/>
        <pt x="200" y="331" on="1"/>
        <pt x="191" y="332" on="1"/>
        <pt x="191" y="0" on="1"/>
        <pt x="54" y="0" on="1"/>
      </contour>
      <contour>
        <pt x="247" y="-54" on="1"/>
        <pt x="400" y="-54" on="1"/>
        <pt x="322" y="-172" on="1"/>
        <pt x="209" y="-172" on="1"/>
      </contour>
    </TTGlyph>
    <TTGlyph name="Ndotaccent" xMin="56" yMin="0" xMax="624" yMax="970">
      <contour>
        <pt x="331" y="798" on="1"/>
        <pt x="284" y="798" on="0"/>
        <pt x="243" y="839" on="0"/>
        <pt x="243" y="885" on="1"/>
        <pt x="243" y="930" on="0"/>
        <pt x="284" y="970" on="0"/>
        <pt x="331" y="970" on="1"/>
        <pt x="377" y="970" on="0"/>
        <pt x="420" y="930" on="0"/>
        <pt x="420" y="885" on="1"/>
        <pt x="420" y="838" on="0"/>
        <pt x="377" y="798" on="0"/>
      </contour>
      <contour>
        <pt x="56" y="740" on="1"/>
        <pt x="193" y="740" on="1"/>
        <pt x="431" y="366" on="1"/>
        <pt x="470" y="287" on="1"/>
        <pt x="479" y="287" on="1"/>
        <pt x="479" y="740" on="1"/>
        <pt x="624" y="740" on="1"/>
        <pt x="624" y="0" on="1"/>
        <pt x="487" y="0" on="1"/>
        <pt x="247" y="377" on="1"/>
        <pt x="210" y="455" on="1"/>
        <pt x="200" y="455" on="1"/>
        <pt x="200" y="0" on="1"/>
        <pt x="56" y="0" on="1"/>
      </contour>
    </TTGlyph>
    <TTGlyph name="Ndotaccent.sc" xMin="54" yMin="0" xMax="572" yMax="780">
      <contour>
        <pt x="54" y="577" on="1"/>
        <pt x="180" y="577" on="1"/>
        <pt x="383" y="311" on="1"/>
        <pt x="426" y="248" on="1"/>
        <pt x="435" y="248" on="1"/>
        <pt x="435" y="577" on="1"/>
        <pt x="572" y="577" on="1"/>
        <pt x="572" y="0" on="1"/>
        <pt x="447" y="0" on="1"/>
        <pt x="242" y="270" on="1"/>
        <pt x="200" y="331" on="1"/>
        <pt x="191" y="332" on="1"/>
        <pt x="191" y="0" on="1"/>
        <pt x="54" y="0" on="1"/>
      </contour>
      <contour>
        <pt x="305" y="622" on="1"/>
        <pt x="261" y="622" on="0"/>
        <pt x="222" y="660" on="0"/>
        <pt x="222" y="702" on="1"/>
        <pt x="222" y="744" on="0"/>
        <pt x="261" y="780" on="0"/>
        <pt x="305" y="780" on="1"/>
        <pt x="348" y="780" on="0"/>
        <pt x="388" y="744" on="0"/>
        <pt x="388" y="702" on="1"/>
        <pt x="388" y="660" on="0"/>
        <pt x="348" y="622" on="0"/>
      </contour>
    </TTGlyph>
    <TTGlyph name="Ntilde" xMin="56" yMin="0" xMax="624" yMax="952">
      <contour>
        <pt x="151" y="836" on="1"/>
        <pt x="180" y="894" on="0"/>
        <pt x="252" y="952" on="0"/>
        <pt x="288" y="952" on="1"/>
        <pt x="307" y="952" on="0"/>
        <pt x="344" y="940" on="0"/>
        <pt x="381" y="925" on="0"/>
        <pt x="418" y="913" on="0"/>
        <pt x="437" y="913" on="1"/>
        <pt x="456" y="913" on="0"/>
        <pt x="490" y="931" on="0"/>
        <pt x="510" y="952" on="1"/>
        <pt x="534" y="931" on="1"/>
        <pt x="507" y="871" on="0"/>
        <pt x="435" y="814" on="0"/>
        <pt x="399" y="814" on="1"/>
        <pt x="379" y="814" on="0"/>
        <pt x="342" y="826" on="0"/>
        <pt x="305" y="840" on="0"/>
        <pt x="269" y="852" on="0"/>
        <pt x="250" y="852" on="1"/>
        <pt x="230" y="852" on="0"/>
        <pt x="194" y="835" on="0"/>
        <pt x="174" y="815" on="1"/>
      </contour>
      <contour>
        <pt x="56" y="740" on="1"/>
        <pt x="193" y="740" on="1"/>
        <pt x="431" y="366" on="1"/>
        <pt x="470" y="287" on="1"/>
        <pt x="479" y="287" on="1"/>
        <pt x="479" y="740" on="1"/>
        <pt x="624" y="740" on="1"/>
        <pt x="624" y="0" on="1"/>
        <pt x="487" y="0" on="1"/>
        <pt x="247" y="377" on="1"/>
        <pt x="210" y="455" on="1"/>
        <pt x="200" y="455" on="1"/>
        <pt x="200" y="0" on="1"/>
        <pt x="56" y="0" on="1"/>
      </contour>
    </TTGlyph>
    <TTGlyph name="Ntilde.sc" xMin="54" yMin="0" xMax="572" yMax="756">
      <contour>
        <pt x="139" y="651" on="1"/>
        <pt x="165" y="704" on="0"/>
        <pt x="232" y="755" on="0"/>
        <pt x="265" y="755" on="1"/>
        <pt x="283" y="755" on="0"/>
        <pt x="317" y="746" on="0"/>
        <pt x="351" y="735" on="0"/>
        <pt x="385" y="726" on="0"/>
        <pt x="403" y="726" on="1"/>
        <pt x="420" y="726" on="0"/>
        <pt x="452" y="738" on="0"/>
        <pt x="471" y="756" on="1"/>
        <pt x="492" y="738" on="1"/>
        <pt x="466" y="684" on="0"/>
        <pt x="400" y="634" on="0"/>
        <pt x="366" y="634" on="1"/>
        <pt x="348" y="634" on="0"/>
        <pt x="314" y="643" on="0"/>
        <pt x="280" y="654" on="0"/>
        <pt x="246" y="663" on="0"/>
        <pt x="228" y="663" on="1"/>
        <pt x="211" y="663" on="0"/>
        <pt x="179" y="651" on="0"/>
        <pt x="159" y="634" on="1"/>
      </contour>
      <contour>
        <pt x="54" y="577" on="1"/>
        <pt x="180" y="577" on="1"/>
        <pt x="383" y="311" on="1"/>
        <pt x="426" y="248" on="1"/>
        <pt x="435" y="248" on="1"/>
        <pt x="435" y="577" on="1"/>
        <pt x="572" y="577" on="1"/>
        <pt x="572" y="0" on="1"/>
        <pt x="447" y="0" on="1"/>
        <pt x="242" y="270" on="1"/>
        <pt x="200" y="331" on="1"/>
        <pt x="191" y="332" on="1"/>
        <pt x="191" y="0" on="1"/>
        <pt x="54" y="0" on="1"/>
      </contour>
    </TTGlyph>
    <TTGlyph name="O" xMin="30" yMin="-10" xMax="638" yMax="750">
      <contour>
        <pt x="333" y="-10" on="1"/>
        <pt x="180" y="-10" on="0"/>
        <pt x="30" y="177" on="0"/>
        <pt x="30" y="369" on="1"/>
        <pt x="30" y="562" on="0"/>
        <pt x="180" y="750" on="0"/>
        <pt x="333" y="750" on="1"/>
        <pt x="488" y="750" on="0"/>
        <pt x="638" y="562" on="0"/>
        <pt x="638" y="369" on="1"/>
        <pt x="638" y="175" on="0"/>
        <pt x="489" y="-10" on="0"/>
      </contour>
      <contour>
        <pt x="333" y="125" on="1"/>
        <pt x="371" y="125" on="0"/>
        <pt x="423" y="150" on="0"/>
        <pt x="456" y="208" on="0"/>
        <pt x="470" y="301" on="0"/>
        <pt x="470" y="369" on="1"/>
        <pt x="470" y="438" on="0"/>
        <pt x="456" y="532" on="0"/>
        <pt x="424" y="590" on="0"/>
        <pt x="371" y="615" on="0"/>
        <pt x="333" y="615" on="1"/>
        <pt x="296" y="615" on="0"/>
        <pt x="244" y="589" on="0"/>
        <pt x="212" y="531" on="0"/>
        <pt x="198" y="437" on="0"/>
        <pt x="198" y="369" on="1"/>
        <pt x="198" y="302" on="0"/>
        <pt x="212" y="209" on="0"/>
        <pt x="244" y="151" on="0"/>
        <pt x="296" y="125" on="0"/>
      </contour>
    </TTGlyph>
</ttFont>
